<?xml version="1.0" standalone="yes"?>
<svg xmlns="http://www.w3.org/2000/svg" width="2200" height="1408">
<path style="fill:#ffffff; stroke:none;" d="M0 0L0 1408L1110 1408C1110 1401.04 1109.88 1394.38 1113 1388C1114.55 1394.51 1114 1401.34 1114 1408L1777 1408L1932 1408C1942.13 1408 1955.17 1410.2 1964.99 1407.68C1968.83 1406.69 1971.05 1401.21 1974.97 1401.21C1978.45 1401.21 1979.47 1405.38 1980 1408L2010 1408C2014.25 1408 2019.68 1408.89 2023.79 1407.68C2028.88 1406.18 2029.96 1397.21 2035.96 1397.21C2041.37 1397.21 2040.77 1404.64 2040 1408L2200 1408L2200 859C2192.12 858.373 2183.7 856.472 2176 854.671C2173.71 854.134 2168.95 851.727 2172.38 849.125C2176.23 846.2 2181.11 849.786 2185 850.61C2189.95 851.662 2195.07 850.623 2200 850L2200 799C2192.8 799 2186.11 797.566 2179 797L2179 795L2200 794L2200 548C2193.06 550.891 2185.01 553.811 2179 558.376C2168.44 566.391 2161.26 576.704 2147 577C2149.29 570.697 2152 562.334 2156.53 557.3C2162.66 550.477 2172.68 545.96 2180 540.375C2184.66 536.817 2188.89 533.419 2193.28 529.529C2195.61 527.467 2198.79 526.117 2199.68 522.896C2201.08 517.84 2200 511.223 2200 506L2200 472L2200 361L2200 0L1604 0L1430 0L1380 0C1373.29 0 1363.35 -1.84033 1357.04 0.603394C1349.94 3.35571 1348.05 13.3114 1341 17L1348 0L797 0L671 0L645 0C641.562 0 636.43 -0.911377 633.39 1.02771C628.776 3.97107 626.366 13.0056 625 18C624.451 11.8002 627.617 5.97571 629 0C586.652 0 544.196 0.043335 502 1.16968C495.203 1.35107 487.954 0 481 0L392 0L99 0C97.2938 10.9865 92.6038 21.3319 80 22.7469C74.2005 23.3981 68.9123 21.5924 63 23C63.1174 20.2701 63.4991 17.6859 64 15C57.3148 11.3309 58.716 6.63245 59 0L0 0z"/>
<path style="fill:#020202; stroke:none;" d="M59 0C58.4946 6.40356 56.6344 12.351 64 15C63.3522 17.7089 63.0583 20.2157 63 23C69.1717 21.8542 74.9816 23.6499 81 22.7823C93.2367 21.0186 97.9992 11.1259 99 0L59 0M498 0C500.529 1.71216 502.05 1.73279 505 1C502.668 0.0153809 500.543 0.0187988 498 0M624 18C627.989 13.062 630.554 5.87439 633 0C626.053 1.20239 624.808 12.0081 624 18M1341 17C1348.26 14.5089 1352.14 6.25281 1356 0C1353.59 0.00854492 1350.53 -0.376221 1348.42 1.02771C1344.32 3.74634 1342.23 12.4845 1341 17M1220.33 16.6666C1220.28 16.722 1220.22 17.7778 1220.67 17.3334C1220.72 17.2776 1220.78 16.2224 1220.33 16.6666M580 30C577.773 36.5402 572.651 40.9299 570.196 47C569.301 49.2131 569.875 51.6951 569.432 54C568.77 57.4427 566.963 60.631 566 64C573.842 56.2407 579.479 40.6405 582 30L580 30M1604 30C1599.99 49.3801 1598.35 68.4137 1595.71 88C1594.13 99.7487 1590.59 111.047 1592 123L1594 123C1594.46 117.417 1596.76 112.458 1597.67 107C1598.73 100.738 1598.53 94.2882 1599.29 88C1600.69 76.2889 1603.64 64.5846 1605.8 53C1606.91 47.0582 1611.5 32.489 1604 30M1228 32L1229 36C1229.55 33.9922 1229.3 33.6676 1228 32M1230 37C1230.81 41.062 1232.4 43.8744 1236 46C1236.06 43.2157 1236.35 40.7091 1237 38C1234.32 38.1687 1232.54 37.8837 1230 37M608 52C605.921 57.0006 603.435 61.754 602 67C605.472 63.5616 609.377 56.9635 608 52M1686 73C1693.65 70.2747 1698.84 60.7128 1700 53C1692.42 56.547 1688.24 65.2303 1686 73M216 69.9382C212.22 71.5634 206.454 75.6064 204.514 79.3248C200.75 86.5387 204.481 98.7714 211.093 103.146C217.387 107.31 226.445 106.137 232.956 103.147C237.014 101.283 237.562 97.8719 238.819 94C243.308 80.1823 232.02 63.051 216 69.9382M1287 138C1297.5 133.063 1301.52 119.992 1305.6 110C1308.31 103.382 1311.66 97.0741 1315.42 91C1319.66 84.1644 1325.16 77.2039 1326 69C1318.62 71.1204 1316.57 79.8539 1313.14 86C1306.96 97.066 1299.27 107.249 1292.58 118C1288.61 124.38 1284.75 130.311 1287 138M1231 70C1231.17 77.0676 1234.86 81.7637 1237.69 88C1242.1 97.7284 1243.53 112.648 1254 118C1253.75 106.08 1246.51 97.1554 1241.26 87C1238.23 81.1469 1235.91 74.5342 1231 70M1611 81C1605.17 93.4908 1610.39 103.114 1615 115C1620.18 113.281 1618.64 108.568 1619.18 104C1620.26 94.9861 1621.39 85.1259 1611 81M151 101C159.077 100.556 160.075 95.0198 158 88C150.815 89.8981 151.001 94.4307 151 101M588 99C585.91 102.598 584.426 105.838 584 110C586.514 106.955 588.826 102.994 588 99M103.105 105.047C96.8345 108.323 99.6863 120.045 106.606 115.806C111.642 112.72 109.893 101.5 103.105 105.047M747 148C752.004 148.741 753.569 144.978 755.85 141C760.089 133.605 768.932 122.173 766.552 113.019C763.53 101.397 752.859 114.944 751.109 120C749.868 123.584 750.153 127.292 749.714 131C749.028 136.801 748.302 142.305 747 148M1366 113C1358.05 115.771 1359.68 122.072 1358.38 129C1357.54 133.483 1355.47 137.563 1354.52 142C1353.05 148.815 1353 156.062 1353 163C1353 167.257 1351.95 176.33 1356.42 178.914C1362.52 182.445 1366.91 167.675 1367.96 164C1371.41 151.903 1367.99 141.923 1367.09 130C1366.63 123.866 1368.79 118.811 1366 113M1223 115C1219.58 126.598 1227.68 138.982 1225.79 151C1224.84 157.024 1220.01 161.52 1216.29 166C1211.99 171.171 1208.08 176.851 1205.31 183C1203.3 187.486 1201.82 193.319 1204.18 197.985C1205.71 201.017 1209.82 203.244 1209.2 207.039C1207.42 217.877 1193.21 222.236 1186.01 228.329C1182.01 231.719 1177.93 236.786 1176.66 242C1175.95 244.879 1176.77 248.406 1180.06 249.184C1183.41 249.977 1187.3 247 1190 245.396C1199.07 240.004 1203.54 233.001 1210.08 225C1213.84 220.398 1220.72 212.084 1221.36 206C1221.73 202.442 1218.5 199.581 1219.71 196C1221.41 190.969 1226.37 186.914 1228.68 182C1231.53 175.908 1234.56 168.657 1235.67 162C1236.28 158.359 1235.66 154.638 1236.21 151C1236.85 146.806 1239.68 143.297 1239.85 139C1240.22 129.99 1230.97 118.225 1223 115M1137 119L1137 121L1139 121L1139 119L1137 119M239.145 122.06C233.605 122.942 237.884 132.568 242.772 131.249C248.074 129.818 243.521 121.364 239.145 122.06M1591 128C1583.51 145.407 1583.96 164.674 1581.71 183C1578.1 212.393 1571 242.302 1571 272C1574.88 269.735 1574.98 266.123 1576 262C1580.33 268.095 1578 277.677 1578 285C1581.04 282.861 1581.34 279.532 1582.11 276C1583.94 267.69 1585.91 258.519 1586 250C1586.07 242.832 1585.56 235.142 1584.9 228C1584.65 225.305 1583.47 222.717 1583.53 220C1583.6 217.302 1584.69 214.7 1584.91 212C1585.55 204.036 1584.95 195.918 1586.33 188C1586.92 184.578 1588.56 181.487 1588.9 178C1589.76 168.975 1588.46 153.973 1596 148C1595.39 144.564 1593.73 141.442 1593.21 138C1592.64 134.227 1593.39 131.156 1591 128M570 140C569.11 141.744 568.547 143.125 568 145C570.131 143.516 570.71 142.531 570 140M1289 157C1287.82 163.13 1292.24 168.56 1294.69 174C1299.86 185.487 1300.61 205.672 1313 212C1311.94 198.991 1304.44 188.605 1299.43 177C1296.49 170.2 1294.77 161.951 1289 157M1498 161.671C1491.65 162.819 1485.14 167.826 1481.56 173.004C1478.78 177.017 1479.18 181.456 1485 180.651C1491.04 179.817 1498.02 174.784 1501.57 169.985C1504.33 166.246 1503.84 160.615 1498 161.671M768 171C768.684 172.58 768.805 172.777 770 174C769.317 172.42 769.195 172.223 768 171M851.434 172.028C847.26 174.888 850.445 181.46 851.811 185C855.532 194.647 858.543 206.625 864.789 214.96C866.86 217.723 871.715 222.813 875.656 220.864C879.41 219.008 879.032 213.463 878.996 210C878.872 197.906 871.401 188.105 864.196 179C861.476 175.563 856.734 168.399 851.434 172.028M1537 201C1540.28 200.625 1541.88 200.193 1543 197C1540.26 197.931 1538.9 198.819 1537 201M106 201C102.306 208.359 101.246 216.867 102.428 225C102.767 227.331 103.201 233.675 106.895 233.079C110.548 232.489 110.902 226.771 110.985 224C111.222 216.027 112.836 206.419 106 201M1504 219C1508.72 220.292 1513.13 216.467 1516 213C1511.8 214.53 1507.86 216.743 1504 219M1465 245C1473.13 242.653 1479.25 236.85 1486 232C1479.15 230.859 1467.96 239.169 1465 245M748 235C746.535 242.952 754.07 246.832 761 247C759.627 240.197 754.475 236.637 748 235M1296 241C1296.67 243.297 1296.97 243.774 1299 245C1298.15 243.009 1297.73 242.222 1296 241M1123 258C1121 264.32 1121.95 269.521 1122 276C1128.54 273.83 1126 263.399 1125 258L1123 258M1359 260L1360 261L1359 260M1306 262C1306.55 263.635 1306.36 263.455 1308 264L1308 262L1306 262M904 263L904 266C905.195 264.777 905.316 264.58 906 263L904 263M1244 266L1243 270C1244.43 268.607 1245.04 267.767 1246 266L1244 266M599 267C599.176 268.878 599.438 270.199 600 272C601.875 271.453 603.255 270.89 605 270C603.012 267.939 601.843 267.421 599 267M784 268C784.341 274.222 787.358 278.361 793 281C792.381 274.985 789.714 270.32 784 268M1161 277C1164.01 275.495 1165.07 274.241 1166 271C1162.09 271.652 1161.3 273.135 1161 277M2127 271C2127.34 278.418 2131.14 288.436 2138 292C2136.88 284.555 2132.86 277.884 2130 271L2127 271M1984 296C1990.87 291.986 1988.16 279.368 1986 273C1977.63 277.391 1982.49 288.676 1984 296M932 275C929.854 279.841 928.444 284.912 927 290C921.941 286.45 918.028 281.925 912 280C909.757 292.083 917.3 299.048 920.996 310C924.572 320.596 924.012 332.177 929.88 341.981C932.098 345.688 935.645 347.114 938.391 350.224C944.428 357.058 946.557 365.607 943 374C940.724 371.546 938.601 369.095 936 367C934.344 372.616 935.861 376.75 938 382L944 379C947.952 389.264 946.11 399.673 942.667 410C941.297 414.108 939.959 418.826 935.956 421.168C932.521 423.179 927.814 421.824 924 422.68C917.612 424.113 910.934 427.233 905 429.966C897.139 433.587 892.271 441.655 884 444.612C878.7 446.506 870.873 443.65 866.39 446.117C857.26 451.144 859.963 470.538 847 471.601C845.033 471.762 842.878 471.234 841 470.699C839.264 470.205 837.569 469.541 836.005 468.633C826.012 462.829 830.606 453.156 831 444C826.103 446.275 818.094 448.32 814.43 452.278C811.006 455.976 811.379 461.649 808.722 465.775C804.475 472.371 792.02 473.552 785 472.941C776.714 472.22 772.847 463.234 768.996 457.001C767.4 454.417 764.915 449.784 761.144 450.752C757.514 451.683 758.063 456.346 758.967 459C761.027 465.051 766.419 470.956 759.89 476.211C748.522 485.361 739.145 472.142 727 475C728.119 481.277 733.004 485.947 734.247 492C735.342 497.331 730.605 507.741 727.351 511.892C723.12 517.291 715.994 515.288 711.513 519.653C707.527 523.537 707.519 529.787 702.957 533.772C700.233 536.151 694.067 537.055 693.427 541.109C691.941 550.513 706.986 556.648 710.424 564.001C712.282 567.976 710.844 571.856 711.188 576C711.607 581.041 713.365 585.906 713.625 591C713.914 596.661 712.558 602.273 713.174 608C713.82 614.013 717.257 619.877 715.347 626C712.203 636.082 702.224 638.473 694 642.557C690.904 644.094 688.394 646.962 685 647.863C677.74 649.792 670.657 642.024 667.229 653.004C666.851 654.216 666.42 655.699 666.58 656.985C668.093 669.207 679.908 658.931 685.999 658.387C689.968 658.033 693.237 660.87 692.289 665C691.603 667.983 689.287 671.064 685.985 670.807C684.21 670.669 682.366 669.189 680.588 670.171C677.963 671.622 677.226 677.52 675.362 679.945C672.586 683.556 666.931 684.076 665.009 688.144C660.764 697.13 673.569 710.906 662.956 716.543C654.245 721.171 648.377 710.09 643 705.044C641.464 703.603 636.322 698.447 634.137 701.647C632.281 704.366 636.417 708.292 638.044 709.985C643.286 715.44 655.252 720.594 655.777 729.001C656.586 741.941 651.096 754.621 642 763.089C638.994 765.888 634.786 771.916 630.004 769.914C618.531 765.109 623 748.36 623 739C617.803 740.542 617.522 747.363 612.892 748.539C609.199 749.476 605.795 744.604 604.133 741.999C595.625 728.663 608.711 721.119 612 709C606.855 712.79 604.023 718.312 599.7 722.906C597.989 724.724 595.706 726.972 593.015 726.972C587.816 726.972 582.115 717.72 582.866 713C583.677 707.896 589.128 703.123 591.974 699C598.034 690.224 604.501 679.922 605 669C599.867 674.908 597.433 685.063 590.816 689.534C586.065 692.744 578.135 683.686 578.956 679C580.054 672.734 587.119 668.332 589 662C582.171 664.426 579.214 671.369 575.279 677C567.901 687.557 560.594 700.848 550.911 709.384C544.353 715.164 534.993 720.742 526 720.945C516.183 721.167 510.103 715.518 501.004 722.532C496.601 725.927 491.934 731.077 489.302 736C486.34 741.541 485.471 747.57 481.921 753C478.08 758.873 474.037 765.562 469.61 770.961C466.857 774.317 463.135 776.695 460.329 780.015C457.055 783.887 455.519 789.158 451.787 792.61C449.289 794.92 445.848 795.76 443.318 797.966C438.069 802.542 443.368 811.62 444.481 817C445.98 824.241 442.804 832.348 440.188 839C439.108 841.747 437.912 845.428 434.892 846.608C431.745 847.838 427.276 845.335 424 845C426.092 848.561 431.042 850.828 431.929 855.015C432.822 859.227 428.568 862.78 429.708 867C430.68 870.594 434.472 872.52 435.647 876C436.422 878.294 435.371 880.664 435.512 883C435.695 886.029 437.797 888.948 436.767 892C435.653 895.3 432.968 897.543 432 901C438.158 900.559 444.975 904.132 440.042 910.907C435.653 916.934 426.732 920.581 420 923.204C417.87 924.034 415.381 925.707 413.019 925.559C409.803 925.359 408.75 922.599 408 920C403.28 920.583 398.18 921.451 395.139 916.786C392.82 913.229 393.03 908.084 388.892 905.736C386.2 904.209 383.523 905.927 381 906.961C376.553 908.786 372.138 909.446 368 912C364.11 903.727 353.048 898.392 344 900.532C340.003 901.478 336.929 904.497 333 905.451C329.667 906.259 326.345 904.711 323 905.714C319.491 906.766 316.551 909.174 313 910.211C304.97 912.558 293.177 913.455 285 911.467C278.395 909.861 276.411 903.753 270.981 900.579C267.839 898.741 264.378 899.942 261 899.056C248.69 895.83 250.222 887.653 248.711 877C248.361 874.537 246.665 867.324 242.6 870.086C240.759 871.337 241.188 874.147 241.444 876.001C242.239 881.762 244.003 887.326 245.196 893C249.481 913.38 256.263 936.706 247.468 957C245.167 962.311 241.138 966.66 237.421 971C228.473 981.448 217.09 992.655 204 997.786C197.311 1000.41 185.845 995.352 180.604 1001.43C175.642 1007.19 184.275 1016.32 181.955 1023C180.441 1027.36 176.814 1030.79 174.904 1035C171.481 1042.55 168.694 1053.73 168.09 1062C167.409 1071.33 171.272 1079.6 174.85 1088C178.143 1095.73 181.322 1104.32 186.529 1111C194.445 1121.15 208.658 1130.34 221 1133.96C226.163 1135.47 231.678 1135 237 1135C249.967 1135 262.002 1134.14 274 1128.69C281.789 1125.15 288.48 1119.78 296 1115.78C304.653 1111.18 315.357 1107.84 322.961 1101.61C330.096 1095.76 335.256 1087.4 342 1081.04C345.175 1078.05 348.665 1075.38 353 1074.39C358.35 1073.16 364.358 1073.76 368.61 1069.61C371.519 1066.76 374.645 1061.77 376.147 1058C377.114 1055.57 376.763 1052.55 378.603 1050.51C380.639 1048.26 384.235 1048 387 1047.27C393.339 1045.59 399.67 1044.35 405 1040.32C411.458 1035.43 419.031 1029.76 424.482 1023.79C429.037 1018.81 431.471 1012.77 437.001 1008.53C443.388 1003.64 452.043 1002.16 458.999 997.985C462.533 995.863 465.513 990.974 469.209 989.647C475.548 987.37 481.149 996.279 487 997.448C493.306 998.707 496.76 991.015 503 993.461C507.739 995.319 511.501 999.311 516 1001.67C520.564 1004.07 525.726 1004.6 530 1007.64C537.143 1012.72 542.013 1019.94 551 1022C548.343 1008.27 528.55 1003.62 527.188 990C525.935 977.484 546.186 970.469 556 969.228C559.309 968.809 562.847 970.389 565.996 968.933C571.556 966.362 573.211 958.07 580.001 957.724C586.7 957.382 592.16 964.296 599 965C596.951 961.889 592.73 957.957 592.737 954.004C592.747 948.362 601.241 945.519 604.447 941.816C606.613 939.315 607.793 936.082 611.054 934.742C614.508 933.323 618.537 934.722 621.867 932.821C627.913 929.37 627.765 923.451 636 923C635.237 918.773 630.491 913.305 631.711 909.105C632.891 905.048 638.437 904.983 639.527 900.867C640.824 895.968 638.799 892.564 642.533 888.105C645.08 885.065 648.694 883.784 651.714 881.367C656.198 877.778 660.034 874.022 665 871.003C667.222 869.652 670.207 867.178 672.957 867.302C676.279 867.453 677.96 871.482 679.781 873.714C682.025 876.466 684.696 878.774 686.312 882.001C689.181 887.731 687.476 893.969 687 900C691.44 895.898 692.22 889.441 696.418 885.434C701.593 880.497 711.196 885.647 713.972 891.015C715.719 894.394 715.301 898.47 717 902L719 902C720.493 899.715 721.74 897.411 723.016 895.003C726.666 888.116 732.494 890.176 735.107 897C736.468 900.557 735.433 904.4 736.434 907.995C736.926 909.765 737.836 911.278 739.228 912.49C746.268 918.617 760.612 916.21 762.772 928.001C763.558 932.293 763.874 939.261 760.682 942.61C758.494 944.904 754.925 945.651 753.179 948.39C751.182 951.522 752 956.454 752 960C755.457 959.334 758.519 957.227 762 956.843C769.101 956.058 776.792 958.082 784 957.996C788.968 957.937 794.192 956.171 799 957.995C801.773 959.047 804.465 960.841 806.302 963.184C807.786 965.078 808.577 968.542 811.185 969.248C815.25 970.35 817.592 964.137 822.001 964.721C830.802 965.886 835.057 980.449 839 987L841 987C843.38 981.909 846.849 977.37 848.637 972C849.75 968.659 849.367 964.097 851.603 961.278C854.801 957.246 862.368 956.28 867 954.655C873.54 952.361 878.874 948.437 885 945.377C888.004 943.876 891.786 943.424 894.57 941.581C899.028 938.631 898.469 931.607 905.001 930.542C909.889 929.746 913.213 934.839 916 938C923.011 932.14 915.909 925.477 916.095 918C916.189 914.221 918.125 911.154 920.001 908C923.901 901.443 928.769 890.623 937 888.747C940.66 887.912 944.149 890.067 946.96 892.171C948.837 893.576 950.537 895.166 951.891 897.09C961.624 910.918 942.786 915.688 938.742 926.015C937.319 929.651 937.409 935.767 941.148 937.972C944.048 939.682 948.96 939.242 950.393 935.852C951.795 932.532 950.057 928.444 950.079 925C950.126 917.85 955.229 911.297 962 909.014C969.317 906.547 971.851 915.856 978.015 917.446C983.849 918.951 988.993 914.44 994.999 917.457C1000.6 920.268 1006.73 928.386 1004.39 935C1003.18 938.433 1000.01 940.746 998.419 944C996.398 948.142 995.905 952.926 993.584 956.957C991.744 960.152 988.478 962.006 986.532 965.104C983.093 970.579 982.052 977.672 982 984C980.275 984.152 978.65 984.284 976.979 984.789C965.534 988.25 974.173 997.179 974.776 1005C975.318 1012.03 972.233 1024.44 967.501 1029.77C963.621 1034.14 958.995 1032.27 954.015 1032.23C951.476 1032.21 948.956 1033.22 948.582 1036.05C947.784 1042.1 958.402 1043.69 961.258 1048.04C965.617 1054.69 960.499 1064.52 958 1071C953.571 1070.26 952.011 1073.04 947.961 1073.58C944.192 1074.08 928.867 1064.99 928.867 1074.99C928.867 1076.52 929.92 1077.63 931.232 1078.26C933.663 1079.42 936.539 1078.95 939 1080.18C942.291 1081.83 945.085 1086.63 949 1086.66C952.896 1086.69 955.755 1081.76 959.552 1085.45C963.187 1088.99 960.479 1096.39 961.789 1101C963.873 1108.34 968.892 1115.64 972.999 1122C976.155 1126.89 979.674 1132.97 977.697 1139C974.999 1147.22 963.784 1148.06 960 1156C967.151 1155.83 971.931 1152.24 978 1148.86C980.835 1147.29 984.597 1144.79 988 1145.71C991.874 1146.76 995.213 1151.08 997.699 1154C1000.48 1157.27 1003.85 1161.43 1002.24 1166C1000.36 1171.36 994.458 1173.95 992 1179C1002.2 1181.71 1007.11 1169.78 1016 1167.55C1018.71 1166.88 1021.44 1167.84 1024 1168.67C1030.82 1170.88 1044.15 1175.13 1046.22 1183C1047.64 1188.4 1044.12 1196.28 1044 1202C1053.1 1199.44 1053.92 1186.9 1063 1185.23C1071.17 1183.72 1082.93 1186.3 1088.15 1193.19C1090.59 1196.42 1090.27 1202.41 1094.23 1204.26C1100.85 1207.34 1109.98 1202.72 1117 1203C1117.52 1200.35 1117.91 1197.57 1118.79 1195C1121.43 1187.35 1128.69 1187.45 1133.61 1193.1C1140.78 1201.35 1136.64 1216.62 1147 1222C1146.98 1216.35 1146.08 1211.38 1144.33 1206C1143.06 1202.09 1140.67 1197.18 1141.79 1193C1145.12 1180.63 1167.33 1182.78 1177 1179.57C1180.58 1178.39 1185.5 1173.8 1189.29 1174.67C1200.47 1177.23 1206.09 1194.51 1219 1191L1218 1188L1214 1190C1212.38 1183.35 1206.53 1181.61 1202.21 1176.91C1198.05 1172.37 1193.79 1159.9 1204 1159.34C1214.93 1158.74 1223.56 1174 1235 1168C1230.3 1162.37 1221.86 1161.97 1218.46 1155C1214.89 1147.68 1224.27 1141.48 1230 1138.91C1235.71 1136.34 1246.75 1133.39 1253 1134.51C1257.05 1135.23 1260.27 1138.47 1264 1140.04C1268.62 1141.99 1274.04 1142.61 1279 1143C1271.8 1129.85 1251.37 1133.43 1242.44 1122.79C1238.24 1117.78 1243.58 1113.73 1246.74 1110.01C1248.58 1107.84 1249.95 1105.19 1253.05 1104.93C1256.57 1104.65 1260.42 1105.93 1264 1106C1260.07 1097.42 1250.04 1089.51 1259.19 1080.23C1260.64 1078.76 1262.2 1077.94 1264 1077C1260.63 1071.88 1257.15 1067.46 1257.18 1061C1257.23 1050.08 1273.46 1041.41 1283 1039.39C1288.26 1038.28 1293.65 1040.42 1298.98 1039.94C1301.39 1039.73 1303.81 1038.87 1303.34 1035.95C1302.34 1029.75 1295.68 1029.66 1291 1031.04C1285.39 1032.71 1280.72 1036.92 1275 1038.12C1269.49 1039.28 1260.27 1035.23 1256.1 1031.69C1251.16 1027.48 1248.68 1019.14 1250.99 1013C1252.33 1009.45 1256.02 1006.05 1255.35 1002C1254.47 996.691 1247.66 993.006 1250.5 987.093C1253.56 980.722 1261.19 979.536 1263 972C1259.82 972.068 1256.83 972.209 1254 973.854C1250.94 975.634 1247.98 979.826 1244 979.029C1237.61 977.75 1231.23 966.976 1234.78 961.039C1241.34 950.079 1255.2 944.638 1263.9 935.896C1266.43 933.346 1271.64 925.857 1265.77 923.693C1262.7 922.559 1258.04 924.251 1255 925C1256.24 918.175 1262.55 912.342 1270 914.893C1274.36 916.386 1278.83 921.733 1283.86 918.958C1289.71 915.726 1288.15 904.689 1297 905.272C1304.9 905.791 1312.38 915.086 1320.85 911.397C1326.1 909.111 1322.19 903.774 1321.86 900C1321.55 896.449 1324.24 893.776 1327.02 891.995C1334.05 887.479 1343.82 885.961 1352 885.17C1355.68 884.813 1360.47 885.857 1363.77 883.821C1370.87 879.445 1358.66 871.057 1367.13 866.179C1373.86 862.304 1381.95 867.353 1388 861C1380.43 858.355 1365.95 850.86 1378 843.328C1379.54 842.368 1381.26 841.379 1383 840.855C1388.62 839.167 1394.89 842.453 1401 841C1398.48 833.397 1386.91 839.152 1381.19 835.107C1369.73 827.014 1376.61 810.678 1390 812.11C1397.58 812.92 1399.73 820.771 1408 819C1409.52 825.572 1413.03 832.14 1412.87 839C1412.71 845.73 1408.01 853.446 1409.47 860C1410.9 866.411 1417.59 870.716 1419.75 877C1421.33 881.603 1420.54 886.303 1421.33 891C1422.27 896.672 1425.5 901.521 1426.86 907C1427.68 910.295 1426.54 913.72 1427.51 916.996C1430.01 925.369 1439.87 928.304 1443.82 935.188C1445.85 938.73 1444.7 943.251 1444 947C1447.17 946.549 1450.83 944.151 1454 945.002C1457.03 945.815 1459.6 948.649 1461.47 951.015C1470.1 961.93 1464.99 973.411 1464 986C1465.73 984.545 1467.71 982.094 1470.04 981.676C1474.33 980.907 1479.78 986.748 1484 988C1484.51 981.563 1483.81 976.379 1483.17 970C1482.82 966.452 1482.3 961.347 1484.18 958.147C1487.57 952.388 1497.62 953.348 1501.9 957.228C1510.01 964.589 1513.72 978.969 1517.31 989C1519.24 994.418 1520.74 1001.01 1526 1004C1525.15 1000.01 1522.82 996.187 1523.57 992C1524.21 988.455 1526.15 984.794 1528.39 982.015C1543.99 962.678 1564.38 984.362 1578 993.9C1580.64 995.746 1582.98 998.208 1586 999.437C1590.62 1001.32 1597.2 1001.62 1602 1000.39C1605.22 999.568 1609.43 996.522 1612.79 998.132C1618.07 1000.67 1617.99 1009.12 1618 1014C1621.96 1011.38 1625.56 1007.8 1630 1006C1635.44 1003.8 1641.31 1004.36 1647 1003.95C1650.51 1003.69 1653.53 1001.55 1657 1001.41C1664.69 1001.08 1677.28 1008.51 1682.9 1013.39C1692.62 1021.86 1684.65 1039.97 1702 1038.91C1704.04 1038.78 1706.05 1038.39 1708 1037.78C1709.7 1037.25 1711.43 1036.58 1712.94 1035.63C1723.12 1029.24 1709.15 1017.69 1710.19 1009C1711.86 994.993 1728.5 987.435 1741 985.562C1746.93 984.673 1750.67 989.771 1755.09 992.765C1758.98 995.398 1764.29 996.881 1769 996.74C1775.27 996.552 1780.19 993.28 1786 991.637C1790.56 990.349 1795.39 991.502 1800 990.402C1808.52 988.369 1817.09 984.025 1826 984.079C1829.56 984.101 1833.04 985.19 1835.74 987.557C1838.4 989.884 1840.04 993.954 1844 994.292C1847.84 994.619 1851.02 991.387 1855 991.7C1859.35 992.041 1863.67 993.884 1868 994.561C1873.06 995.352 1878.02 994.955 1883 996.44C1889.89 998.494 1895.75 1001.53 1903 1002.57C1915.19 1004.32 1927.8 1002.34 1940 1002.34C1946.08 1002.34 1951.99 1004.23 1958 1004.83C1967.32 1005.76 1975.82 1004.81 1985 1007.43C1993.66 1009.9 2001.91 1016 2011 1015.99C2018.44 1015.99 2027.87 1009.84 2025.67 1001.11C2024.46 996.303 2014.19 994.51 2010 993.275C2002.61 991.099 1995.81 988.836 1988 989.015C1977.78 989.249 1969.18 992.303 1959 988.91C1949 985.575 1937.93 978.4 1936.56 967C1936.01 962.445 1938.84 957.343 1936.95 953.004C1934.2 946.726 1925.46 941.052 1920 937.282C1910.57 930.775 1901.82 946.3 1893 947.853C1886.12 949.064 1886.11 942.192 1882.44 938.843C1880.15 936.761 1876.64 936.501 1874.04 934.914C1871.24 933.207 1869.61 930.761 1868 928C1870.92 926.81 1873.79 925.318 1877 925.144C1881.34 924.91 1885.65 926.772 1889.99 925.566C1896.65 923.711 1899.18 917.234 1907 917.055C1912.33 916.933 1916.1 919.586 1921 920.991C1922.57 921.442 1924.77 921.803 1925.91 920.258C1927.59 917.987 1924.66 915.833 1922.94 914.916C1919.39 913.021 1904.76 907.841 1910.43 901.51C1912.43 899.277 1916.24 898.613 1919 897.884C1926.18 895.986 1933.58 895.464 1941 896.17C1945.43 896.591 1952.11 898.418 1954.24 892.892C1955.12 890.606 1954.51 887.576 1951.85 886.928C1947.51 885.87 1941.67 889.135 1937 888.956C1925.46 888.514 1911.57 875.503 1924.09 865.943C1930.78 860.842 1940.84 866.877 1945 873.093C1947.02 876.114 1947.41 879.798 1951.06 881.436C1959.46 885.212 1969.92 880.868 1978 878.347C1981.41 877.282 1984.93 876.851 1988 875C1980.48 872.12 1972.45 870.673 1965 867.536C1958.03 864.6 1951.99 859.793 1945 856.877C1941.41 855.379 1937.56 855.596 1934 854.262C1929.66 852.633 1925.24 848.568 1922.39 844.985C1906.1 824.486 1930.59 803.258 1944 790.004C1949.8 784.277 1957.64 776.391 1966 774.731C1973.01 773.34 1977.71 781.016 1984 782.581C1990.32 784.151 1997.65 782.774 2004 782.17C2014.04 781.214 2022.63 781.859 2032 777.244C2036.36 775.094 2042.06 772.867 2043.97 767.975C2047.67 758.503 2033.48 760.498 2029 759.309C2026.24 758.577 2024.15 756.759 2022 755C2029.44 752.238 2033.56 746.497 2040 742.312C2043.05 740.334 2047.93 737.922 2048.75 733.961C2049.47 730.475 2045.86 727.421 2045.44 724C2044.8 718.797 2048.3 711.317 2050.99 707C2055.29 700.103 2061.86 694.659 2066.56 688C2070.76 682.048 2072.96 674.658 2077.39 669.004C2081.97 663.171 2088.5 659.737 2092 653C2080.69 657.287 2071.75 667.797 2064.4 677C2060.89 681.397 2057.24 685.11 2058 691C2051.91 693.081 2051.69 700.966 2048.19 705.714C2045.67 709.116 2042.1 711.588 2039.56 715C2037.11 718.294 2035.83 722.232 2033.21 725.424C2029.19 730.326 2024.53 734.432 2021.34 740C2018.32 745.267 2016.97 758.101 2010 758.809C2005.87 759.227 2002.03 756.687 1998 756.185C1994.67 755.77 1991.3 756.228 1988 755.471C1982.94 754.31 1978.35 751.282 1974 748.575C1965.26 743.137 1956.87 738.282 1956.09 727C1955.69 721.169 1957.39 715.269 1959.79 710C1961.51 706.237 1964.67 702.317 1964.35 698C1963.67 688.796 1963.26 677.941 1960.84 669C1959.86 665.386 1956.11 660.025 1958.07 656.326C1960.06 652.579 1967.74 647.855 1972 648.81C1976.96 649.923 1978.74 653.181 1984 651C1981.5 645.743 1975.95 641.183 1970 640.369C1962.93 639.401 1955.88 641.457 1950.56 634.787C1948.22 631.846 1947.92 627.561 1947.2 624C1945.23 614.288 1945.8 604.54 1943.79 595C1942.77 590.174 1939.67 582.955 1941.61 578.108C1943.71 572.844 1950.74 573.872 1954.3 570.298C1957.53 567.045 1956.64 555.753 1963.04 557.002C1967.04 557.782 1973.55 563.183 1971.76 567.816C1970.56 570.901 1966.7 572.114 1965.2 575.089C1963.22 579.002 1966.3 581.421 1970 581.772C1973.98 582.148 1980.12 581.028 1979.72 575.956C1979.53 573.569 1976.31 568.835 1979.37 567.161C1980.9 566.327 1982.63 567.159 1984 567.869C1988.65 570.266 1992.46 572.949 1997.98 572.852C2001.31 572.793 2004.29 570.02 2001.39 566.965C1997.96 563.351 1992.06 562.81 1988.01 560.122C1981.01 555.471 1975.28 540.982 1966 541.167C1961.3 541.26 1958.06 544.944 1954 546.722C1948.63 549.071 1937.27 550.124 1932 547.431C1925.06 543.888 1918.29 537.283 1913.79 531C1910.97 527.065 1909.54 521.891 1904.96 519.573C1900.5 517.318 1895.62 518.753 1891 517.502C1886.69 516.334 1883.05 513.315 1879 511.515C1875.1 509.781 1870.87 509.015 1867 507.204C1860.81 504.305 1856.87 498.696 1850.99 495.572C1845.95 492.896 1840.15 495.074 1835 492.914C1823.11 487.929 1812.93 478.648 1800 475.681C1794.12 474.331 1787.97 475.32 1782 474.911C1772.63 474.268 1763.36 472.061 1754 471.17C1745.92 470.401 1738.03 471.394 1730 469.8C1723.33 468.476 1715.32 468.408 1709 466.005C1703.94 464.082 1700.06 459.911 1695 457.995C1690.84 456.419 1685.37 456.699 1681 457.174C1674.39 457.892 1667.56 461.19 1662 464.696C1657.31 467.651 1652.01 472.145 1646.02 470.678C1637.87 468.685 1635.95 455.635 1637 449C1632.1 448.627 1627.71 445.607 1628.34 440C1628.8 435.927 1631.54 432.032 1632.5 428C1634.93 417.775 1636.39 407.303 1638.45 397C1640.22 388.124 1642.81 379.087 1643 370C1638.79 374.153 1636.2 378.594 1631 381.906C1627.33 384.24 1622.5 384.655 1619.65 388.144C1614.87 393.998 1614.54 403.052 1612.25 410C1609.53 418.265 1604.41 425.035 1604 434C1606.92 433.571 1610.04 432.307 1613 432.525C1626.04 433.484 1623.54 448.313 1625.53 457C1626.45 460.993 1630.5 465.763 1629.29 469.957C1627.95 474.623 1621.12 474.998 1620.64 480.043C1620.4 482.642 1621.71 485.396 1621.91 488C1622.32 493.489 1621.2 499.948 1618.89 504.957C1615.95 511.33 1608.64 512.671 1603 515.673C1599.38 517.6 1597.04 520.766 1593.83 523.198C1590.2 525.95 1583.5 528.177 1579 528.842C1575.12 529.415 1571.87 524.877 1568.11 526.828C1564.53 528.683 1563.63 533.862 1561.52 536.985C1557.63 542.743 1549.11 549.761 1542 550L1542 548C1548.88 543.038 1544.33 532.77 1544.42 526C1544.48 521.723 1547.66 518.146 1548.43 514C1549.24 509.631 1547.04 505.33 1547.6 501C1548.45 494.438 1554.16 492.413 1552 485C1545.72 489.44 1546.15 492.466 1544.06 499C1543.28 501.45 1541.41 503.397 1541.03 506C1540.42 510.11 1542.55 513.977 1539.3 517.566C1535.99 521.209 1532.02 518.796 1528 518.63C1526.41 518.564 1524.72 519.266 1523.15 518.945C1521.65 518.638 1520.71 517.514 1520.92 515.938C1521.76 509.626 1531.86 506.129 1535.11 500.985C1538.33 495.875 1534.17 492.936 1535.04 488.015C1535.64 484.621 1539.47 482.05 1541 479C1539.79 478.616 1538.19 478.318 1537.11 477.575C1527.37 470.87 1548.32 459.677 1541.97 451.603C1538.75 447.505 1530.33 452.476 1526 451.591C1520.28 450.421 1518.58 444.919 1513.91 442.318C1510.49 440.42 1506.55 442.319 1503.28 440.651C1497.37 437.635 1497.73 423.332 1499 418C1495.89 418.897 1492.26 421.406 1489 421.292C1479.41 420.955 1483.08 409.414 1484 404C1481.66 402.731 1478.82 400.472 1476 401.305C1471.49 402.637 1469.29 408.036 1464 407.663C1459.04 407.313 1456.91 402.35 1452.71 400.603C1447.81 398.563 1439.41 398.729 1434 398C1430.84 402.932 1426.43 404.54 1422.47 408.471C1419.58 411.345 1418.27 415.866 1413.99 417.164C1404.03 420.178 1402.02 406.452 1402 400L1398 400C1398 403.314 1397.8 406.718 1398.32 410C1398.74 412.604 1400.07 415.339 1399.3 418C1397.6 423.894 1390.44 427.718 1387.36 433C1385.19 436.737 1383.48 445.07 1377.96 445.067C1375.12 445.065 1372.29 442.751 1370 441.319C1364.06 437.607 1357.28 432.182 1350 434C1353.42 441.304 1361.32 445.483 1366.07 452C1375.48 464.903 1377.12 488.32 1363 498C1363.91 501.101 1366.54 504.727 1366.21 508C1365.86 511.481 1362.89 514.564 1362 518C1369.89 524.109 1365.99 527.935 1365.15 536C1364.71 540.199 1365.7 543.914 1364.04 548C1362.54 551.696 1359.67 554.907 1359.26 559C1358.56 565.905 1363.08 574.594 1365.3 581C1366.23 583.653 1368.17 587.887 1366.22 590.486C1361.23 597.138 1350.66 587.116 1345 586.368C1341.09 585.851 1337.65 587.428 1334 585.258C1330.66 583.274 1326.53 577.167 1322.15 577.907C1317.52 578.687 1319.74 586.694 1317.4 589.61C1313.98 593.846 1307.55 594.494 1303.23 597.414C1300.07 599.547 1298.98 603.547 1296 606C1297.55 612.705 1300.09 618.227 1297.03 624.999C1294.96 629.595 1289.47 631.796 1289.06 637.018C1288.57 643.4 1295.77 654.272 1286.96 657.787C1281.91 659.799 1274.53 653.287 1269 653C1272.07 658.91 1277.56 661.277 1281.68 666.174C1286.57 671.987 1285.25 682.092 1277 683.704C1272.35 684.613 1263.16 681.334 1259.28 678.722C1253.15 674.594 1253.54 661.503 1252.9 655C1252.42 650.157 1251.11 645.85 1246 645C1246.07 653.719 1249.63 661.225 1248.08 670C1247.57 672.831 1247.04 676.473 1244.58 678.353C1239.69 682.092 1231.47 674.56 1230.32 669.999C1229.59 667.122 1230.53 663.991 1229.68 661.149C1229.09 659.152 1227.3 657.934 1225.29 659.086C1221.57 661.231 1222.63 667.502 1221.27 670.961C1220.1 673.92 1217.61 676.07 1216.4 679.039C1211.53 690.976 1206.72 710.162 1190 709.867C1179.9 709.688 1176.22 700.023 1173 692C1170.98 686.958 1169.36 681.093 1163 682C1164.62 687.636 1167.67 692.75 1170.24 698C1171.35 700.253 1173.29 703.231 1172.87 705.867C1172.24 709.758 1159.99 714.826 1156.94 712.458C1150.61 707.538 1154.55 699.171 1150.82 693.394C1149.09 690.718 1145.61 690.069 1143 688.586C1138.57 686.062 1137.16 682.895 1137 678C1130.73 679.839 1125.7 690.108 1118.11 688.048C1114.33 687.022 1114.75 682.99 1115.39 680C1116.68 673.928 1116.77 663.137 1123.04 659.876C1127.42 657.601 1130.96 662.776 1135 663.682C1140.57 664.931 1144.28 661.057 1149 659.086C1152.26 657.723 1155.57 658.252 1158.98 657.941C1160.98 657.759 1163.42 657.233 1163.79 654.853C1164.27 651.757 1161.06 649.339 1158.99 647.619C1155.17 644.441 1150.88 641.705 1146 640.525C1142.33 639.64 1137.31 640.119 1134.33 637.411C1129.73 633.217 1136.11 619.945 1142 619.863C1144.91 619.823 1147.61 622.295 1150 623.667C1156.51 627.406 1163.01 632.35 1170 635C1164.71 627.496 1157.11 622 1151.21 615C1148.26 611.492 1145.92 607.163 1149.32 603.113C1152.78 598.989 1156.64 600.824 1161 599.244C1165.11 597.752 1168.92 593.512 1171.35 590C1175.91 583.403 1174.41 571.134 1183.02 567.742C1186.94 566.195 1193.23 566.527 1197 568.299C1199.94 569.681 1204.1 573.545 1207.26 570.392C1210.29 567.365 1208.06 562.242 1206.72 559C1204.07 552.604 1199.89 542.796 1203.99 536.13C1205.82 533.154 1209.37 531.924 1211.9 529.661C1214.87 526.996 1216.57 523.208 1220.04 521.089C1222.8 519.406 1228.51 518.984 1229.08 515.002C1229.44 512.461 1227.01 511.635 1224.98 511.572C1219.86 511.413 1213.25 511.471 1211.6 504.996C1210.52 500.753 1215.47 496.713 1217.97 494C1223.04 488.521 1228.75 481 1226.57 473C1223.12 460.341 1207.01 465.423 1199.04 458.721C1194.46 454.867 1190.45 447.185 1191.21 441C1191.86 435.725 1196.61 432.397 1192.85 427.059C1187.85 419.973 1176.61 427.52 1171.71 419.772C1169.63 416.481 1172.92 413.255 1175.04 411.001C1179.95 405.777 1188.2 401.181 1190.43 394C1191.83 389.512 1189.24 385.854 1187.37 382C1184.77 376.612 1183.95 372.152 1178 369.417C1174.77 367.934 1170.29 368.954 1167.43 366.972C1163.17 364.013 1166.55 360.049 1170 359C1166.57 352.604 1156.79 350.506 1154.68 359.005C1153.06 365.563 1155.76 371.521 1156.05 378C1156.22 381.714 1153.69 384.425 1153.32 388C1152.96 391.388 1154.4 394.599 1153.34 397.985C1151.77 403.03 1145.89 406.493 1141.11 403.254C1137.93 401.104 1136.85 397.519 1136 394C1127.68 396.396 1120.78 403.391 1112 399.239C1107.74 397.223 1103.65 394.726 1099 393.681C1091.68 392.037 1083.68 394.88 1081.39 384.999C1080.07 379.25 1080.9 372.473 1085.13 368.184C1088.19 365.09 1092.52 363.27 1095.11 359.7C1097.52 356.37 1097.21 351.802 1098.47 348C1100.34 342.327 1104.58 335.03 1107.99 330.105C1111.23 325.446 1117.61 325.369 1120.77 320.786C1126.87 311.94 1122.58 300.308 1112 299.302C1109.93 299.105 1107.95 299.227 1106 300.01C1092.42 305.471 1101.08 318.137 1097.4 327.996C1096.13 331.389 1092.96 333.688 1090 335.532C1082.69 340.081 1068.74 344.866 1060 342.169C1054.07 340.339 1049.94 334.234 1044 331.995C1041.9 331.204 1038.56 330.438 1036.62 332.028C1033.13 334.882 1037.78 342.4 1039.64 345C1044.94 352.427 1051.95 353.292 1058.98 357.969C1061.94 359.931 1065.09 363.114 1064.46 366.996C1063.01 375.819 1051.68 376.456 1045 377.174C1038.23 377.901 1031.9 380.054 1025 378.471C1019.91 377.303 1015.55 374.182 1011 371.781C1006.59 369.453 1001.97 367.656 999.558 362.985C993.073 350.442 1002.91 331.795 990.957 322.318C983.945 316.757 977.556 325.794 970 324.431C959.604 322.554 950.346 313.984 943 307.036C940.126 304.317 936.234 301.799 934.742 297.985C933.212 294.074 934.634 289.988 934.741 286C934.838 282.35 934.03 278.675 934 275L932 275M741 285C741.956 291.125 745.108 296.224 750 300C748.541 294.214 745.726 288.709 741 285M904 289C904.018 295.392 904.213 301.561 911 304C910.169 298.454 908.017 292.975 904 289M1786 342C1785.93 333.946 1781.35 329.904 1777.98 323C1775.06 317.011 1773.97 310.707 1770.3 305C1768.61 302.37 1763.86 293.76 1759.61 297.047C1756.14 299.738 1761.12 306.45 1762.58 309C1766.92 316.598 1771.89 323.669 1776.66 331C1779.46 335.311 1781.25 339.662 1786 342M1282 320C1285.54 316.966 1287.69 313.461 1289 309C1283.73 311.139 1282.16 314.474 1282 320M755 310C755.939 312.637 756.58 313.618 759 315C758.188 312.218 757.547 311.373 755 310M1603 313L1603 315L1605 315L1605 313L1603 313M1577 318C1576.28 320.418 1576.05 322.472 1576 325C1578.64 323.136 1578.83 321.17 1579 318L1577 318M761 319C761.914 322.802 763.038 325.413 766 328C765.399 324.014 764.584 321.073 761 319M1811 388C1815.76 382.528 1815.47 372.923 1816.8 366C1818.21 358.707 1819.72 351.095 1821.9 344C1824.23 336.381 1827.83 328.906 1829 321C1820.27 325.075 1818.32 333.299 1816.55 342C1814.64 351.431 1812.99 360.431 1811.84 370C1811.12 376.018 1809.26 382.068 1811 388M1657 326C1651.91 334.723 1649.76 342.017 1649 352C1656.99 347.112 1658.98 334.615 1659 326L1657 326M1602 331L1602 335C1603.08 333.542 1603.44 332.752 1604 331L1602 331M1799 338L1799 340L1801 340L1801 338L1799 338M1798 341C1796.56 342.449 1795.89 343.222 1795 345C1797.14 343.869 1798.1 343.432 1798 341M1670 344C1666.08 347.633 1663.69 351.625 1665 357C1667.88 353.802 1670.76 348.346 1670 344M2062 378L2064 378C2065.67 371.932 2063.26 363.992 2061.51 358.005C2060.89 355.907 2059.38 351.785 2056.39 352.751C2053.81 353.583 2054.4 357.064 2054.92 359.001C2056.64 365.421 2059.19 371.986 2062 378M1599 354C1597.49 359.541 1599.41 361.814 1605 362C1603.93 359.168 1602.46 356.656 1601 354L1599 354M1647 354L1647 356L1649 356L1649 354L1647 354M1646 358C1644.84 361.641 1643.78 365.255 1643 369C1647.32 366.539 1647.89 362.719 1648 358L1646 358M1663 358L1663 360C1664.63 359.455 1664.45 359.635 1665 358L1663 358M1116 373C1121.15 371.288 1124.7 368.366 1126 363C1120.68 363.892 1117.67 368.082 1116 373M537 401C544.763 398.931 552.937 390.225 556.201 383C557.521 380.077 559.156 375.221 555.682 373.043C552.041 370.761 547.878 374.229 545.85 377.044C541.214 383.48 538.149 393.221 537 401M1516 387C1515.01 388.479 1515 388.203 1515 390C1516.77 389.021 1516.96 388.778 1516 387M1482 389L1482 391C1483.63 390.455 1483.45 390.635 1484 389L1482 389M1701.03 406.176C1694.59 407.359 1690.14 420.576 1688.76 426C1688.22 428.13 1687.04 434.668 1691.13 434.079C1697.8 433.119 1703.13 420.667 1704.33 415C1704.88 412.385 1705.77 405.306 1701.03 406.176M1672 413C1672.31 415.123 1672.38 415.686 1674 417C1673.49 415.048 1673.27 414.543 1672 413M1234 449C1238.35 446.497 1242.22 443.815 1244 439C1237.02 437.304 1234.55 442.839 1234 449M1317 452C1326.74 451.241 1318.52 442.46 1317 452M1566 460L1565 464C1566.87 462.771 1567.22 462.132 1568 460L1566 460M2020 475C2021.17 473.993 2022.28 473.273 2023.02 471.862C2026.94 464.381 2017.2 462.711 2018.62 470.956C2018.86 472.306 2019.54 473.729 2020 475M681 473C684.29 471.099 685.125 468.628 686 465C682.511 466.877 681.613 469.148 681 473M1994 475C1994.96 474.804 1996.19 474.764 1997.1 474.257C2002.99 470.965 1997.59 466.071 1994.6 471.184C1993.97 472.274 1994.09 473.821 1994 475M1552 484C1556.95 480.435 1560.27 475.866 1562 470C1554.8 471.465 1552.9 477.342 1552 484M679 479L678 483C679.303 481.332 679.553 481.008 679 479M1232.33 497.667C1232.28 497.722 1232.22 498.778 1232.67 498.333C1232.72 498.278 1232.78 497.222 1232.33 497.667M1263 509C1266.71 507.931 1270.02 506.468 1273 504C1268.38 503.251 1265.78 505.416 1263 509M574 506L575 507L574 506M1533 512C1535.59 510.242 1537.44 508.709 1539 506C1535.54 507.064 1534.33 508.669 1533 512M1345 520C1346.58 519.317 1346.78 519.195 1348 518C1346.42 518.684 1346.22 518.805 1345 520M1278 523L1278 525L1282 525L1282 523L1278 523M1289.67 524.333C1289.22 524.778 1290.28 524.722 1290.33 524.667C1290.78 524.222 1289.72 524.278 1289.67 524.333M2199 525C2190.14 530.495 2182.28 538.083 2174 544.486C2168.71 548.574 2162.18 551.036 2157.33 555.669C2152.27 560.499 2148.54 570.277 2147 577C2161.32 576.881 2168.54 567.578 2179 559.174C2184.55 554.717 2193.77 553.606 2198.4 548.363C2201.93 544.356 2200.95 529.649 2199 525z"/>
<path style="fill:#ffffff; stroke:none;" d="M1521 528.573C1515.27 530.22 1512.43 536.82 1515.74 541.96C1517.53 544.731 1520.45 546.201 1522.69 548.513C1524.17 550.045 1525.37 554.502 1528.04 554.079C1531.6 553.513 1532.86 547.617 1534.48 545.039C1536.3 542.122 1539.6 539.668 1539.74 535.986C1540.07 527.907 1526.72 526.934 1521 528.573z"/>
<path style="fill:#020202; stroke:none;" d="M1281 530C1281 539.531 1283.81 547.662 1285 557C1289.61 550.909 1283.66 543.596 1290 538C1288.04 533.818 1285.48 531.258 1281 530M2101 541C2102.25 541.685 2102.55 541.749 2104 542C2102.75 541.315 2102.45 541.251 2101 541z"/>
<path style="fill:#ffffff; stroke:none;" d="M1499 570C1495.16 570.32 1491.67 568.255 1488 568.642C1485.48 568.907 1483.34 570.627 1481 571.46C1479.47 572.007 1477.09 572.044 1476.14 573.602C1474.48 576.3 1477.97 579.387 1479.41 581.285C1484.95 588.566 1490.52 591.499 1500 589.772C1512.24 587.541 1512.37 575.365 1514.39 566C1515.17 562.376 1518.3 557.724 1514.56 554.643C1509.9 550.8 1499.14 556.171 1497.21 561.04C1496.05 563.977 1497.96 567.299 1499 570M1418.96 559.06C1415.92 559.478 1413.21 562.704 1411 564.579C1405.06 569.626 1395.05 576.054 1392.8 584C1390.69 591.441 1402.91 597.611 1409 596.836C1413.44 596.27 1415.64 592.501 1417.8 589C1421.47 583.034 1426.15 578.337 1425.98 571C1425.9 567.285 1424.35 558.319 1418.96 559.06z"/>
<path style="fill:#020202; stroke:none;" d="M2002 559C2005.65 566.474 2014.04 567.209 2019.81 572.39C2025.88 577.827 2028.16 587.631 2031 595L2033 595C2035.12 590.519 2038.24 586.643 2040 582C2050.4 584.463 2061.05 588.295 2071 592.203C2076.07 594.194 2081.68 595.948 2085.9 599.529C2090.22 603.202 2092.37 608.805 2096.18 612.961C2103.65 621.089 2110.49 625.096 2111 637C2113.99 636.016 2117.19 635.171 2119.35 632.722C2121.62 630.158 2122.49 626.858 2125.13 624.529C2130.3 619.974 2137.43 619.997 2142.67 616.146C2146.82 613.096 2148.51 607.904 2153 604.969C2158.68 601.263 2167.74 600.722 2169 593C2156.42 596.971 2142.68 605.024 2132 612.745C2127.86 615.737 2121.76 623.14 2116 621.353C2107.49 618.709 2110.29 607.727 2103.94 603.105C2093.87 595.771 2079.78 590.512 2068 586.671C2063.4 585.172 2058.38 584.703 2054 582.597C2049.09 580.235 2043.89 576.089 2040.39 571.911C2038.69 569.874 2037.78 566.508 2035.5 565.043C2032.17 562.898 2027.67 566.16 2024 565.566C2015.88 564.253 2010.85 556.573 2002 559z"/>
<path style="fill:#ffffff; stroke:none;" d="M1474 614C1471.69 617.252 1468.88 619.505 1466.06 622.286C1459.28 628.978 1467.83 632.011 1474 629.736C1479.79 627.598 1481.18 622.226 1485.21 618.214C1488.8 614.653 1493.69 613.777 1498 611.468C1500.3 610.23 1503.47 608.089 1503.08 605.04C1502.58 601.154 1497.13 599.601 1494 598.757C1485.45 596.45 1472.76 597.524 1465.19 592.987C1460.65 590.266 1459.84 584.515 1455 582C1454.6 583.694 1454.28 585.295 1454.07 587.024C1453.88 588.557 1452.69 595.017 1450.01 591.534C1447.42 588.176 1450.54 581.969 1443.98 582.681C1442.94 582.795 1441.95 583.365 1441.06 583.862C1440.14 584.375 1439.23 585.247 1438.66 586.133C1436.52 589.459 1439.46 592.578 1439.59 596C1439.72 599.408 1437.05 602.619 1437.81 606C1439.42 613.156 1452.04 620.493 1459 620.756C1464.71 620.972 1468.47 615.116 1474 614M1427 596C1427.18 597.878 1427.44 599.2 1428 601L1430 601L1431 600C1429.85 597.751 1429.25 597.154 1427 596z"/>
<path style="fill:#020202; stroke:none;" d="M1979 635C1981.95 635.863 1991.53 636.211 1989.5 630.314C1987.34 624.046 1980.13 632.602 1979 635M616 647C621.604 644.16 627.32 637.046 629 631C621.81 633.451 618.371 640.159 616 647M2003 675C1998.97 673.954 1994.75 673.268 1991.01 671.331C1989.12 670.347 1987.5 668.848 1985.58 667.934C1979.98 665.275 1975.47 669.284 1978.46 674.956C1983.5 684.533 1998.32 683.906 2003 675M2104 673C2106.12 672.101 2106.1 672.124 2107 670C2104.64 670.483 2104.48 670.636 2104 673M2075 721C2078.22 721.85 2079.89 720.401 2082 718C2079.3 718.617 2077.37 719.544 2075 721M401 760.652C394.95 762.218 384.556 766.642 380.214 771.133C377.333 774.112 374.355 780.423 380.059 782.307C382.725 783.188 386.358 782.097 389 781.501C395.862 779.951 404.44 778.385 409.196 772.671C414.972 765.732 409.294 758.505 401 760.652M2050 782L2050 785C2055.06 786.205 2066.06 784.762 2062.28 792.956C2061.65 794.321 2060.72 795.685 2060 797C2064.57 796.997 2069.51 795.813 2074 796.365C2080.12 797.117 2085.95 800.237 2092 801.485C2100.49 803.237 2109.64 802.291 2118 800.258C2123.09 799.02 2130.86 798.502 2134 794C2127.03 792.687 2119.23 791.549 2113 787.914C2109.41 785.819 2107.32 781.226 2103.62 779.607C2100.27 778.138 2096.48 780.302 2093 779.528C2089.7 778.791 2087.3 776.096 2084 775.314C2072.08 772.491 2060.33 776.568 2050 782M312.306 788.086C307.958 790.63 312.272 802.883 316.301 799.914C319.827 797.314 317.919 784.803 312.306 788.086M2179 795L2179 797C2186.14 797.922 2192.76 799 2200 799L2200 794L2179 795M2132 838L2132 840C2140.47 842.868 2150.17 844.639 2159 843C2153.9 836.571 2139.63 836.073 2132 838z"/>
<path style="fill:#ffffff; stroke:none;" d="M653 844C653.211 846.739 653.302 847.422 656 848C655.316 845.791 654.92 845.297 653 844z"/>
<path style="fill:#020202; stroke:none;" d="M2200 859L2200 850C2195.36 850.366 2190.65 851.597 2186 850.61C2181.69 849.695 2175.78 845.281 2171.62 849.089C2168.71 851.76 2172.63 854.099 2175.02 854.671C2182.95 856.572 2191.85 858.649 2200 859z"/>
<path style="fill:#ffffff; stroke:none;" d="M653 853C653.483 854.417 653.775 855.783 654.742 856.985C655.408 857.815 656.116 858.834 657.093 859.339C663.466 862.636 664.174 851.376 657.92 851.468C656.157 851.493 654.575 852.339 653 853z"/>
<path style="fill:#020202; stroke:none;" d="M2003 875C2008.07 880.487 2025.37 884.011 2027 874C2020.94 872.876 2017.54 874.689 2011.83 875.321C2008.75 875.663 2006.14 874.384 2003 875z"/>
<path style="fill:#ffffff; stroke:none;" d="M934 881L935 882L934 881z"/>
<path style="fill:#020202; stroke:none;" d="M1377 916C1390.83 914.46 1400.54 896.025 1404 884C1389.97 884.73 1379.6 903.578 1377 916M684 904C685.923 903.099 685.999 902.924 687 901C684.876 901.899 684.899 901.876 684 904M683 905C681.427 907.115 680.648 908.47 680 911C682.756 909.487 684.001 908.137 683 905M643 923C643.936 924.949 644.392 925.55 646 927C645.064 925.052 644.608 924.45 643 923z"/>
<path style="fill:#ffffff; stroke:none;" d="M1223 926C1222.46 929.675 1223.46 930.927 1227 932C1226.36 928.956 1225.61 927.684 1223 926M1249 926C1250.32 928.687 1251.31 929.676 1254 931C1254.56 929.199 1254.82 927.878 1255 926L1249 926M443 927C437.602 932.512 429.692 943.024 440.189 948.806C442.691 950.185 456.208 950.724 457.289 947.678C458.829 943.339 452.48 937.047 450.112 934.001C447.972 931.248 445.818 929.027 443 927M1214 933.576C1210.28 934.598 1204.52 939.233 1207.65 943.471C1210.72 947.63 1222.91 953.192 1227.98 951.381C1233.24 949.504 1231.81 945.287 1228.95 942C1225.02 937.487 1220.74 931.727 1214 933.576z"/>
<path style="fill:#020202; stroke:none;" d="M933.148 944.801C928.324 946.514 931.438 953.26 935.945 952.11C941.701 950.641 938.296 942.973 933.148 944.801M835 994C839.36 994.992 840.992 993.36 840 989C837.313 990.324 836.324 991.313 835 994M962 1004L962 1006L964 1006L964 1004L962 1004M1526 1005C1526.55 1006.88 1527.11 1008.26 1528 1010C1528.38 1007.58 1527.69 1006.78 1526 1005M465 1013C472.189 1013 479.216 1013.99 482 1006C475.311 1006.02 468.696 1006.74 465 1013M1529 1013L1530 1014L1529 1013M1535 1023C1535.21 1026.76 1535.66 1029.05 1539 1031C1538.53 1027.49 1537.56 1025.44 1535 1023M549 1025C552.274 1033.49 556.819 1043.69 555.812 1053C555.029 1060.24 551.294 1066.29 548.966 1073C547.698 1076.65 546.831 1084.42 551.278 1086.39C558.652 1089.67 562.263 1078.01 563.331 1073C564.105 1069.37 564.006 1065.69 564 1062C563.981 1049.95 563.853 1028 549 1025M860 1036C850.784 1036.7 848.173 1046.97 848.015 1055C847.968 1057.4 847.724 1060.59 849.178 1062.66C852.922 1068.01 856.529 1058.82 856.934 1056L858 1048C858.557 1043.98 859.48 1040.02 860 1036M1606 1041C1600.16 1059.43 1604.96 1077.31 1611 1095C1617.03 1091.67 1613.63 1085.69 1614.18 1080C1614.66 1074.9 1617.18 1070.2 1616.89 1065C1616.43 1056.64 1611.15 1048.57 1608 1041L1606 1041M673 1054L674 1055L673 1054M1272 1075L1272 1078C1276.48 1078.58 1281.25 1081.99 1285.85 1080.68C1288.22 1080 1288.94 1077.5 1286.67 1076.06C1284.9 1074.94 1282.85 1075.62 1281 1076C1278.72 1073.6 1275.16 1074.87 1272 1075M700 1086C697.379 1086.33 694.539 1086.56 692.018 1087.39C686.298 1089.29 683.707 1098.13 689.394 1101.82C696.157 1106.21 705.972 1100.05 703.411 1092C702.722 1089.84 701.197 1087.9 700 1086M832 1099.86C828.118 1101.33 823.107 1105.04 821.603 1109.01C817.086 1120.97 828.094 1129.7 838.985 1125.44C853.952 1119.58 848.112 1093.74 832 1099.86M1276 1109C1277.97 1112 1280.6 1113.02 1284 1114C1282.1 1110.71 1279.63 1109.87 1276 1109M475 1143C476.661 1140.31 478.699 1137.79 480.196 1135C487.85 1120.76 456.218 1122.37 464.746 1136.9C465.505 1138.19 466.831 1139.2 468.042 1140.03C470.187 1141.5 472.537 1142.29 475 1143M788 1146C796.673 1144.88 807.462 1144.43 813 1137C806.086 1137.02 802.153 1139.35 796 1142.1C793.124 1143.38 790.041 1143.57 788 1146M262 1149L261 1150L261 1152L265 1153L264 1149L262 1149M309 1186C303.303 1182.79 302.023 1180.53 302 1174C296.331 1176.95 292.414 1178 290 1171C287.227 1171.49 283.796 1173.34 281 1172.59C278.501 1171.92 276.712 1169.19 274 1169.21C270.111 1169.23 267.628 1174.07 264 1175.16C260.835 1176.12 257.35 1173.53 254.39 1175.12C251.309 1176.77 250.697 1181.27 248.502 1183.78C246.549 1186.01 243.708 1186.8 241.518 1188.7C238.189 1191.58 234.973 1196.94 233.315 1201C232.141 1203.87 233.198 1206.1 233.213 1209C233.226 1211.5 231.898 1213.59 231.502 1216C231.186 1217.93 231.814 1220.01 231.228 1221.89C230.207 1225.16 226.552 1225.84 224.105 1227.7C220.038 1230.78 217.312 1237.22 220.742 1241.77C226.736 1249.72 235.242 1239.57 242 1242.28C245.458 1243.67 247.425 1247.6 251 1248.7C253.864 1249.57 256.231 1247.23 259 1247.04C262.26 1246.81 264.792 1249.59 268 1249.41C271.532 1249.21 273.659 1245.69 277 1244.89C280.76 1243.99 284.995 1246.86 288.61 1245.36C292.351 1243.81 292.804 1238.27 296.213 1236.05C301.55 1232.56 306.772 1234.71 309.293 1227C310.594 1223.02 308.6 1219 309.653 1215C310.751 1210.82 315.623 1206.45 315.004 1202C314.092 1195.46 307.811 1193.62 309 1186M848 1210C842.712 1218.52 844 1228.36 844 1238C850.214 1233.66 850.732 1216.51 848 1210M1569.65 1226.03C1566.04 1229.11 1572.94 1235.34 1575.09 1237.1C1584.3 1244.67 1594.92 1250.06 1604 1257.95C1606.24 1259.89 1611.1 1264.53 1614.38 1261.95C1618.36 1258.83 1611.12 1253.99 1609 1252.59C1599.07 1246.05 1591.84 1236.57 1582 1229.72C1579.23 1227.79 1573.15 1223.04 1569.65 1226.03M763 1253C768.072 1252.63 771.419 1249.8 776 1247.93C787.025 1243.44 806.257 1240.3 810 1227C805.796 1227 801.069 1226.42 797 1227.65C788.836 1230.11 782.789 1237.79 776 1242.56C771.419 1245.78 764.776 1247.32 763 1253M323.108 1246.84C317.107 1248.84 319.695 1257.67 325.892 1255.38C331.819 1253.19 329.338 1244.75 323.108 1246.84M843 1250C842.233 1256.04 840.277 1261.93 840 1268C845.311 1264.65 844.984 1255.72 845 1250L843 1250M1114 1268C1114.22 1280.37 1111.94 1292.52 1112 1305C1112.05 1315.33 1114.41 1325.67 1113.96 1336C1113.35 1350.15 1109.31 1365.15 1114 1379C1118.8 1371.97 1116 1357.32 1116 1349C1116 1330.61 1119 1312.39 1119 1294C1119 1285.04 1119.61 1276.4 1116 1268L1114 1268M301 1327C311.437 1328.94 329.11 1329.21 334.82 1317.99C336.494 1314.69 335.118 1311.42 335.711 1308C336.686 1302.37 337.368 1299.94 333.471 1295.02C325.896 1285.45 313.306 1284.76 304.04 1292.39C298.968 1296.57 296.724 1302.82 290 1304.92C285.266 1306.4 282.432 1303.14 278 1302.45C274.229 1301.86 268.802 1303.23 265 1303.85C259.012 1304.82 256.391 1307.96 251.83 1311.46C249.141 1313.51 245.84 1314.4 243.703 1317.19C241.088 1320.6 241.227 1325.09 239.873 1329C239.205 1330.93 237.93 1332.88 238.09 1335C238.283 1337.54 240.335 1339.46 240.657 1342C240.958 1344.38 240.048 1346.62 240.743 1349C243.334 1357.88 250.48 1359.9 257.961 1362.02C260.965 1362.87 262.798 1366.19 266.039 1366.29C269.968 1366.41 274.599 1362.94 278 1361.25C282.149 1359.19 287.338 1357.78 290.786 1354.61C294.366 1351.31 294.262 1347.17 296.005 1343C297.279 1339.96 300.305 1337.8 301.311 1334.71C302.07 1332.39 301.187 1329.39 301 1327z"/>
<path style="fill:#ffffff; stroke:none;" d="M294 1305C292.73 1307.73 292.417 1309.06 293 1312C295.477 1309.55 296.087 1307.91 294 1305z"/>
<path style="fill:#020202; stroke:none;" d="M626 1323C624.17 1327.34 624.003 1331.34 624 1336C626.945 1332.41 627.627 1327.57 628 1323L626 1323M2166 1329C2168.54 1328.47 2169.53 1328.12 2171 1326C2168.31 1326.42 2167.45 1326.72 2166 1329M2061 1329L2061 1331L2066 1331L2066 1329L2061 1329M1792 1336L1792 1338L1794 1338L1794 1336L1792 1336M2170 1345C2175.44 1344.76 2181.93 1344.23 2183 1338C2177.34 1338.31 2173.46 1340.53 2170 1345M621 1345L621 1348C622.195 1346.78 622.316 1346.58 623 1345L621 1345M1904.67 1353.33C1904.22 1353.78 1905.28 1353.72 1905.33 1353.67C1905.78 1353.22 1904.72 1353.28 1904.67 1353.33M588 1403C594.111 1401.19 595.059 1395.11 597.865 1390C604.081 1378.69 615.021 1369.21 617 1356C610.753 1356.97 608.864 1361.77 606.247 1367C600.454 1378.58 591.563 1390.63 588 1403M1780 1361L1781 1362L1780 1361M2036 1367L2036 1369C2041.71 1370.81 2048.03 1371.94 2054 1370.47C2056.22 1369.92 2060.19 1368.31 2059.25 1365.27C2058.5 1362.84 2055 1362.99 2053 1363.04C2047.22 1363.2 2041.46 1365.26 2036 1367M2149 1364C2154.22 1369.27 2163.72 1372.91 2171 1374C2167.3 1367.48 2156.14 1364.33 2149 1364M2131 1365L2131 1367L2135 1367L2135 1365L2131 1365M1805 1366C1804.41 1379.73 1799.24 1392.11 1801 1406C1807.76 1404.6 1807.65 1399.94 1808.59 1394C1810.03 1384.86 1810 1374.87 1807 1366L1805 1366M1578 1367C1575.16 1371.67 1574.44 1375.73 1576 1381C1578.6 1377.58 1579.58 1371.04 1578 1367M2026 1369L2026 1372C2028.88 1371.68 2030.33 1371.38 2032 1369L2026 1369M1910 1385L1910 1387C1915.03 1389.22 1918.1 1392.38 1921 1397C1926.29 1394.11 1926.61 1387.52 1925.53 1382C1925.1 1379.78 1924.34 1376.44 1921.79 1375.75C1917.97 1374.71 1913.4 1383.19 1910 1385M2080 1391C2084.21 1390.9 2087.32 1390.06 2091 1388C2086.6 1385 2081.94 1385.92 2080 1391M1112 1388C1110.26 1394.73 1110 1401.09 1110 1408L1114 1408C1114 1401.97 1115.75 1392.95 1112 1388M395 1394C393.288 1397.55 392.918 1401.19 392 1405C395.315 1402.42 396.56 1398.08 397 1394L395 1394M2026 1408C2029.67 1408 2035.32 1409.05 2038.68 1407.4C2042.42 1405.56 2041.04 1398.74 2037.77 1397.09C2032.01 1394.17 2027.22 1403.88 2026 1408M1967 1408L1980 1408C1978.78 1397.08 1971.21 1401.29 1967 1408M921.667 1407.33C921.222 1407.78 922.278 1407.72 922.333 1407.67C922.778 1407.22 921.722 1407.28 921.667 1407.33z"/>
</svg>
