<?xml version="1.0" standalone="yes"?>
<svg xmlns="http://www.w3.org/2000/svg" width="2200" height="1236">
<path style="fill:#fefefe; stroke:none;" d="M0 0L0 142L5 143C3.50023 145.232 1.5033 147.439 0.598765 150.002C-0.869173 154.16 0 159.647 0 164L0 194L0 316L0 779C5.7285 780.513 6.97692 783.474 8.21065 789C8.97287 792.414 9.87795 797.897 14.1049 798.574C18.0676 799.209 22.5167 795.501 26 794C26.5539 798.08 25.1029 801.124 24 805C25.4572 805.364 26.5176 805.811 28.044 805.577C39.2318 803.865 34.3339 793.66 34 786C39.2451 793.431 41.1681 806.244 53 803C52.2365 801.441 48.5804 797.435 49.9205 795.734C51.3494 793.92 55.9887 795.021 58 794.823C65.5751 794.073 72.6955 786.434 79.9414 786.708C85.2157 786.908 83.1828 794.999 87.1481 797.468C94.2674 801.9 105.821 802.123 114 801.981C117.475 801.92 120.591 800.54 124 800.299C127.079 800.08 130.04 801.345 133 799.958C135.831 798.632 139.11 793.636 142.656 795.176C147.807 797.413 144.829 804.551 143.218 808C139.954 814.99 137.559 823.296 133.837 829.911C131.76 833.601 126.612 836.249 126.712 840.999C126.868 848.366 139.395 851.191 145 850.096C148.159 849.479 151.749 847.804 154.907 849.269C160.369 851.805 161.52 860.622 168.986 859.392C174.545 858.476 176.453 851.591 182 850C181.492 852.593 181.492 854.408 182 857C184.825 856.621 187.333 856.003 190 855C188.846 852.751 188.249 852.154 186 851C188.749 845.767 195.033 842.517 193 851C195.729 851.81 198.15 851.979 201 852C199.642 854.485 197.84 856.258 197 859C199.018 858.122 200.232 857.349 202 856C204.233 860.148 207.487 860.79 212 861C211.755 861.926 211.181 863.099 211.309 864.141C212.442 873.376 225.125 864.207 215 861C215.964 859.374 217.146 857.728 217.875 855.976C220.949 848.594 211.467 846.606 207 843C213.446 840.218 217.856 836.837 220 830C215.32 828.35 213.256 824.395 219.02 822.013C222.515 820.569 226.386 821.715 230 822C228.941 827.125 226.022 829.088 221 830C221.547 831.875 222.11 833.255 223 835C230.599 833.582 240.181 845.416 237.397 853C235.196 858.993 227.913 863.358 223 867L223 869C226.596 871.89 228.668 875.067 231 879C233.533 878.169 238.005 874.802 240.638 876.172C243.956 877.899 240.112 884.186 240.38 887C241.374 897.436 248.945 899.994 258 900C257.245 902.132 255.684 904.694 255.732 906.998C255.865 913.406 266.607 917.727 272 916.451C274.776 915.795 277.329 914.003 280 913L278 920C280.986 921.574 293.161 924.348 292.369 928.826C292.029 930.751 289.649 931.48 287.995 931.587C283.154 931.9 279.827 929.508 275.019 932.001C269.863 934.674 271.257 938.318 269.612 943C268.429 946.364 266.514 949.354 266.225 953C265.395 963.437 271.662 964.999 280 967.155C282.928 967.912 287.597 970.083 290.4 967.968C292.282 966.549 292.469 963.116 293 961C296.296 963.086 301.494 965.163 302.947 969.058C303.933 971.702 303.08 975.512 299.891 976.119C297.15 976.64 294.52 974.213 292 973.509C286.664 972.019 277.498 973.739 273.434 977.649C266.454 984.362 279.319 993.717 272.809 999.413C267.684 1003.9 258.248 999.701 252 1002.15C244.384 1005.13 242.679 1014.04 234.996 1016.56C230.942 1017.89 217.589 1020.69 221.086 1027.67C224.146 1033.78 235.791 1036.72 241 1041C232.697 1040.62 227.003 1034.68 219 1033C219.306 1037.76 220.937 1043.88 223.727 1047.83C226.26 1051.42 232.27 1054.76 231.044 1059.98C229.438 1066.82 220.778 1064.13 217.988 1059.79C214.8 1054.82 215.995 1047.41 217 1042L216 1041L214 1041C212.308 1043.64 210.744 1046.24 207.957 1047.86C204.895 1049.64 201.121 1049.75 199.179 1053.13C194.81 1060.74 203.483 1065.23 202.988 1071.79C202.77 1074.68 199.342 1072.92 197.998 1072.18C193.456 1069.69 187.499 1067.66 185 1063C194.5 1062.97 194.352 1058.51 186 1055C186.911 1051.92 187.955 1047.36 185.972 1044.43C183.165 1040.28 172.489 1038.77 168 1039.67C164.585 1040.36 160.722 1041.51 158.353 1044.22C156.288 1046.59 156.587 1051.3 152.927 1051.94C150.332 1052.4 147.702 1050.97 145 1051.39C134.961 1052.95 125.324 1057.61 115 1055.02C108.641 1053.43 104.154 1043.85 97.0941 1045.48C90.9346 1046.9 89.7708 1057.35 86.8711 1062C84.7906 1065.33 82.333 1069.63 79.5054 1072.36C76.7271 1075.05 72.9164 1076.23 70.213 1079.1C64.6533 1085.02 61.025 1094.07 60 1102L55 1101C52.2813 1111.88 62.9248 1120.76 73 1121C69.2475 1128.59 65.1209 1123.09 60 1120C55.9715 1117.58 51.135 1116.94 47 1114.65C44.2772 1113.14 41.2506 1109.98 38 1109.83C33.4282 1109.63 25.3595 1117.44 25.3619 1122C25.364 1125.99 28.5503 1129.56 30.1759 1133C33.7343 1140.54 37.2996 1149.07 40 1157C34.2604 1151.7 33.2068 1144.64 29.8511 1138C26.9985 1132.35 20.7138 1125.01 15 1122.18C10.8591 1120.13 4.58307 1121.32 0 1121L0 1236L80 1236L78 1230C79.7581 1232.01 80.916 1233.58 82 1236L123 1236C122.453 1234.12 121.89 1232.74 121 1231C130.838 1238.57 143.96 1236 156 1236C154.515 1231.61 152.885 1227.23 151 1223C156.056 1225.77 157.291 1232.19 162.184 1234.97C167.327 1237.9 177.208 1236 183 1236C178.353 1230.93 172.307 1228.36 169 1222C175.26 1225.91 180.989 1233 188 1235.41C196.698 1238.4 209.828 1236 219 1236L289 1236L542 1236L1504 1236C1503.23 1231.86 1502.5 1227.92 1504.57 1224C1508.96 1215.73 1521.29 1212.81 1527.4 1221.19C1530.19 1225.02 1529 1231.52 1529 1236L2200 1236L2200 1147L2200 1122C2200 1118.57 2200.89 1113.57 2199.4 1110.39C2197.78 1106.95 2192.17 1105.34 2189 1103.75C2181.88 1100.19 2174.74 1096.59 2170 1090C2182.04 1092.49 2189 1101.4 2200 1106L2200 909C2191.3 912.164 2186.45 916.444 2177 913C2182.88 904.843 2190.86 904.702 2200 903L2200 0L0 0z"/>
<path style="fill:#030303; stroke:none;" d="M166 6C165.081 10.1224 166.443 12.5951 169.289 15.7137C170.836 17.4104 174.187 19.6451 172.963 22.3387C170.456 27.8558 161.42 32.9702 157 37.0895C152.134 41.6237 148.154 47.1565 142.985 51.3311C135.316 57.5258 125.89 61.729 118.39 67.9653C112.588 72.7894 107.001 80.8541 102.579 87C97.9604 93.4204 91.4479 99.8025 91 108C97.7023 107.021 100.584 101.884 106 98.541C109.463 96.4036 113.56 99.4308 116.566 96.6273C119.5 93.891 118.644 89.2723 120.742 86.0393C123.904 81.1694 129.973 79.255 133.4 74.6998C136.224 70.9465 136.301 65.868 139.39 62.0146C148.182 51.0496 161.759 40.3962 173 31.9584C178.647 27.7197 180.986 31.8253 185.039 35.9961C189.179 40.256 198.152 49.2762 204.941 48.0178C212.572 46.6033 205.873 35.1191 203.471 32C196.294 22.6816 186.524 19.7211 177 13.9915C173.022 11.598 170.245 7.97913 166 6M755 6C753.479 11.1459 754 16.6606 754 22C760.638 19.6902 759.202 11.2191 757 6L755 6M524 20C528.913 31.0399 539.179 43.4756 550 49C547.914 40.1229 539.866 32.6193 533.95 26.0007C530.91 22.6 528.784 19.3099 524 20M873 37C871.119 44.8796 871.372 52.0427 872 60C882.217 59.2107 881.131 39.6724 873 37M579 41C575.891 49.429 572.276 54.7079 574 64C583.189 62.5388 583.81 47.2522 579 41M608 44C608.176 45.8781 608.438 47.1996 609 49C609.791 46.6927 609.475 45.9352 608 44M610 51C610.145 57.9829 612.182 64.6426 615 71C618.99 65.6489 613.997 55.4418 610 51M553 52C554.894 57.9426 558.939 63.0294 562.63 68C569.486 77.2336 576.19 85.3359 587 90C585.024 84.8998 581.118 81.444 578.055 77C575.641 73.4977 574.175 69.3872 571.468 66.0895C566.732 60.3207 559.467 55.6039 553 52M709 217C713.667 220.583 696.79 223.048 694.188 221.766C687.594 218.517 690.37 209.219 685.683 204.789C679.905 199.329 671.903 200.886 665 198.452C658.497 196.159 653.469 191.145 647 189C645.949 193.912 647.913 198.231 649.105 203C650.363 208.032 650.167 214.325 652.688 218.896C654.76 222.652 659.502 225.996 663 228.351C666.552 230.742 670.221 230.271 673.999 231.742C679.062 233.712 684.409 240.75 685.777 245.981C686.892 250.246 681.459 251.789 678.83 254.058C676.228 256.304 672.792 260.388 669.008 260.252C664.342 260.085 659.869 249.948 660 246C652.893 242.834 645.626 239.132 638.005 242.825C635.691 243.946 632.962 245.447 632.408 248.185C631.367 253.332 635.679 258.125 636.413 262.996C636.911 266.3 634.864 268.959 634 272L638 273C636.713 274.645 635.451 276.74 633.021 276.659C629.849 276.552 627.441 272.6 624.961 270.993C618.802 267.003 611.945 264.901 606 260.336C603.141 258.14 596.346 251.982 593.238 257.434C590.615 262.035 597.966 266.465 600.985 268.424C607.917 272.923 611.255 279.652 614.333 287C615.391 289.527 616.963 292.146 616.461 295C614.663 305.237 603.006 301.003 596 301C590.819 300.998 583.453 299.672 579.275 303.434C576.441 305.985 575.703 310.045 572.786 312.566C570.569 314.483 566.009 314.485 564.786 317.317C561.478 324.974 579.323 341.773 565.996 346.534C560.025 348.667 555.612 334.755 552.957 331C546.29 321.569 535.544 315.327 527.019 307.7C524.357 305.318 522.641 300.122 519.571 298.603C515.771 296.724 509.283 298.199 506.109 300.653C497.826 307.055 505.74 315.601 509.547 322C513.851 329.235 516.586 337.582 522.326 343.907C530.249 352.638 549.023 356.003 542.146 371.996C541.219 374.153 539.836 375.944 537.945 377.347C533.302 380.793 527.38 380.131 522 379.424C517.673 378.856 513.209 379.386 509 378.096C503.209 376.32 498.155 372.776 492 372.177C481.11 371.119 468.534 372.252 458.059 367.968C454.315 366.437 454.888 363.09 452.401 360.589C450.787 358.965 448.165 358.587 446 358.29C434.907 356.77 423.106 359.474 412 359.961C399.098 360.526 385.868 358.876 373 358.1C367.473 357.766 362.399 355.436 357 354.465C349.55 353.124 341.557 352.557 334 351.838C330.99 351.552 321.763 350.5 322.466 355.961C323.029 360.335 330.896 359.898 334 360.011C345.663 360.435 357.326 361.528 369 362.039C374.464 362.279 380.831 362.703 386 364.549C389.81 365.909 393.04 368.822 397 369.698C401.194 370.624 405.737 369.744 410 370.171C416.057 370.776 421.959 372.612 428 373.395C433.899 374.16 438.349 370.24 444 370.398C447.855 370.506 451.333 373.079 455 374.073C460.393 375.533 465.763 375.407 471 377.677C483.87 383.253 491.358 396.21 504 402C511.092 393.077 517.961 401.38 526 405.215C531.641 407.907 539.11 408.254 543.891 412.394C548.586 416.46 547.456 421.968 550.314 426.826C552.28 430.169 555.991 432.22 558.536 435.09C562.542 439.608 565.789 444.644 570.014 449C573.044 452.124 575.855 456.545 579.375 459.066C582.501 461.303 588.255 461.417 590.079 465.329C592.193 469.862 583.635 474.493 580 473.806C574.763 472.815 569.041 467.597 566.688 462.996C565.29 460.263 565.232 456.817 563.262 454.394C559.079 449.248 548.25 447.286 542 447C543.744 450.209 546.774 452.056 548.787 455.093C554.628 463.905 557.307 472.661 556 483C563.89 486.502 564.449 493.328 569.071 499.787C571.304 502.907 576.101 503.694 577.687 507.213C578.597 509.234 578.042 511.86 578.015 514C577.971 517.404 579.797 523.631 576.552 525.973C574.238 527.642 565.745 530.217 563 529.728C559.527 529.109 551.201 521.366 549.323 528.147C547.607 534.339 553.754 536.422 558 538.796C563.083 541.638 566.025 545.028 565.981 551C565.966 553.033 565.757 555.032 565.236 557C561.688 570.391 550.198 568.708 539 570.09C536.099 570.448 532.89 572.564 530 572.163C527.003 571.746 525.079 568.821 522 568.531C515.973 567.963 511.526 573.753 505.001 571.258C497.136 568.251 498.659 557.274 491 556C490.821 558.343 490.74 560.518 488.682 562.063C484.182 565.443 471.318 564.884 475.607 574.772C477.933 580.132 485.836 577.28 490 576.755C499.65 575.539 506.967 581.752 507 591C512.688 590.021 523.33 582.749 527 589C524.261 589.211 523.578 589.303 523 592L529 590C530.673 599.229 537.983 600.166 546 602C544.829 608.306 546.724 614.905 545.593 620.911C544.966 624.244 541.945 626.66 541 630C545.804 630.113 556.666 632.119 555.677 639.004C555.126 642.836 551.402 646.355 550 650C553.538 648.641 557.811 644.484 561.576 644.517C565.461 644.551 568.831 647.84 572.961 647.849C576.162 647.855 579.632 644.459 582.585 646.661C586.166 649.332 585.751 655.128 586.76 659C587.761 662.839 591.206 667.866 590.073 671.907C589.187 675.064 585.672 676.815 582.999 678.214C574.964 682.422 569.467 681.245 561 680C558.153 691.966 543.101 695.256 533 698.947C519.02 704.055 504.479 710.399 490 713.829C484.519 715.128 479.463 712.488 474 713.472C466.267 714.866 458.583 719.859 451 722.33C442.071 725.24 432.895 727.362 424 730.333C420.687 731.44 415.518 732.567 415.377 736.935C415.203 742.312 422.113 739.953 425 739.14C431.021 737.446 436.876 734.97 443 733.669C448.337 732.535 453.717 732.566 459 730.961C468.464 728.084 477.534 723.956 487 721.026C493.957 718.872 501.27 717.984 508 715.128C514.916 712.193 521.716 708.454 529 706.489C533.295 705.331 537.694 705.408 542 704.482C546.621 703.489 551.126 700.495 555.999 701.244C562.953 702.312 565.549 710.601 572.039 712.779C581.507 715.956 591.775 718.819 599.996 724.789C603.076 727.024 607.357 730.77 607.172 735C606.981 739.368 602.044 742.87 599 745.385C592.061 751.118 582.893 756.652 579 765C589.641 767.919 599.546 759.334 608 754.352C616.463 749.364 624.93 748.786 634 746.404C639.079 745.071 642.518 742.241 648 743C646.49 746.224 646.479 747.447 649 750C649.676 748.083 652.949 740.17 655.886 744.542C657.946 747.61 654.738 756.76 653.637 760C650.988 767.795 644.538 772.412 643.3 781C641.973 790.208 645.799 804.144 658 802.728C662.416 802.216 666.553 798.525 670 795.975C674.771 792.446 679.162 788.395 684 785L686 789C692.111 780.787 685.745 764.6 696 759C696.028 767.007 700.429 772.317 709 768.633C712.526 767.117 715.111 764.543 718 762.118C724.477 756.679 744.448 751.087 748.088 763.043C748.909 765.739 748.056 769.208 748 772C755.851 772 762.129 772.116 768.995 776.468C771.235 777.887 775.203 780.495 773.248 783.61C769.529 789.536 758.43 785.005 756.453 793.044C755.115 798.484 760.527 801.383 761.929 806C763.342 810.655 757.241 820.605 753.787 823.566C748.779 827.859 741.829 825.217 736 825.043C733.52 824.969 729.908 824.828 728.604 827.434C724.973 834.692 734.553 844.583 739.004 848.995C740.492 850.47 742.073 852.332 744 853.248C748.039 855.17 751.47 850.51 754 847.999C761.669 840.386 767.489 835.377 778 832.428C782.612 831.135 789.647 832.375 793.606 829.821C797.905 827.048 796.777 815.59 802.133 815.323C803.831 815.238 805.371 816.411 807 816.711C809.603 817.189 812.323 815.703 814.852 816.647C819.72 818.463 818.037 827.129 817.409 831C816.807 834.707 812.352 842.257 817.153 844.397C829.516 849.905 834.26 830.542 845 829.643C850.023 829.223 855.97 832.769 861 833.561C864.159 834.058 868.022 833.436 870.895 835.028C875.288 837.463 875.832 842.47 881 844C880.948 839.102 882.478 836.416 884.31 832C885.146 829.985 885.414 827.104 887.433 825.828C890.919 823.624 899.232 829.406 901.297 832.133C904.29 836.086 904.623 842.224 905 847L907 847C906.952 841.146 905.922 835.828 907 830C909.792 831.416 912.802 834.219 916 834.472C923.318 835.051 926.241 825.466 933.001 824.228C939.058 823.119 948.004 823.153 954 824.529C958.532 825.569 962.393 828.179 967 829L968 824C958.362 820.073 948.241 819.542 938 818.285C934.088 817.804 928.557 818.294 925.438 815.411C918.186 808.707 935.078 801.522 940 801.093C952.42 800.009 963.456 791.533 976 792.104C986.402 792.578 997.74 803.547 1007.96 797.142C1017.21 791.347 1013.93 781.802 1014.38 773C1014.61 768.446 1016.58 763.514 1015.34 759C1014.26 755.097 1011.14 752.037 1010.43 748C1009.69 743.792 1011.95 732.521 1016.23 730.603C1019.27 729.241 1023.74 730 1027 730C1023.05 725.099 1014.2 713.885 1008 720C1002.84 714.441 993.702 704.358 1004.22 698.028C1006.99 696.363 1014.38 698.307 1015.08 693.961C1015.97 688.418 1003 690.305 1005.37 683.1C1006.76 678.888 1011.87 677.876 1012.77 672.996C1014.08 665.92 1010.26 657.61 1013.57 651.043C1015.91 646.409 1021.3 645.619 1024.26 641.671C1027.67 637.116 1024.63 631.948 1025.25 627C1025.57 624.408 1027.96 621.895 1027.25 619.213C1026.45 616.183 1022.29 615.131 1020.11 613.363C1017.33 611.112 1016.51 602.432 1013.68 601.917C1011.39 601.499 1009.07 603.747 1007 604.416C1002.88 605.748 994.969 605.864 991.39 603.142C988.846 601.206 987.802 597.814 986.576 595C984.064 589.234 981.189 583.46 981.179 577C981.171 571.996 982.834 567.017 981.581 562.001C979.927 555.38 973.828 552.459 974.024 545.001C974.284 535.109 981.234 540.946 986.697 537.539C989.637 535.705 989.542 531.779 991.703 529.317C993.327 527.467 995.653 527.162 997.715 526.036C1003.87 522.671 1009.58 521.568 1012 530C1015.21 529.862 1018.82 528.784 1021.99 529.468C1024.57 530.028 1026.53 532.237 1029.17 532.512C1034.18 533.035 1038.7 528.75 1043 526.918C1045.05 526.041 1047.38 525.953 1049.1 524.397C1055.25 518.84 1056.93 510.501 1059.33 503C1061.17 497.244 1061.01 492.533 1068 492C1065.17 487.344 1060.19 486.501 1056.06 483.352C1053.92 481.725 1052.94 479.441 1051.12 477.583C1046.5 472.853 1034.89 465.55 1028 466.484C1020.01 467.566 1014.47 474.561 1006 475C1005.3 470.325 1003.3 461.274 1000.06 457.742C998.333 455.856 995.385 456.216 993.603 454.4C991.597 452.355 992.522 449.034 990.397 447.086C985.231 442.352 978.348 444.708 977 436C980.908 437.202 983.907 437.204 986 441C989.505 438.879 991.31 435.293 994.296 432.529C996.133 430.826 999.105 429.488 999.623 426.791C1001.38 417.668 987.594 420.439 983.001 421.705C976.081 423.613 974.399 433.534 966.999 432.732C960.974 432.078 955.182 426.739 954 421C956.842 421.224 960.995 422.616 963.57 420.958C967.723 418.283 967.639 410.521 963.852 407.742C961.29 405.863 958.011 406.027 955 406C955.007 395.708 957.263 382.563 967.004 376.758C970.549 374.645 973.315 376.628 977 376.578C980.558 376.53 987.522 374.804 990.815 373.397C994.139 371.977 995.711 368.011 997.244 365C1001.12 357.388 1004.55 351.405 1001 343C996.956 344.413 992.176 349.156 988.004 349.133C983.831 349.111 981.334 344.409 980.225 341C976.932 330.882 978.417 319.98 974 310C967.63 311.456 961.315 311.252 955 312.514C951.029 313.307 946.065 315.247 942.244 312.821C937.891 310.057 943.674 303.19 939.664 301.788C933.324 299.572 925.767 307.633 919.103 303.817C913.895 300.835 919.638 295.04 913 293L915 298C908.79 297.033 905.643 291.98 908.443 286C910.446 281.723 913.751 276.51 917.13 273.209C919.71 270.688 922.986 269.128 924.911 265.957C936.433 246.979 909.576 235.166 901 223C898.246 223.373 894.027 223.575 892.603 226.43C890.988 229.669 892.347 234.492 892.026 238C890.887 250.483 888.618 259.903 876 264.985C872.185 266.521 868.899 267.136 865 265.466C851.742 259.789 844.932 244.613 836.61 234C831.771 227.83 825.201 223.345 821.905 216C819.449 210.527 820.806 204.361 818.152 199C815.866 194.382 812.05 190.734 809.904 186C807.716 181.172 807.53 175.708 805.085 171C800.504 162.178 794.86 154.734 792.039 145C790.104 138.322 791.144 132.674 790.791 126C790.525 120.975 788.604 116.034 788.572 111C788.553 108.102 790.082 105.754 790.716 103C792.03 97.2944 791.621 91.4507 794.055 86C795.767 82.1652 799.623 78.4006 799.638 74C799.669 65.1798 784.99 53.1769 776.433 59.0277C772.613 61.6395 773.242 68.9796 772.321 73C770.173 82.3745 770.566 91.8058 774.352 101C776.392 105.955 781.069 109.884 782.471 115C783.377 118.304 781.937 121.654 782.414 125C782.846 128.029 784.351 130.832 783.551 133.961C782.485 138.128 778.168 140.332 775 142.749C768.248 147.901 761.597 153.857 763.681 163C765.464 170.824 771.391 176.582 774.031 184C775.924 189.319 775.063 195.461 776.478 201C778.16 207.58 781.476 215.247 774.891 220.347C764.764 228.192 747.737 217.556 740.325 209.815C736.801 206.134 733.706 199.264 728.004 198.582C721.444 197.797 719.282 208.076 715.611 211.687C713.372 213.889 710.714 214.312 709 217M203 62C205.359 65.5593 209.396 66.0662 213 68.1011C222.097 73.2379 231.743 78.5696 242 81C238.184 77.1432 232.819 75.1626 228 72.7531C220.045 68.7758 211.853 63.5243 203 62M1450 212C1456.58 199.507 1457.57 182.898 1456.96 169C1456.76 164.323 1455.33 159.69 1455.46 155C1455.65 147.874 1459.19 141.803 1460.62 135C1462.43 126.454 1462.6 117.542 1464.51 109C1466.36 100.753 1469.14 92.1095 1471.57 84C1473.29 78.2793 1475.77 74.0334 1474 68C1464.34 72.7672 1465.17 91.5472 1462.63 101C1460 110.761 1453.99 118.778 1452.32 129C1451.51 133.991 1453.43 138.159 1453.5 143C1453.59 148.412 1451.28 153.608 1451.04 159C1450.72 165.977 1452.48 173.14 1451.82 180C1450.92 189.497 1444.69 203.143 1450 212M1191 73C1193.3 72.3265 1193.77 72.0347 1195 70C1192.87 70.7765 1192.23 71.1302 1191 73M1517 74C1518.88 80.3979 1525.19 81.8032 1531 83.5864C1541.66 86.8571 1552.58 90.0146 1563 93.9506C1583.03 101.516 1603 109.446 1623 117.189C1630.98 120.278 1639.15 122.363 1647 125.861C1668.5 135.435 1687.83 148.962 1712 150C1711.31 153.723 1709.84 159.146 1712.18 162.567C1717.55 170.422 1729.04 164.315 1732 158C1737.88 160.45 1742.49 162.942 1749 163C1746.02 158.773 1742.61 155.39 1738 153C1740.12 150.931 1745.26 147.063 1742.21 143.738C1737.68 138.796 1727.38 143.656 1722 143.63C1711.77 143.581 1701.82 135.99 1692 133.654C1686.72 132.399 1681.22 132.443 1676 131.076C1668.56 129.126 1662.22 124.643 1655 122.206C1624.13 111.788 1593.88 99.9598 1563 89.6666C1548.05 84.683 1532.88 75.3866 1517 74M1098 78C1096.5 80.6735 1095.54 82.9808 1095 86C1097.63 84.0266 1098.68 81.2245 1098 78M931 147C932.605 143.773 934.162 140.731 937.043 138.429C939.237 136.676 942.949 135.964 943.592 132.856C944.18 130.007 942.704 126.8 942.3 124C941.66 119.56 941.669 115.329 940.251 111C938.565 105.854 935.667 101.319 934.428 96C933.567 92.3027 933.261 83.2083 927.133 85.7616C921.558 88.0842 924.876 97.5554 924.985 102C925.25 112.791 923.31 123.188 924.718 134C925.445 139.574 925.8 143.974 931 147M1092 92C1088.05 96.4015 1086.14 100.056 1086 106C1090.21 103.566 1093.01 96.7906 1092 92M584 98C585.549 102.895 588.088 107.649 592 111C590.829 105.402 589.392 100.652 584 98M513 99C505.691 100.218 511.782 106.309 513 99M1709 101C1708.01 102.478 1708 102.203 1708 104C1709.77 103.021 1709.96 102.778 1709 101M1849 106C1845.89 101.216 1838.75 104.111 1834 105.236C1828.93 106.439 1824.19 109.169 1819 109.815C1809.11 111.046 1793.19 108.616 1785.38 116.644C1782.37 119.73 1786.02 121.77 1789 121.902C1795.01 122.167 1801.54 120.124 1807 117.847C1812.54 115.536 1818.17 113.36 1824 111.895C1832.28 109.814 1840.68 107.908 1849 106M399 104C397.841 110.029 401.422 122.524 409.852 120.638C417.33 118.966 408.544 109.5 405.998 107.533C403.804 105.839 401.605 104.832 399 104M84 117L84 120L86 120L86 117L84 117M598 121C598.712 124.994 600.498 128.315 602.139 132C605.956 140.571 609.847 152.566 620 155C618.656 145.068 614.292 136.871 608.378 129.001C604.943 124.429 604.196 121.343 598 121M1327 126L1327 131L1329 131L1329 126L1327 126M375 129C378.089 132.603 382.401 134.169 386 137.213C394.975 144.805 404.497 153.706 417 154C414.139 142.064 398.91 137.115 389 132.561C383.904 130.219 380.602 126.316 375 129M594.333 128.667C594.278 128.722 594.222 129.778 594.667 129.333C594.723 129.277 594.778 128.222 594.333 128.667M1327 133L1328 150L1330 150L1329 133L1327 133M945 150C953.113 148.297 955.627 144.166 956 136C946.869 136.108 945.024 141.709 945 150M500 137C500.67 140.479 502.07 143.037 504 146C505.265 142.101 502.926 139.45 500 137M0 142L0 149C2.44689 147.164 3.70052 145.763 5 143L0 142M30 144C30 152.029 28.4547 161.633 32 169L34 169C36.1143 161.831 34.1041 151.102 32 144L30 144M836 148C833.207 153.624 828.586 157.665 826.789 164C824.346 172.608 827.931 182.733 829.927 191C830.695 194.181 830.523 197.081 832.654 199.815C835.915 203.999 843.586 208.338 848.996 206.393C855.293 204.129 856.529 197.64 858.458 192.17C859.334 189.688 861.084 187.619 861.567 184.985C862.158 181.766 861.136 178.248 861.011 175C860.896 172.022 860.972 168.766 858.566 166.589C855.351 163.679 850.438 164.278 847.388 160.775C843.041 155.783 843.154 150.453 836 148M1151 155L1151 157L1154 157L1154 155L1151 155M513.667 158.333C513.222 158.778 514.278 158.722 514.333 158.667C514.777 158.223 513.722 158.278 513.667 158.333M1328 159C1328.31 161.123 1328.38 161.686 1330 163C1329.49 161.047 1329.27 160.543 1328 159M1324 173C1330.95 176.281 1341.29 171.545 1345 165C1335.75 165 1328.1 163.15 1324 173M140 172C143.86 172.917 147.34 174.485 151 175.989C152.965 176.797 154.948 177.65 157 178.214C161.433 179.435 171.606 178.642 164.847 172.394C160.397 168.279 154.537 169.192 149 168.961C144.874 168.788 141.53 167.435 140 172M2084 169C2085.25 169.685 2085.55 169.749 2087 170C2085.75 169.315 2085.45 169.251 2084 169M529 170C531.491 173.547 534.219 176.834 538 179C536.023 174.764 533.236 171.977 529 170M1152 170L1149 174C1151.14 172.869 1152.1 172.432 1152 170M1255 180C1261.55 179.032 1269.98 176.99 1272 170C1264.68 170.065 1257.19 172.258 1255 180M1739.96 170.666C1736.57 170.875 1733.22 172.838 1730 173.791C1721.27 176.372 1711.88 178.274 1705.21 185.185C1699.22 191.402 1698.12 201.913 1709 201.97C1722.83 202.042 1734.04 189.741 1742.68 180.486C1745.62 177.342 1745.6 170.318 1739.96 170.666M1842 177C1844.12 176.101 1844.1 176.124 1845 174C1842.88 174.899 1842.9 174.876 1842 177M1143 180C1145.69 178.676 1146.68 177.687 1148 175C1145.31 176.324 1144.32 177.313 1143 180M2106 176C2110.19 180.193 2115.26 180.952 2121 181C2116.71 177.459 2111.45 176.434 2106 176M2125 182C2127.31 183.591 2129.19 183.857 2132 184C2129.72 182.779 2127.57 182.348 2125 182M2134.67 184.333C2134.22 184.777 2135.28 184.723 2135.33 184.667C2135.78 184.222 2134.72 184.278 2134.67 184.333M1135 188C1136.92 187.098 1137 186.924 1138 185C1135.88 185.899 1135.9 185.876 1135 188M1386 185C1384.67 193.37 1387.03 202.612 1387.83 211C1389.13 224.602 1389.01 239.882 1393 253C1394.77 248.785 1394 243.535 1394 239C1394 226.479 1391.88 214.368 1390.1 202C1389.24 196.044 1390.69 190.592 1388 185L1386 185M2139 185C2141.03 187.754 2143.69 188.426 2147 189C2144.57 186.567 2142.38 185.612 2139 185M996 188L996 192C998.035 190.774 998.326 190.297 999 188L996 188M1637 191C1636.24 193.745 1636.24 195.255 1637 198C1638.06 195.466 1638.06 193.534 1637 191M2162 193C2165.64 196.455 2170.12 196.899 2175 197L2175 195C2170.59 194.352 2166.5 193.096 2162 193M2079 199L2080 200L2079 199M1637 200L1638 201L1637 200M1802 202C1793.66 199.713 1788.65 205.666 1783 210.911C1776.73 216.73 1769.96 221.771 1764.04 228C1761.16 231.033 1756 236.176 1756.53 240.848C1756.89 243.959 1759.99 243.367 1762 242.278C1766.85 239.655 1771.01 235.101 1774.58 231C1778.14 226.898 1781.83 222.981 1785.99 219.464C1791.56 214.752 1798.86 208.6 1802 202M2100 205C2101.69 206.062 2103.04 206.52 2105 207C2103.21 205.579 2102.29 205.303 2100 205M936 214L938 214C938.562 212.199 938.824 210.878 939 209C935.964 210 935.506 210.863 936 214M949 210C951.609 219.096 963.453 220.92 967 230C957.329 234.009 943.258 242.708 942 254C949.838 253.811 956.491 249.4 961.961 243.96C964.661 241.275 967.255 236.529 971.015 235.252C973.887 234.277 976.635 236.448 979 237.772C982.889 239.95 986.551 241.554 991 242C990.399 237.863 987.691 234.96 986.742 231C985.844 227.256 988.114 221.243 982.891 219.788C978.113 218.457 973.94 223.384 969 221.327C961.589 218.242 957.449 210.918 949 210M1425 213C1423.6 218.901 1424 224.968 1424 231C1426.79 226.347 1427.09 217.984 1425 213M67 229C69.9408 229.798 81.1756 228.191 77.8241 222.646C74.8379 217.705 67.8737 226.506 67 229M1198 226C1199.43 224.607 1200.04 223.767 1201 222C1198.35 222.866 1197.92 223.23 1198 226M1950 225C1950.34 235.468 1961.95 237.235 1970 240.865C1979.94 245.347 1986.68 252.966 1995 259.621C1999.81 263.467 2005.64 266.15 2011 269.14C2015.81 271.826 2027.03 281.448 2032.55 276.396C2035.06 274.096 2033.7 271.218 2031.84 269.04C2027.8 264.319 2021.84 261.638 2017 257.883C2005.6 249.048 1992.11 248.544 1980 241.662C1969.97 235.963 1962.12 226.064 1950 225M65 244C64.9401 242.175 65.1077 240.078 63.9722 238.505C62.6324 236.649 60.0774 236.03 57.9992 235.429C52.0961 233.723 44.0015 231.814 38 233.154C35.7779 233.65 28.4747 233.277 27.9213 236.184C27.1584 240.192 38.4371 241.848 41 242.579C43.9541 243.421 46.9401 244.449 50 244.816C55.0497 245.42 59.98 244.216 65 244M941 235C938.151 237.44 936.748 239.31 936 243C940.448 242.274 942.712 239.438 941 235M463 237C464.029 244.703 470.953 254.915 479 256C478.191 247.014 471.053 240.41 463 237M1246 247C1247.81 247.574 1248.07 247.465 1250 247C1248.34 246.594 1247.76 246.691 1246 247M539 249C539.168 252.662 540.599 253.777 544 255C542.701 252.237 541.447 250.836 539 249M667 254C669.739 253.789 670.422 253.697 671 251C668.868 251.777 668.229 252.13 667 254M612 253C615.755 260.903 620.308 264.872 629 266C627.214 259.966 617.866 254.597 612 253M1453 257C1449.63 261.391 1446.82 265.749 1445 271C1449.92 268.653 1454.98 262.731 1453 257M1687 257C1683.74 257.94 1680.9 259.295 1678 261.062C1676 262.277 1673.98 263.503 1672.04 264.812C1669.25 266.697 1664.03 273.071 1670.15 274.667C1678.93 276.956 1689.16 264.966 1687 257M546 264C547.848 270.222 552.178 273.477 556.335 278.17C560.106 282.426 562.786 286.85 569 286C565.274 277.528 555.645 265.289 546 264M1840 264C1839.01 265.478 1839 265.203 1839 267C1840.77 266.021 1840.96 265.778 1840 264M1288 267C1286.28 270.6 1286.11 273.119 1287 277L1289 277C1289.99 273.65 1290 270.486 1290 267L1288 267M2003 271C2000.69 270.134 1998.47 269.438 1996 269.173C1992.34 268.781 1979.52 269.73 1984.79 276.567C1989.73 282.984 2000.51 276.183 2003 271M1024.13 272.89C1021.07 273.762 1019.23 277.66 1016.91 279.607C1014 282.04 1008.99 282.818 1007.04 286.225C1005.64 288.672 1006.89 291.418 1006.23 294C1005.6 296.461 1003.21 298.321 1002.92 300.852C1002.37 305.516 1010.68 303.581 1013 302.941C1017.25 301.769 1020.14 298.604 1024 296.688C1029.02 294.194 1036.52 291.788 1042 290.529C1045.43 289.742 1051.86 291.14 1053.34 286.867C1054.41 283.768 1051.79 281.702 1048.98 281.514C1043.49 281.145 1035.28 284.133 1030.32 280.821C1027.61 279.016 1028.57 271.622 1024.13 272.89M1065 275C1063.82 277.43 1063.27 279.313 1063 282C1066.29 280.182 1067.28 278.18 1065 275M1045 298C1052.38 295.503 1059.43 292.871 1067 291C1060.9 288.619 1047.31 291.251 1045 298M1327 292L1327 296C1327.71 294.24 1327.71 293.76 1327 292M272 294C274.081 299.369 277.632 302.919 283 305C280.493 300.167 276.959 296.313 272 294M1169 303C1173.83 301.462 1178.45 299.039 1180 294C1173.71 294.187 1169.51 296.324 1169 303M1327 297L1327 304L1329 304L1329 297L1327 297M1674 303C1676.32 304.477 1678.49 305.894 1681 307C1680.68 302.704 1676.32 296.107 1674 303M2003 307C2006.11 309.124 2009.3 308.989 2013 309C2009.79 307.041 2006.69 306.406 2003 307M286 308C287.013 310.485 287.726 311.598 290 313C288.896 310.643 288.044 309.624 286 308M2018 309C2023.36 313.053 2039.89 322.232 2045 315C2035.84 313.653 2027.31 309.741 2018 309M81 310C79.819 314.131 77.9023 317.963 76.436 322C75.6123 324.268 74.8652 326.615 74.4684 329C73.6237 334.077 77.7525 342.735 83.3472 336.681C87.5022 332.185 86.0378 323.6 85.9992 318C85.9854 315.987 86.2798 313.327 84.9969 311.603C83.9734 310.229 82.5252 310.255 81 310M1450 317C1449.97 326.398 1447.78 335.674 1450 345C1452.43 340.943 1451.84 336.578 1452.04 332C1452.27 326.748 1453.53 322.169 1452 317L1450 317M297 319C299.275 322.195 301.439 324.337 305 326C302.725 322.805 300.561 320.663 297 319M360 322C362.458 326.458 367.32 326.392 372 327.335C383.498 329.651 395.339 329 407 329C401.737 325.847 395.781 327.723 390 326.776C379.94 325.128 370.64 319.924 360 322M988 331C994.591 330.786 998.307 327.239 1002 322C995.239 322.144 989.486 323.7 988 331M1596 322C1596.01 326.06 1596.22 329.309 1598 333C1599.6 329.182 1599.55 324.508 1596 322M2044 325C2042.83 333.033 2057.42 335.213 2063 338.71C2071.4 343.975 2079.43 350.203 2087 356.59C2090.66 359.675 2093.93 363.465 2098 366.006C2104.24 369.903 2112.77 372.026 2120 373C2115.32 362.985 2104.75 360.902 2096 355.918C2078.42 345.9 2062.94 332.885 2044 325M415 328C417.086 331.667 420.298 332.56 424 334.32C432.931 338.567 442.952 341.134 453 338.366C457.834 337.034 463.431 335.015 465 330C447.939 326.48 432.177 328.142 415 328M1489 329C1491.25 334.567 1495.18 331.696 1498 328C1494.83 328.008 1492.04 328.1 1489 329M308 329C312.89 335.923 321.036 342.936 329 346C326.171 337.683 316.168 331.403 308 329M1006 337C1008.3 336.326 1008.77 336.035 1010 334C1008.05 334.936 1007.45 335.392 1006 337M496 343C496.932 344.223 497.708 345.665 499.138 346.422C508.102 351.166 508.523 334.838 499.16 340.293C498.061 340.934 496.889 342.213 496 343M1085 340.577C1080.62 341.365 1075.68 344.821 1074.02 349.039C1072 354.21 1075.78 358.279 1081 357.513C1085.6 356.839 1090.18 354.478 1091.99 349.985C1094.07 344.817 1090.82 339.531 1085 340.577M114 369C125.327 368.146 125.244 353.687 135.004 352.148C140.33 351.308 145.714 352.549 151 352.911C159.555 353.496 168.445 353.776 177 353.985C191.649 354.344 206.361 353.398 221 354.039C226.687 354.288 232.323 355.522 238 355.911C257.165 357.223 276.784 357 296 357C289.43 345.032 269.96 349.999 259 350C238.933 350.001 219.025 350.242 199 350.004C189.41 349.89 179.551 350.739 170 349.83C161.9 349.059 152.793 350.03 145 347.467C140.796 346.084 136.863 340.706 132.17 341.427C128.862 341.935 126.192 345.79 123.996 348.001C117.222 354.821 114.006 359.318 114 369M407 344C408.314 345.618 408.877 345.693 411 346C409.457 344.733 408.952 344.511 407 344M1449 347L1449 351C1450.27 349.457 1450.49 348.952 1451 347L1449 347M2105 347C2110.71 357.438 2129.57 364.756 2141 365C2136.99 357.154 2128.18 357.193 2121 353.876C2115.49 351.331 2111.24 347.418 2105 347M6 348C4.43956 350.974 3.49743 353.677 3 357C5.15502 354.329 6.71127 351.438 6 348M481 350C483.743 355.365 496.865 359.723 490 366L490 368C494.961 369.075 499.987 367.647 505 367.17C510.319 366.663 514.962 367.126 520 365C515.693 362.074 511.769 364.545 507.02 363.757C504.896 363.404 502.853 362.357 503.237 359.893C503.593 357.607 505.271 355.226 506 353C501.364 351.938 498.306 355.609 494 355.004C488.688 354.257 486.97 348.9 481 350M1035 352C1028.47 353.007 1023.4 358.951 1019.48 364C1017.99 365.933 1015.62 369.028 1017.66 371.397C1021.39 375.721 1034.43 374.746 1036.3 368.895C1037.69 364.574 1035 356.809 1035 352M1285 353C1285.12 355.73 1285.5 358.314 1286 361C1287.77 358.415 1287.93 356.115 1288 353L1285 353M1449.33 353.667C1449.28 353.722 1449.22 354.778 1449.67 354.333C1449.72 354.278 1449.78 353.222 1449.33 353.667M285 363C286.248 363.685 286.548 363.749 288 364C286.752 363.315 286.452 363.251 285 363M273 364C274.81 365.24 274.777 365.184 277 365C275.494 364.317 274.685 364.174 273 364M1286 366C1286.01 370.93 1286.91 375.222 1288 380C1290.73 375.436 1289.79 370.776 1288 366L1286 366M195 372C201.918 375.88 206.714 374.141 213 370L213 368C206.997 366.84 201.078 371.178 195 372M231 368C234.787 370.855 242.068 370.586 246 368C241.146 366.665 236.025 367.986 231 368M308 381L308 384C321.196 384 333.898 381.613 347 381.039C354.616 380.706 361.64 383.769 369 383.641C376.28 383.514 385.815 378.596 392 375C386.025 370.918 374.845 373.919 368 374.87C347.981 377.651 328.103 379.413 308 381M1966 380L1966 382L1977 383L1977 381L1966 380M2106.67 380.333C2106.22 380.778 2107.28 380.722 2107.33 380.667C2107.78 380.222 2106.72 380.277 2106.67 380.333M1057 381C1050.77 384.466 1044.13 388.351 1041 395C1047 393.563 1057.99 388.437 1057 381M1981 383C1983.04 384.416 1984.51 384.745 1987 385C1985.27 382.331 1984.06 382.29 1981 383M2187 382C2188.25 382.685 2188.55 382.749 2190 383C2188.75 382.315 2188.45 382.251 2187 382M294 390C295.872 395.256 302.339 400.574 308 401.478C311.087 401.971 313.889 400.495 317 401.456C324.137 403.66 330.904 407.782 338 410.308C340.915 411.345 351.621 416.27 353.824 412.397C356.475 407.735 343.779 403.094 341 401.781C336.229 399.527 331.16 396.865 326 395.681C322.709 394.925 319.22 395.332 316 394.302C308.188 391.803 302.46 388.436 294 390M410 391C413.397 396.961 417.119 402.203 424 404C423.439 396.624 416.515 393.062 410 391M1192 405C1198.88 403.669 1207.6 397.73 1210 391C1203.32 392.328 1193.98 398.268 1192 405M1048 416C1053.95 415.741 1059.2 412.919 1065 412.419C1069.1 412.065 1072.86 414.445 1077 413.591C1087.34 411.456 1083.65 400.28 1080 394C1071.02 395.889 1068.5 403.371 1061 407.772C1056.08 410.661 1049.88 409.799 1048 416M1393 469C1395.73 465 1394.57 460.594 1395.21 456C1395.63 452.947 1396.97 450.139 1396.77 447C1396.49 442.615 1394.61 438.401 1394.17 434C1393.43 426.573 1393.36 419.416 1392.3 412C1391.41 405.761 1392.82 399.853 1390 394C1382.26 397.904 1386.91 406.061 1387 413C1387.09 420.552 1386.22 428.513 1387.3 436C1388.9 447.072 1392.11 457.722 1393 469M21 406L21 409C22.1951 407.777 22.3165 407.58 23 406L21 406M21 411L21 418L23 418L23 411L21 411M1209 417C1215.45 420.864 1224.08 418.61 1231 417.199C1234.96 416.392 1238.57 416.094 1240 412C1233.56 412.133 1227.34 413.571 1221 414.561C1216.7 415.232 1212.99 415.08 1209 417M1086 416C1083.98 419.282 1081.41 422.388 1079.99 426C1078.67 429.367 1078.59 432.934 1076.35 435.942C1074.21 438.799 1070.96 440.195 1068 442C1070.52 446.247 1071.1 452.824 1073.99 456.437C1076.95 460.147 1086.44 463.187 1091 464C1092.97 459.867 1096.44 457.4 1099.38 453.961C1103.24 449.468 1106.44 442.672 1112 440.043C1116.91 437.723 1125.41 445.47 1127.56 437.941C1129.83 429.978 1120.79 422.453 1119 415C1113.06 416.229 1107.04 419.865 1101 419.917C1095.77 419.962 1090.94 417.349 1086 416M418 418C421.927 421.795 426.865 421.895 432 423.015C439.429 424.635 445.59 428.561 453 425C447.755 420.065 440.6 421.616 434 420.816C428.473 420.145 423.681 418.048 418 418M1059.03 424.762C1050.29 428.006 1052.3 445.282 1062.61 440.397C1069 437.365 1067.47 421.629 1059.03 424.762M1270 426L1271 427L1270 426M1822 430L1821 434C1822.61 432.55 1823.06 431.948 1824 430L1822 430M171 436C169.821 439.718 169.083 443.092 169 447C173.251 444.516 173.943 439.89 171 436M1819 437C1816.79 438.103 1814.39 440.797 1811.91 441.059C1808.59 441.41 1806.47 439.082 1803 440.602C1797.37 443.065 1793.88 448.465 1789 451.957C1783.56 455.842 1776.27 457.754 1771.47 462.39C1767.99 465.746 1761.08 476.463 1765.03 481.393C1768.88 486.204 1778.83 477.536 1782 475.34C1787.67 471.41 1790.82 465.571 1796.09 461.434C1798.93 459.205 1802.75 459.6 1805.48 457.397C1811.14 452.83 1816.22 443.624 1819 437M1012 441C1014.12 440.101 1014.1 440.124 1015 438C1012.88 438.899 1012.9 438.876 1012 441M1630 463C1639.91 465.813 1651.15 452.832 1658 446.714C1660.92 444.103 1662.95 441.757 1664 438C1655.96 438.828 1649.37 444.571 1643 449.14C1637.6 453.008 1632.22 456.482 1630 463M408 442C409.851 448.44 416.679 450.72 422 454.05C434.521 461.887 446.978 469.833 459 478.427C464.223 482.161 469.183 487.646 476 486C472.295 479.027 464.448 476.332 458 472.316C447.567 465.817 437.233 459.143 427 452.333C421.188 448.465 414.94 443.342 408 442M1191 447L1191 449L1193 449C1192.45 447.365 1192.64 447.545 1191 447M376 450L376 454C385.949 456.059 394.683 459.993 405 460C402.79 456.375 398.958 455.584 395 454.424C388.681 452.573 382.548 450.832 376 450M498 450C501.283 452.855 504.762 452.964 509 453C505.585 450.855 502 450.183 498 450M1194 450L1195 451L1194 450M517 453C520.637 454.937 524.93 455.474 529 456C526.22 452.695 521.08 453.034 517 453M1030 457C1033.19 462.218 1039.17 463.863 1045 464C1041.15 459.512 1035.82 457.511 1030 457M119 461L122 469C125.695 468.533 129.265 468.031 133 468C131.092 461.941 124.46 462.029 119 461M2154.94 465.967C2151.26 466.797 2148.17 469.993 2145 471.871C2139.67 475.029 2133.96 476.54 2129 480.518C2127.34 481.854 2120.27 488.769 2126.15 489.469C2134.31 490.439 2144.07 479.188 2150 474.924C2152.3 473.266 2155.63 471.961 2157.34 469.63C2158.96 467.411 2157.58 465.371 2154.94 465.967M1686 468C1680.23 476.747 1676.67 486.421 1672.57 496C1670.42 501.032 1667.57 505.473 1667 511C1670.87 508.803 1672.32 504.911 1674.24 501C1677.62 494.128 1680.73 487.054 1683.72 480C1685.32 476.217 1687.43 472.018 1686 468z"/>
<path style="fill:#fefefe; stroke:none;" d="M996 480C999.461 486.277 1008.69 485.105 1007 477L996 480z"/>
<path style="fill:#030303; stroke:none;" d="M1078 478C1079.04 484.363 1084.99 485.333 1090 488.174C1095.13 491.081 1099.68 495.027 1104 499C1096.79 501.634 1089.07 501.279 1082 504.143C1074.4 507.224 1072.07 512.138 1066.82 517.985C1064.84 520.183 1061.33 522.287 1060.26 525.126C1058.44 529.943 1067.89 531.865 1071 531.258C1079.21 529.654 1087.33 520.999 1094 516.294C1105.55 508.145 1118.98 500.874 1132 495.546C1136.26 493.802 1141.35 491.407 1144.85 488.367C1146.18 487.207 1147.77 485.396 1146.82 483.51C1144.33 478.541 1136.09 482.067 1133 484.019C1127.74 487.342 1120.46 495.38 1114.09 495.981C1111.03 496.27 1108.53 492.849 1105.99 491.557C1102.12 489.593 1097.8 488.801 1094 486.64C1088.49 483.507 1084.45 479.163 1078 478M1842 485C1848.41 486.521 1858.04 485.999 1862 480C1855.58 480 1844.3 477.431 1842 485M1395 483C1393.04 489.182 1392.32 495.546 1393.46 502C1394.69 508.91 1398.49 514.417 1400.36 521C1402.36 528.055 1400.89 537.406 1397.89 543.981C1393.22 554.212 1385.08 544.808 1378 544.306C1373.17 543.964 1368.75 548.373 1364 546.438C1351.59 541.377 1359.19 528.293 1357.79 519C1357.04 514.049 1353.78 510.015 1353 505L1351 505C1350.84 508.671 1349.94 512.324 1350.1 516C1350.64 528.085 1354.04 543.38 1346.2 553.957C1345.29 555.184 1344.21 556.496 1342.91 557.332C1342.04 557.889 1341.06 558.612 1340 558.762C1331.29 560.002 1336.18 547.669 1329.89 545.89C1325.26 544.581 1323.57 552.132 1319.04 552.248C1316.57 552.312 1315.43 550.141 1315.24 547.981C1314.75 542.597 1316 536.499 1316 531L1312 531C1311.99 538.667 1309.22 544.719 1307.19 552C1306.46 554.616 1306.61 557.461 1305.7 560C1304.55 563.19 1302.18 565.812 1300.96 569C1299.27 573.399 1299.71 579.202 1295.77 582.436C1289.23 587.809 1276.91 581.438 1272.78 592.184C1270.21 598.883 1276.5 605.088 1277.97 611C1278.83 614.437 1276.75 617.807 1275.77 621C1274.55 624.977 1274.23 627.665 1270 629C1269.72 625.83 1269.35 622.028 1267.16 619.51C1264.92 616.943 1260.97 616.574 1258 615.275C1253.26 613.208 1248.32 610.313 1244.01 607.452C1240.26 604.956 1236.15 598.458 1231 599.851C1227.02 600.929 1223.79 605.213 1221 608C1214.02 614.966 1207.16 622.632 1197 624.532C1193.29 625.227 1188.53 625.352 1185.65 622.488C1183.91 620.764 1183.04 618.164 1182 616L1180 616C1178.67 617.753 1177.75 618.67 1176 620C1175.75 617.999 1175.53 615.957 1175.02 613.996C1173.8 609.246 1169.87 605.764 1165.02 608.519C1158.93 611.975 1157.29 620.596 1149 614.566C1137 605.838 1143.73 595.281 1139 584C1134.85 590.931 1140.75 599.459 1136.97 605.852C1134.29 610.392 1128.22 608.33 1124 609.653C1120.03 610.896 1117.31 614.051 1114 616.366C1110.35 618.917 1106.23 620.204 1102 621.424C1099.47 622.154 1096.64 623.377 1094 622.495C1090.06 621.182 1081.4 613.599 1079.56 609.79C1077.83 606.196 1078.08 602.377 1075.57 599.001C1074.06 596.972 1069.7 591.454 1066.61 593.176C1063.07 595.145 1067.21 603.234 1067.67 606C1068.51 611.038 1067.25 616.196 1069.42 621C1072.61 628.076 1079.37 634.652 1078.85 643C1078.37 650.614 1069.04 656.869 1062 657.772C1058.57 658.212 1055.41 657.262 1052 658C1053.17 663.046 1056.22 668.797 1054.26 674C1052.23 679.37 1046.58 682.455 1044.7 688C1041.83 696.507 1044.93 705.568 1044.35 714C1044.03 718.648 1040.11 722.458 1039.96 726.957C1039.83 730.409 1043.5 731.509 1044.89 734.209C1045.81 736.004 1045.46 738.131 1046.17 740C1047.12 742.486 1049.02 744.437 1049.85 747C1051.94 753.425 1047.76 758.248 1044 763C1046.37 765.353 1050.19 764.539 1052.15 766.692C1054.33 769.073 1051.48 774.285 1051 777C1056.26 776.466 1061.05 773.441 1063 780C1052.93 781.279 1043.18 782.866 1033 783.004C1028.55 783.064 1024.57 783.421 1023 788C1033 788 1043.03 786.472 1053 787.043C1058.21 787.342 1062.7 789.875 1068 790C1067.79 794.054 1066.52 797.272 1065 801C1059.93 799.014 1057.73 802.397 1053 801.873C1049.67 801.504 1046.8 798.256 1043.32 800.07C1039.38 802.129 1030.19 810.705 1035.51 815.062C1041.22 819.722 1045.2 813.044 1050.42 813.727C1053.84 814.174 1056.54 817.726 1060 818.581C1062.98 819.318 1066.03 818.432 1069 819.008C1071.49 819.492 1073.52 821.159 1076 821.674C1079.2 822.336 1082.73 821.631 1086 821.884C1089.01 822.118 1094.2 822.244 1095.79 825.419C1098.61 831.071 1089.88 838.312 1090.2 844C1090.51 849.585 1096.21 854.431 1097.47 860C1099.22 867.739 1095.51 878.481 1093.48 885.999C1091.75 892.438 1086.33 892.448 1083.01 897.225C1081.48 899.431 1081.07 902.492 1083.33 904.381C1086.82 907.295 1091.69 903.784 1095 902.312C1099.87 900.148 1103.84 900.046 1109 901C1107.51 907.279 1104.54 912.435 1099 916.031C1096.4 917.719 1089.29 919.58 1089.92 923.755C1090.26 926.012 1093.39 927.335 1095 928.539C1098.26 930.972 1101.17 933.38 1103 937C1100.88 937.899 1100.9 937.876 1100 940C1105.55 939.866 1108.01 943.051 1113 944.1C1118.72 945.304 1129.82 939.43 1133 935C1134.72 935.602 1136.45 936.139 1138.02 937.089C1150.43 944.579 1135.46 954.191 1135 964C1141.61 963.804 1145.11 960.741 1149.58 956.089C1152.06 953.503 1155.97 949.315 1159.98 950.997C1169.82 955.116 1170.07 973.257 1171.09 982C1171.44 985.004 1172.77 987.947 1172.37 991C1171.65 996.455 1164.2 1007.4 1172 1010C1174.09 999.863 1175.9 990.358 1184 983.185C1187.17 980.383 1191.58 977 1195.96 979.194C1204.07 983.261 1197.83 992.452 1198.07 999C1198.21 1002.77 1200.14 1006.66 1196.75 1009.64C1193.03 1012.91 1188.29 1008.35 1184 1009C1188.07 1016.85 1196.19 1022.73 1186.95 1030.77C1185.53 1032 1183.92 1033.06 1182 1033.18C1177.77 1033.42 1173.44 1030.23 1169 1030C1169.58 1039.62 1163.06 1043.33 1155 1046.55C1141.1 1052.11 1127.55 1051.15 1113 1049.13C1107.85 1048.41 1100.49 1048.35 1096.16 1045.15C1092.35 1042.33 1094.61 1037.84 1093.14 1034C1091.29 1029.13 1086.67 1023.66 1082.91 1020.13C1079.82 1017.24 1069.61 1012.83 1068.43 1020.11C1067.65 1024.9 1072.73 1029.86 1074.47 1034C1076.82 1039.58 1073.89 1048.48 1080.06 1051.82C1085.64 1054.84 1092.13 1049.86 1098 1050.1C1113.24 1050.75 1128.13 1053.52 1142 1059.58C1150.91 1063.46 1161.08 1067.38 1163.35 1078C1163.98 1080.96 1163.23 1084.03 1163 1087C1167.37 1086.43 1178.11 1090.24 1174.18 1096.58C1172.35 1099.54 1166.91 1101.23 1164 1103C1169.73 1109.55 1177.29 1110.8 1185 1114.01C1188.27 1115.38 1193.13 1117.14 1194.11 1121.02C1195.4 1126.17 1186.97 1126.24 1184.43 1129.15C1181.17 1132.88 1181.89 1137.68 1180.27 1142C1179.06 1145.21 1176.91 1147.65 1176 1151C1186.97 1149.01 1191.32 1137.54 1204 1141.06C1206.82 1141.84 1209.59 1143.29 1210.93 1146.04C1214.06 1152.46 1207.32 1161.3 1215 1166C1215.41 1164.62 1215.69 1163.23 1216.46 1161.98C1223.81 1149.94 1233.59 1168.54 1236 1175C1238.89 1174.27 1241.48 1173.37 1243.83 1171.44C1248.3 1167.77 1249.95 1162.02 1256 1166C1258.61 1164.25 1262.4 1160.31 1265.69 1162.66C1269.08 1165.09 1268.95 1171.31 1269 1175C1269.13 1186.27 1271.73 1196.05 1274 1207C1283.01 1205.56 1278.31 1195.53 1278.46 1189C1278.54 1185.27 1279.67 1181.56 1277.99 1178C1276.06 1173.94 1268.43 1167.99 1275.07 1164.32C1286.4 1158.07 1298.45 1173.44 1301.35 1183C1302.04 1185.28 1301.94 1187.67 1302.3 1190C1302.74 1192.85 1305.12 1203.31 1309.73 1201.65C1312.2 1200.76 1311.96 1197.03 1311.67 1195C1310.97 1190.12 1307.37 1183.78 1310.61 1179.18C1313.97 1174.41 1321.17 1170.38 1327 1170.34C1331.1 1170.31 1335.99 1172.12 1339.56 1169.14C1342.22 1166.93 1340.99 1163.9 1341.75 1161C1342.83 1156.91 1346.16 1154.13 1350 1153C1349.56 1156 1348.4 1158.98 1348.23 1162C1347.72 1170.94 1358.48 1172.47 1365 1169.77C1368.66 1168.26 1371.64 1165.49 1375 1163.46C1377.02 1162.25 1379.54 1160.63 1382 1160.71C1387.12 1160.88 1389.78 1167.25 1392 1171C1396.51 1169.47 1399.62 1165.91 1404 1164.14C1414.42 1159.94 1425.86 1157 1436 1152.08C1439.87 1150.21 1442.82 1146.21 1447 1145.07C1449.99 1144.25 1452.98 1145.67 1456 1145.5C1461.66 1145.18 1468.44 1144.39 1474 1143.18C1477.39 1142.44 1480.26 1141.16 1482.83 1138.79C1484.69 1137.07 1486.38 1134.1 1489.04 1133.54C1492.48 1132.82 1496.66 1137.09 1500 1138C1499.11 1133.27 1496.6 1126.74 1497.52 1122C1498.22 1118.41 1502.66 1111.64 1506.18 1110.29C1508.5 1109.4 1511.25 1111.39 1513.4 1109.92C1515.7 1108.34 1514.71 1104.44 1516.03 1102.21C1518.06 1098.8 1522.62 1098.04 1525.05 1094.87C1528.22 1090.72 1530.91 1085.68 1533.22 1081C1534.35 1078.72 1535.42 1075.27 1537.85 1074.02C1542.16 1071.81 1547.83 1080.1 1552.24 1075.39C1556.14 1071.22 1548.7 1068.02 1547.39 1064.82C1546.5 1062.64 1547.48 1060.14 1548 1058C1542.97 1057.72 1529.9 1050.81 1537.32 1044.86C1542.4 1040.79 1549.43 1045.47 1553 1039C1549.61 1037.58 1545.8 1036.03 1543.6 1032.9C1541.08 1029.29 1542.14 1024.14 1541.96 1020C1541.79 1015.99 1540.62 1012.03 1541.21 1008C1542.09 1002.07 1546.32 993.938 1549.7 989.004C1552.6 984.768 1561.66 981.458 1562.12 976.043C1562.8 967.939 1548.7 976.318 1545.62 973.357C1542.69 970.546 1545 961.174 1543.52 957C1540.77 949.273 1530.44 947.286 1529.15 939C1527.85 930.676 1530.27 922.985 1531.99 915C1532.59 912.188 1534.05 907.267 1531.97 904.746C1527.8 899.69 1518.67 909.109 1515 911C1514.21 908.51 1512.92 905.649 1513.7 903.004C1515.12 898.125 1522.99 892.865 1528 892.769C1534.27 892.65 1540.55 896.705 1547 897C1539.21 889.471 1522.9 892.415 1518.78 880C1515.12 868.952 1530.82 867.981 1535.16 861.892C1538.31 857.471 1543.17 849.63 1542.76 844C1542.51 840.579 1537.26 836.559 1538.92 833.318C1541.44 828.399 1551.98 832.314 1554.57 835.228C1557.45 838.477 1557 842.966 1557 847C1561.8 845.729 1566.17 844.207 1570.96 846.572C1577.54 849.82 1582.33 856.508 1589 860.135C1596.95 864.455 1606.43 867.986 1615 870.921C1618.76 872.208 1623.76 872.37 1626.68 875.314C1628.7 877.345 1629.14 880.385 1630 883C1631.22 882.495 1632.71 881.657 1634.04 881.439C1635.03 881.277 1635.99 881.098 1637 881.333C1637.92 881.549 1639.02 881.784 1639.81 882.362C1645.41 886.49 1634.05 890.332 1639.34 893.976C1642.06 895.85 1645.95 894.55 1648.98 895.316C1651.78 896.022 1653.25 897.879 1655 900C1662.34 897.295 1664.36 902.455 1668.15 908C1669.87 910.507 1672.83 913.663 1671.17 916.895C1665.94 927.117 1646.19 922.425 1644 936C1655.56 935.399 1663.49 922.478 1675 922.557C1681.92 922.605 1687.15 932.292 1683.72 938C1680.48 943.393 1675.58 947.134 1673 953C1682.05 952.505 1685.9 944.167 1694 941.666C1697.1 940.71 1699.93 942.279 1703 942.514C1707.97 942.894 1713.24 944.98 1713.5 951C1713.71 955.785 1711 960.869 1711 966C1715.04 963.666 1718.63 959.204 1723 957.662C1726.02 956.597 1729.52 958.718 1729.75 962.015C1729.95 964.951 1727.38 967.474 1726.29 970C1725.1 972.747 1725.5 975.157 1726 978C1734.11 976.43 1738.93 968.55 1747 966.883C1750.91 966.075 1754.36 968.015 1758 969.099C1761.29 970.078 1764.72 969.711 1768 970.637C1771.43 971.607 1774.35 973.63 1778 973.88C1782.81 974.209 1787.47 969.887 1791.98 970.955C1797.15 972.178 1798.15 981.793 1802.96 981.793C1808.07 981.793 1803.67 970.464 1807.19 967.742C1811.32 964.543 1817.29 966.743 1820.35 970.329C1825.84 976.753 1826.85 987.322 1830 995C1840.04 990.434 1832.36 984.748 1829.16 978C1827.66 974.822 1827.28 969.405 1828.6 966.09C1833.06 954.905 1848.39 958.473 1857 954.991C1860.76 953.468 1864.58 947.785 1869 949.327C1875.44 951.577 1878.58 960.007 1885 963C1886.28 959.958 1886.85 957.297 1887 954C1877.51 949.427 1880.53 936.375 1887.1 930.214C1890.24 927.276 1894.13 926.133 1898 924.548C1901.02 923.31 1905.27 921.808 1906.96 918.787C1909.43 914.369 1905.22 909.44 1904.99 905C1904.62 897.958 1913.42 889.757 1920.04 888.603C1923.19 888.054 1926.93 889.366 1930 890.003C1938.22 891.709 1946.2 894.319 1954 897.399C1958.43 899.149 1964.06 901.836 1966 896C1956.91 893.761 1947.93 892.309 1939 889.333C1933.69 887.564 1928.4 885.641 1923 884.152C1920.23 883.389 1916.54 882.962 1914.62 880.57C1911.33 876.465 1916.98 872.032 1917.65 868C1918.34 863.893 1914.47 859.977 1916.13 856.04C1917.76 852.199 1922.74 849.879 1926 847.656C1935.82 840.97 1945.87 835.979 1958 835.09C1965.33 834.553 1972.81 836.515 1980 835.877C1982.54 835.65 1986.09 834.323 1985.25 831.065C1983.71 825.108 1972.47 827.329 1968 825.907C1956.01 822.092 1931.54 805.283 1921.71 822.093C1919.5 825.876 1923.44 829.114 1922.36 832.852C1920.27 840.095 1910.88 833.629 1911.15 827.999C1911.41 822.653 1916.44 814.894 1920.11 811.17C1922.22 809.023 1927.66 805.944 1927.08 802.318C1926.58 799.194 1921.91 800.614 1920 800.911C1915.33 801.638 1911.49 800.715 1910 796C1909.19 796.124 1907.77 796.501 1906.86 796.433C1897.22 795.707 1910.29 785.129 1906.93 780.782C1904.31 777.395 1897.39 781.941 1894 781.498C1890.08 780.985 1882.09 774.565 1879.13 771.772C1871.78 764.814 1877.27 758.693 1884 754.093C1892.23 748.467 1899.11 741.909 1907 735.899C1911.6 732.396 1917.29 729.823 1919 724C1911.35 725.48 1905.59 731.856 1900 736.925C1892.46 743.761 1884.57 749.986 1874 750.796C1869.45 751.145 1867.76 747.733 1863.83 746.808C1860.25 745.966 1857.51 748.525 1854.22 745.667C1851.35 743.167 1850.48 739.588 1851.32 736C1851.92 733.458 1854.13 729.122 1851.39 727.043C1846.73 723.506 1843 730.651 1842 734C1839.69 733.543 1836.34 733.337 1834.69 731.411C1832.97 729.391 1834.04 726.389 1833.74 724C1833.16 719.431 1831.05 715.773 1831 711C1817.51 709.961 1819.4 692.326 1819.89 683C1820.03 680.312 1819.15 677.669 1819.39 675C1819.77 670.876 1822.59 666.202 1819.26 662.449C1814 656.53 1806.7 668.689 1802 670.214C1797.24 671.757 1791.24 667.543 1789.91 662.996C1789.06 660.092 1789.82 656.99 1789 654C1782.74 654.821 1779.56 648.563 1774 649.478C1768.32 650.411 1766.11 656.967 1760.96 658.188C1758.47 658.777 1755.27 657.385 1753 656.451C1745.7 653.444 1744.44 643.797 1735.96 642.228C1731.13 641.334 1725.51 642.164 1721 643.992C1718.44 645.031 1715.13 648.505 1712.21 647.656C1709.88 646.98 1707.83 643.545 1706 642C1704.43 649.133 1705.67 661.426 1694.04 659.352C1692.42 659.062 1691.28 657.911 1690 657L1694 655L1694 653C1692.39 651.55 1691.94 650.949 1691 649C1685.48 650.842 1681.3 656.385 1676 659C1675.99 654.684 1674.12 643.355 1667.65 650.319C1664.92 653.261 1665.03 657.811 1661.77 660.411C1658.18 663.277 1651.42 663.986 1647 665C1648.3 656.643 1657.56 651.146 1658.06 643C1658.28 639.322 1654.02 633.487 1650 633.917C1646.45 634.297 1643.02 638.381 1640 640.12C1633.16 644.055 1622.88 646.822 1617.32 652.419C1611.36 658.41 1618.29 664.301 1624 666L1624 668C1618.71 669.244 1611.76 668.794 1607.32 665.157C1605.46 663.635 1605.46 661.307 1603.99 659.602C1602.26 657.596 1598.43 657.587 1596 657C1598.92 654.506 1603.04 652.392 1605.38 649.336C1608.73 644.944 1603.13 644.257 1600.02 644.888L1595 646C1595.57 643.566 1596.48 640.625 1594.97 638.318C1590.89 632.082 1576.82 638.369 1574 643C1571.09 642.529 1562.6 644.994 1561.16 642.577C1559.89 640.447 1561.72 636.315 1562 634C1555.88 636.342 1551.14 634.806 1545 636L1541 626C1533.66 628.094 1530.09 628.701 1523 624.981C1519.55 623.172 1513.19 617.317 1509.21 617.917C1506.22 618.369 1502.77 623.365 1500 625C1499.1 618.9 1502.02 616.802 1507 614L1507 612C1503.28 609.699 1501.26 608.513 1497 610C1498.59 606.203 1501.04 603.045 1502 599C1498.62 599.238 1494.22 600.331 1491.6 597.482C1489.07 594.722 1490 589.43 1490 586C1490 576.547 1490.1 567.377 1491.42 558C1491.89 554.696 1494.88 545.39 1491.4 543.086C1488.23 540.994 1485.14 545.474 1484.43 548.005C1483.62 550.933 1484.37 554.068 1483.57 557C1482.07 562.442 1475.76 567.257 1470 566.678C1457.99 565.472 1464.32 548.574 1456 544C1454.06 549.571 1452.58 555.849 1449.58 560.976C1448.38 563.034 1446.64 565.103 1444 564.364C1439.16 563.012 1439.02 556.035 1434.73 554.812C1431.92 554.015 1428.93 556.152 1426 555.654C1421.24 554.843 1411.05 547.802 1409.79 542.961C1408.71 538.807 1412 534.29 1411.7 530C1411.31 524.426 1407.52 519.808 1408.34 514C1408.88 510.166 1414.4 502.827 1412.75 499.361C1411.34 496.415 1406.75 498.969 1404.42 497.292C1399.12 493.483 1402.18 485.26 1395 483M1349 486C1350.53 491.794 1349.69 497.282 1351 503L1353 503C1354.85 497.339 1357.69 492.002 1358 486L1349 486z"/>
<path style="fill:#fefefe; stroke:none;" d="M593.589 488.047C590.444 490.46 593.697 497.228 597.4 494.863C600.856 492.656 597.508 485.04 593.589 488.047z"/>
<path style="fill:#030303; stroke:none;" d="M2063 509C2071.89 508.01 2083.65 495.763 2085 487C2080.54 487.748 2078.35 490.85 2075 493.676C2069.48 498.321 2064.21 501.398 2063 509M542 488C544.479 492.258 549.421 492.95 554 494C551.438 489.072 547.279 488.124 542 488M507.044 499.667C501.103 500.942 501.9 507.577 503.313 511.985C505.928 520.139 512.928 527.571 521.982 525.656C528.449 524.288 529.154 516.273 526.991 511.004C524.679 505.371 513.284 498.327 507.044 499.667M26 505L26 507C30.266 507.82 33.1849 506.997 37 505C33.3932 503.487 29.7406 504.109 26 505M554 510L559 509C556.587 507.338 555.608 507.556 554 510M442 511C445.019 516.808 452.198 518.174 458 520.319C472.693 525.751 487.807 530.088 503 533.676C508.968 535.085 519.622 539.196 524 533C512.576 532.098 500.875 530.171 490 526.64C481.421 523.855 473.754 519.369 465 516.859C458.039 514.863 449.135 509.261 442 511M1697 512L1697 514C1698.64 513.455 1698.45 513.635 1699 512L1697 512M1928 521.627C1922.28 522.218 1917.92 526.128 1913 528.573C1909.38 530.373 1905.38 530.908 1902.17 533.558C1898.67 536.453 1896.44 540.571 1892.96 543.532C1888.68 547.178 1883.5 549.453 1879.01 552.786C1875.39 555.474 1872.86 559.273 1868.99 561.648C1865.14 564.004 1860.76 565.444 1857.02 567.966C1853.21 570.527 1846.75 581.053 1855.06 582.589C1863.11 584.076 1869.82 575.01 1876 571.678C1878.86 570.135 1882.13 571.044 1885 569.421C1894.81 563.877 1903.44 553.49 1912 546.13C1918.12 540.872 1926.26 536.49 1931.68 530.624C1935.18 526.845 1933.7 521.036 1928 521.627M1760 534C1765.52 532.859 1767.51 529.173 1769 524C1764.45 526.126 1761.62 529.241 1760 534M1152 528C1155.04 530.164 1158.31 530.698 1162 531C1158.96 528.836 1155.69 528.302 1152 528M1164 531C1167.72 533.229 1171.76 532.997 1176 533C1172.4 530.539 1168.24 531 1164 531M1539 531.902C1533.63 533.734 1525.68 540.862 1523.33 546C1519.9 553.512 1528.61 555.037 1534 553.347C1539.22 551.712 1546.35 545.528 1547.52 540C1548.57 535.06 1543.99 530.199 1539 531.902M438 532C439.483 540.19 445.399 547.529 454 548C451.687 540.214 445.114 535.38 438 532M472 534C473.58 533.317 473.777 533.195 475 532C473.42 532.684 473.223 532.805 472 534M467 533C468.248 533.685 468.548 533.749 470 534C468.752 533.315 468.452 533.251 467 533M1500 535L1500 537L1503 537L1503 535L1500 535M381.518 540.028C378.254 542.422 380.491 546.236 383.062 548.005C386.977 550.698 399.593 554.832 403.678 551.393C407.152 548.468 404.878 543.93 401.891 541.703C397.911 538.736 385.822 536.871 381.518 540.028M1960.96 541.851C1958.05 541.822 1955.19 544.022 1953 545.683C1947.06 550.175 1936.66 556.38 1933.18 563.015C1930.8 567.527 1930.12 576.16 1937.02 576.663C1945.58 577.287 1950.79 562.149 1956.01 557.04C1958.67 554.448 1963.09 552.198 1964.78 548.816C1966.27 545.816 1964.54 541.886 1960.96 541.851M410 543C413.827 546.868 418.598 548.72 424 549C420.117 544.317 415.939 543.054 410 543M1636 566C1642.44 565.434 1650.61 562.672 1654.23 556.945C1655.49 554.966 1657.19 551.739 1655.3 549.607C1652.84 546.82 1648.47 549.199 1646 550.63C1639.41 554.45 1636.09 558.314 1636 566M1302 554L1302 556L1304 556C1303.45 554.365 1303.64 554.545 1302 554M8 557C11.9596 561.487 17.8678 562.074 23 559C18.3798 556.097 13.1994 555.466 8 557M362 559C364.314 560.591 366.19 560.858 369 561L369 559L362 559M1111 564C1114.96 572.094 1125.64 575.466 1134 573C1130.44 565.769 1118.58 562.527 1111 564M1206 565C1202.24 569.59 1200.48 574.093 1200 580C1204.36 576.573 1207.73 570.639 1206 565M1247 582C1244.51 574.71 1237.3 571.417 1231 567.7C1229.06 566.554 1225.01 563.998 1223.09 566.579C1221.13 569.206 1225.27 571.946 1227.02 573.135C1233.04 577.231 1239.74 580.913 1247 582M1072 570C1074.11 572.292 1076.19 573.657 1079 575C1077.28 571.966 1075.32 570.995 1072 570z"/>
<path style="fill:#fefefe; stroke:none;" d="M533 575C533.555 576.43 533.945 577.758 534.892 579.001C541.233 587.326 547.489 581.842 555 579C556.677 582.277 558.583 583.663 562 585C562.511 583.268 562.947 581.81 562.922 579.975C562.726 565.429 541.052 572.715 533 575z"/>
<path style="fill:#030303; stroke:none;" d="M349 576C350.454 580.755 354.574 583.214 359 585.199C360.712 585.967 363.579 587.344 365.338 585.93C369.772 582.366 359.085 578.2 357 577.666C354.365 576.991 351.669 576.518 349 576M987 576C989.815 581.724 995.994 583.506 1001 587.043C1005.92 590.522 1009.75 595.283 1015 598.319C1017.38 599.693 1023.56 603.447 1025.91 600.258C1028.64 596.562 1020.07 593.216 1018 591.935C1008.28 585.93 998.832 577.04 987 576M2082 587C2090.97 591.318 2099.04 586.348 2108 584.515C2112.52 583.589 2117.29 585.151 2119 580C2110.63 581.128 2102.43 582.014 2094 582.83C2089 583.314 2085.52 583.01 2082 587M459.299 584.176C455.842 585.873 457.796 592.103 461.581 589.762C464.565 587.917 462.854 582.43 459.299 584.176M119 585C119.684 587.209 120.08 587.703 122 589L121 585L119 585M295 586C298.634 591.99 305.353 593.941 312 594C308.753 587.4 301.832 586.142 295 586M57 587L56 591C57.6275 589.283 57.9535 589.101 57 587M0.333333 588.667C0.277737 588.722 0.222221 589.778 0.666667 589.333C0.722263 589.278 0.77778 588.222 0.333333 588.667M323 590C320.007 593.813 316.316 596.932 311.83 598.93C309.492 599.971 305.883 599.698 304.624 602.318C299.77 612.418 310.118 618.841 314.13 626.104C315.394 628.394 314.264 630.619 314.847 632.981C315.818 636.91 319.539 637.739 323 638C321.739 634.465 321.879 631.919 326.02 630.667C330.765 629.233 335.305 632.906 340 631.243C342.723 630.279 344.744 628.074 347 626.375C349.62 624.402 353.071 623.181 355.182 620.61C361.093 613.409 359.588 604.579 351.999 599.723C349.035 597.826 345.314 596.824 342 595.695C335.624 593.524 329.307 592.587 323 590M40 593C38.6706 595.75 38.1535 597.95 38 601C41.0762 599.006 41.3829 596.332 40 593z"/>
<path style="fill:#fefefe; stroke:none;" d="M1284 596C1284.47 597.341 1284.73 598.729 1285.74 599.812C1293.48 608.064 1299.58 590.898 1288.04 593.975C1286.6 594.361 1285.28 595.282 1284 596z"/>
<path style="fill:#030303; stroke:none;" d="M1507 597L1507 604C1509.82 602.177 1509.9 600.285 1510 597L1507 597M531.975 602.971C526.489 604.199 527.089 612.341 532.946 611.029C537.85 609.931 537.28 601.783 531.975 602.971z"/>
<path style="fill:#fefefe; stroke:none;" d="M556 602C555.506 605.137 555.964 606 559 607L558 602L556 602z"/>
<path style="fill:#030303; stroke:none;" d="M1993.94 607.677C1989.12 608.081 1983.33 615.488 1991.02 614.713C1994.99 614.313 2000.33 607.143 1993.94 607.677M1738 616C1741.73 615.322 1744.1 614.342 1746 611C1742.15 611.516 1739.9 612.565 1738 616M1670 614C1673.04 616.303 1676.27 615.997 1680 616C1677.42 612.631 1673.86 613.545 1670 614M1694 615C1695.75 616.255 1696.86 616.614 1699 617C1697.46 615.197 1696.4 615.168 1694 615z"/>
<path style="fill:#fefefe; stroke:none;" d="M1167 618C1166.01 619.479 1166 619.203 1166 621C1167.77 620.021 1167.96 619.778 1167 618z"/>
<path style="fill:#030303; stroke:none;" d="M1816 618C1812.75 618.002 1809.02 617.596 1806.04 619.179C1802.36 621.142 1797.79 628.612 1801.75 632.353C1803.84 634.334 1806.99 632.769 1808.91 631.346C1813.2 628.165 1815.47 623.158 1816 618M289 625C292.697 626.552 297.017 626 301 626C297.181 623.395 293.362 624.449 289 625M279 628L284 627C281.7 626.084 280.623 626.121 279 628M270 627C271.769 627.779 273.036 627.912 275 628C273.231 627.221 271.964 627.088 270 627M248 630C251.039 629.276 253.878 629.026 257 629C253.911 627.704 250.307 627.359 248 630M1681 632L1681 634C1682.63 633.455 1682.45 633.635 1683 632L1681 632M522 642C526.579 640.678 530.041 638.77 533 635C527.897 635.568 524.966 637.891 522 642M2119 635C2117.56 642.917 2121.01 646.517 2128 650C2127.81 643.907 2124.27 640.37 2122 635L2119 635M1833 637L1833 639C1836.01 639.472 1836.85 639.166 1839 637C1836.54 636.354 1835.46 636.354 1833 637z"/>
<path style="fill:#fefefe; stroke:none;" d="M1537 640C1536.02 643.674 1536.2 645.74 1540 647C1539.95 644.471 1539.72 642.418 1539 640L1537 640z"/>
<path style="fill:#030303; stroke:none;" d="M492.333 641.667C492.278 641.722 492.222 642.778 492.667 642.333C492.722 642.278 492.778 641.222 492.333 641.667M265 652C268.402 650.929 269.282 649.456 270 646C266.205 646.827 265.304 648.171 265 652M331 653L331 655C336.67 656.672 342.191 654.964 348 655.005C353.336 655.042 358.712 657.062 364 656.722C367.953 656.468 371.144 653.86 375 653.224C379.691 652.45 384.349 653.95 389 653.447C394.453 652.857 399.483 650.283 405 650.041C410.641 649.794 418.72 650.09 424 652.148C427.206 653.398 429.657 656.67 432.945 657.507C436.911 658.516 438.145 652.945 437.812 650.059C437.606 648.281 436.811 646.796 434.852 646.708C431.476 646.555 428.418 649.297 425 649.487C421.045 649.707 417.03 648.053 413 648.004C403.695 647.89 393.144 645.737 384 647.329C377.111 648.528 371.129 652.613 364 652.96C353.325 653.48 341.279 649.962 331 653M1617 646L1616 648L1618 648C1618 646.147 1618.3 646.65 1617 646z"/>
<path style="fill:#fefefe; stroke:none;" d="M1730 647C1729.21 647.303 1727.95 647.508 1727.28 648.185C1723.05 652.436 1729.98 656.52 1730.56 650.14C1730.65 649.195 1730.17 647.835 1730 647z"/>
<path style="fill:#030303; stroke:none;" d="M94 649L95 650L94 649z"/>
<path style="fill:#fefefe; stroke:none;" d="M1553 650L1553 652L1556 652L1556 650L1553 650z"/>
<path style="fill:#030303; stroke:none;" d="M568 663C567.078 660.905 566.199 658.848 564.606 657.143C561.534 653.855 555 652.499 551.747 656.434C548.667 660.159 551.973 664.163 556.005 664.732C557.672 664.967 559.352 664.649 560.998 664.421C563.419 664.085 565.67 663.708 568 663M284.667 670.333C284.222 670.778 285.278 670.722 285.333 670.667C285.778 670.222 284.722 670.278 284.667 670.333M204 671C203.014 672.479 203 672.203 203 674L207 675C206.064 673.051 205.608 672.45 204 671M260 675C255.555 675.86 245.125 681.489 249.071 687.638C252.467 692.931 257.677 683.566 258.612 681.005C259.335 679.025 259.694 677.071 260 675M192 694C196.972 689.443 199.499 683.484 201 677C195.01 680.114 193.433 687.804 192 694z"/>
<path style="fill:#fefefe; stroke:none;" d="M1814 678C1812.75 678.069 1811.26 677.966 1810.06 678.434C1803.05 681.169 1809.95 688.044 1813.4 681.897C1814.03 680.771 1813.91 679.213 1814 678z"/>
<path style="fill:#030303; stroke:none;" d="M1859 678L1858 680L1860 680C1860 678.147 1860.3 678.65 1859 678M1939 681C1938.04 682.516 1937.61 683.339 1937 685C1939 683.753 1939.82 683.263 1939 681M39 682C41.6762 689.228 48.3919 690.074 55 692.036C69.4829 696.336 84.7664 703.336 100 704C98.0801 700.491 94.2472 697.073 90 696.793C86.8069 696.583 84.2467 697.87 81 696.88C66.7982 692.549 54.3419 682.669 39 682M453 691C454.99 694.069 457.452 693.981 461 693.999C467.983 694.036 476.319 694.975 483 693C478.341 690.908 473.91 691.77 469 691.53C463.467 691.26 458.601 690.76 453 691M96.6667 693.333C96.2222 693.778 97.2777 693.722 97.3333 693.667C97.7778 693.222 96.7222 693.278 96.6667 693.333M256 693.771C249.85 695.615 242.264 702.944 240.253 709.001C238.412 714.547 241.547 720.119 248 718.257C254.594 716.355 262.174 706.417 264.098 700.015C265.538 695.225 260.051 692.556 256 693.771M466 708C475.579 707.999 482.279 705.52 491 701.877C496.051 699.767 500.01 699.664 502 694C489.945 696.271 474.328 697.95 466 708M1844 718C1847.57 715.974 1849.5 713.047 1852.18 709.999C1856.23 705.403 1862.96 700.643 1862 694C1854.71 697.398 1843.49 709.505 1844 718M113 696L114 697L113 696M13 704C14.4091 706.564 15.4028 707.67 18 709C16.6759 706.313 15.6866 705.324 13 704M445 715L445 717C451.973 718.347 459.251 712.518 465 709C459.171 707.277 450.067 712.119 445 715M69 709L70 710L69 709M66 711L64 715C66.249 713.846 66.8465 713.249 68 711L66 711M2188 716C2189.51 716.683 2190.31 716.826 2192 717C2190.49 716.317 2189.69 716.174 2188 716M406 751C416.841 750.533 426.506 746.024 437 744.326C443.45 743.283 448.004 747.983 454 747.678C458.384 747.456 462.124 744.064 466 742.349C470.746 740.249 475.973 739.86 481 738.789C489.691 736.938 505.917 733.477 510 725C514.88 725.906 519.142 726.157 524 725L524 723C519.891 721.785 513.158 720.816 509.209 723.023C506.432 724.575 505.318 727.227 501.957 727.867C487.68 730.582 473.21 732.204 459 735.529C450.782 737.451 443.47 740.38 435 741.754C426.839 743.077 411.057 743.612 406 751M13 726L13 728L15 728L15 726L13 726M178 738C179.751 739.255 180.857 739.614 183 740C181.25 738.745 180.143 738.386 178 738M546 760C552.664 761.624 566.416 754.937 568.248 747.734C570.258 739.833 558.122 745.897 556 747.529C554.235 748.887 552.589 750.413 551.044 752.015C548.661 754.484 547.094 756.783 546 760M499 747C497.814 748.186 497.472 748.584 497 750C498.994 749.153 499.699 748.993 499 747z"/>
<path style="fill:#fefefe; stroke:none;" d="M661 747C660.575 752.382 660 757.579 660 763C663.234 763.627 667.663 765.368 670.906 764.307C675.04 762.955 676.704 757.701 674.253 754.21C671.447 750.213 665.606 747.831 661 747z"/>
<path style="fill:#030303; stroke:none;" d="M105 749C110.634 756.434 127.712 754 136 754C130.589 744.643 113.84 748.302 105 749M494.667 750.333C494.222 750.778 495.278 750.722 495.333 750.667C495.778 750.222 494.722 750.278 494.667 750.333M143 752C144.248 752.685 144.548 752.749 146 753C144.752 752.315 144.452 752.251 143 752M154 752C156.968 755.899 162.503 755 167 755C163.225 751.91 158.72 752.013 154 752z"/>
<path style="fill:#fefefe; stroke:none;" d="M685 769C681.227 772.601 681.014 775.964 681 781C685.851 779.312 686.846 773.441 685 769z"/>
<path style="fill:#030303; stroke:none;" d="M290 781L294 781C294 779.203 293.986 779.479 293 778C290.876 778.899 290.899 778.876 290 781M0 779L0 786C6.45732 788.033 9.37786 798.792 10 805C6.57822 804.972 3.36322 804.625 0 804L0 1121C4.03469 1121.5 9.25154 1120.51 13 1121.78C19.2512 1123.9 26.0513 1132.47 29.3009 1138C32.9977 1144.29 33.2261 1152.86 40 1157C38.0923 1148.97 33.8596 1140.59 30.6373 1133C29.2488 1129.73 26.3155 1126.57 25.7971 1123C25.1373 1118.45 32.8353 1111.37 37 1110.54C39.6299 1110.01 41.9403 1112.18 44 1113.46C49.0425 1116.58 55.1422 1117.36 60 1120.65C64.8764 1123.95 70.4716 1129.69 73 1121C63.0593 1120.48 53.4401 1111.38 55 1101L60 1102C61.4933 1094.33 64.9116 1085.94 70.213 1080.04C72.9269 1077.02 76.5506 1075.65 79.5054 1073.03C82.382 1070.49 84.845 1066.25 86.8711 1063C89.816 1058.28 91.0508 1047.64 97.0941 1045.85C102.298 1044.31 106.265 1051 110 1053.4C113.618 1055.72 118.804 1056.05 123 1055.98C130.819 1055.84 138.314 1052.12 146 1051.5C148.783 1051.28 152.069 1053.43 154.672 1051.92C156.759 1050.71 156.743 1047.93 157.87 1046.04C159.661 1043.04 162.761 1041.44 166 1040.44C171.249 1038.84 182.774 1039.95 185.972 1045.23C187.737 1048.14 186.727 1051.94 186 1055C192.713 1059 194.257 1062.89 185 1063C186.621 1068.02 193.564 1070.4 197.999 1072.88C199.569 1073.75 202.701 1075.23 203.658 1072.66C204.508 1070.38 202.001 1067.78 200.95 1066C198.849 1062.43 197.043 1058.05 199.18 1054.05C201.326 1050.04 205.41 1049.98 208.895 1047.86C211.566 1046.23 212.782 1043.74 214 1041L216 1041L217 1042C215.74 1047.29 214.655 1055.82 217.988 1060.61C221.054 1065.02 230.215 1066.85 231.461 1059.98C232.516 1054.17 226.514 1050.97 223.727 1046.91C221.155 1043.16 219.556 1037.46 219 1033C226.908 1035.31 232.482 1040.82 241 1041C237.066 1036.41 231.053 1034.41 226.005 1031.19C224.174 1030.02 221.207 1028.45 221.207 1025.91C221.207 1019.3 232.526 1017.94 236.957 1016.24C243.801 1013.61 245.772 1004.98 253 1002.15C259.221 999.712 268.76 1004.26 273.667 999.427C280.131 993.064 265.469 983.727 275.109 976.995C279.1 974.207 286.21 972.222 291 973.513C294.096 974.347 297.377 977.563 300.772 976.342C304.014 975.176 304.202 970.825 302.987 968.143C301.362 964.558 296.385 962.473 293 961C292.263 963.239 291.901 966.611 289.683 967.932C286.866 969.61 282.845 967.589 280 966.898C272.164 964.996 265.413 962.863 266.419 953C266.788 949.385 268.918 946.379 270.021 943C271.61 938.13 270.62 934.628 276.005 932.015C279.723 930.21 292.213 934.284 293.079 928.826C293.844 924.001 281.305 921.275 278 920C278.868 917.645 279.574 915.469 280 913C276.874 913.732 274.128 915.778 271 916.317C265.991 917.181 256.705 912.562 256.287 906.998C256.122 904.797 257.523 902.145 258 900C249.483 899.976 241.56 896.79 240.651 887C240.369 883.962 244.408 878.358 241.381 876.047C238.458 873.815 233.601 877.735 231 879C229.145 874.578 227.277 871.34 223 869L223 867C228.654 864.114 236.809 858.778 237.852 852C238.825 845.677 236.478 843.638 232.529 839.52C229.193 836.041 228.247 832.894 223 835L221 830C226.414 829.44 229.363 827.588 230 822C226.084 821.505 221.856 820.33 218.059 822.009C212.14 824.627 215.267 829.013 220 830C217.132 836.371 212.821 839.421 207 843C209.816 846.227 218.274 848.197 218.253 853.043C218.242 855.7 215.991 858.591 215 861C223.047 865.335 213.264 871.558 211.607 864.14C211.397 863.198 211.863 861.839 212 861C207.583 860.599 204.819 859.467 202 856L197 859C198.232 856.51 200.111 854.624 201 852C198.216 851.942 195.709 851.648 193 851C196.453 842.28 188.249 844.463 186 851C187.753 852.33 188.67 853.247 190 855L182 857C181.738 854.572 181.738 852.428 182 850C175.805 850.977 173.995 858.744 168 859.083C161.74 859.437 160.435 851.692 155.816 849.194C152.081 847.174 147.817 849.505 144 850.008C140.113 850.52 135.324 849.215 132.005 847.146C129.887 845.825 127.406 843.694 127.256 840.999C127.019 836.744 131.942 834.102 133.837 830.83C137.744 824.086 140.466 815.23 143.688 808C145.242 804.512 148.025 796.564 142.656 794.662C138.215 793.089 134.863 799.178 131 800.227C128.435 800.923 125.629 799.922 123 800.224C113.819 801.279 104.256 802.765 95 800.214C91.9495 799.374 87.7019 798.092 85.6034 795.582C82.9168 792.368 85.1622 785.615 78.9807 786.449C71.5426 787.453 65.6538 793.738 58 794.684C55.8402 794.951 50.5583 793.436 49.1759 795.603C47.7693 797.809 51.8472 801.418 53 803C41.6936 805.167 39.4331 793.79 35 786C32.0513 793.229 39.915 802.974 28.044 805.289C26.6443 805.561 25.3726 805.206 24 805C25.5936 801.087 27.0256 798.208 26 794C22.5261 795.022 17.731 798.978 14.1049 798.172C7.75997 796.762 9.10683 786.6 6.56713 782.279C5.10757 779.795 2.59957 779.418 0 779z"/>
<path style="fill:#fefefe; stroke:none;" d="M0 786C0 790.126 -1.94349 801.01 1.6034 803.821C3.74305 805.517 7.45659 804.993 10 805C9.68146 798.794 6.97717 787.208 0 786z"/>
<path style="fill:#030303; stroke:none;" d="M301 796C303.433 794.538 304.177 793.712 305 791C301.51 791.581 300.453 792.44 301 796M1919 791L1919 793L1922 793L1922 791L1919 791z"/>
<path style="fill:#fefefe; stroke:none;" d="M86 804C89.0918 814.444 103.001 814.639 109 807C102.428 803.819 93.1354 802.321 86 804z"/>
<path style="fill:#030303; stroke:none;" d="M277 803C280.021 808.603 286.202 811.026 292 813C289.192 807.504 282.969 804.077 277 803M238 805L238 807L240 807L240 805L238 805M302 819C306.267 827.752 324.135 838.573 334 838C327.321 828.716 313.616 819.508 302 819z"/>
<path style="fill:#fefefe; stroke:none;" d="M1514 838L1515 829C1511.68 826.666 1506.65 819.864 1502.13 820.832C1498.06 821.705 1493.95 834.229 1497.61 836.933C1500.57 839.126 1510.23 837.99 1514 838M127 831C129.492 830.03 130.146 829.525 131 827C128.374 827.839 127.839 828.374 127 831M1560 832L1560 836C1561.92 834.703 1562.32 834.209 1563 832L1560 832z"/>
<path style="fill:#030303; stroke:none;" d="M2111.33 833.667C2111.28 833.722 2111.22 834.778 2111.67 834.333C2111.72 834.278 2111.78 833.222 2111.33 833.667z"/>
<path style="fill:#fefefe; stroke:none;" d="M1526 841C1529.49 840.419 1530.55 839.56 1530 836C1527.16 837.127 1526.51 837.987 1526 841z"/>
<path style="fill:#030303; stroke:none;" d="M968 842C964.728 842.131 961.046 839.447 958.015 840.33C946.664 843.639 954.899 862.018 964.697 853.347C966.027 852.17 966.777 850.664 967.276 848.986C967.951 846.717 967.951 844.342 968 842z"/>
<path style="fill:#fefefe; stroke:none;" d="M1508 843C1503.41 844.396 1496.09 854.138 1503.43 857.356C1509.15 859.862 1512.31 853.526 1510.73 849.005C1510 846.942 1508.94 844.971 1508 843z"/>
<path style="fill:#030303; stroke:none;" d="M556 845C558.852 846.188 561.06 845.864 564 845C561.354 844.185 558.774 844.787 556 845M2135 847C2137.31 848.759 2139.09 848.917 2142 849C2139.69 847.409 2137.81 847.143 2135 847M867.228 849.029C858.36 854.4 870.166 866.126 877.891 861.82C887.954 856.212 874.98 844.333 867.228 849.029M296 852C298.124 851.101 298.101 851.124 299 849C296.636 849.482 296.482 849.636 296 852M212.667 860.333C212.222 860.778 213.278 860.722 213.333 860.667C213.778 860.222 212.722 860.278 212.667 860.333M2191 865C2192.75 866.255 2193.86 866.614 2196 867C2194.25 865.745 2193.14 865.386 2191 865z"/>
<path style="fill:#fefefe; stroke:none;" d="M1503 877C1504.44 876.455 1505.73 876.025 1507.04 875.198C1507.99 874.6 1509.03 874.016 1509.85 873.236C1515.7 867.64 1507.27 865.97 1503.76 871.104C1502.34 873.168 1502.58 874.728 1503 877z"/>
<path style="fill:#030303; stroke:none;" d="M231 869L232 870L231 869M819.995 871.758C816.405 872.956 812.402 876.476 811.029 880.035C809.227 884.703 812.963 886.396 817 885.191C820.905 884.026 824.223 880.993 825.328 877.004C826.407 873.108 823.957 870.436 819.995 871.758M400 873C402.924 875.577 406.172 876.434 410 877C406.992 874.573 403.802 873.57 400 873M951 877C951.804 880.941 953.099 882.843 957 884C955.978 880.176 954.759 878.369 951 877M738.09 880.256C734.302 881.858 735.547 888.697 739.701 886.673C742.8 885.163 742.069 878.574 738.09 880.256M1048.57 880.028C1039.64 886.268 1052.23 907.701 1061.77 900.396C1070.7 893.557 1059 872.739 1048.57 880.028M402 889C405.787 896.063 417.316 898.039 420 889L402 889M729 905C730.958 904.998 733.05 905.169 734.989 904.852C736.242 904.647 737.638 904.329 738.581 903.397C747.107 894.967 731.268 888.704 729.228 899.039C728.849 900.963 729.006 903.05 729 905M2004 899C2007.04 901.81 2009.89 902.778 2014 903L2014 900L2004 899M1655.33 902.667C1655.28 902.722 1655.22 903.778 1655.67 903.333C1655.72 903.277 1655.78 902.222 1655.33 902.667M2177 913C2185.47 917.078 2199.64 913.9 2200 903C2191.43 904.084 2181.19 904.229 2177 913M442 910C438.868 915.509 437.163 920.77 439 927C443.813 923.625 444.159 915.144 442 910M1612 919C1610.07 912.484 1595.37 907.717 1589.45 912.028C1583.68 916.235 1594.07 920.004 1597 920.536C1598.98 920.895 1600.99 921.029 1603 920.906C1606.09 920.716 1609.04 919.832 1612 919M985.667 912.333C985.222 912.778 986.278 912.722 986.333 912.667C986.778 912.222 985.722 912.278 985.667 912.333M1654 912L1655 913L1654 912M910 914C911.322 920.645 916.972 927.948 923 931C921.02 924.272 916.436 917.065 910 914z"/>
<path style="fill:#fefefe; stroke:none;" d="M1109 922L1110 921C1114.83 924.289 1120.34 925.703 1126 927C1124.47 921.832 1118.5 918.217 1113 918.399C1108.96 918.532 1104.02 922.283 1104.53 926.772C1104.94 930.29 1110.48 930.09 1111.1 926.796C1111.47 924.856 1109.99 923.422 1109 922z"/>
<path style="fill:#030303; stroke:none;" d="M1551.66 920.133C1547.74 923.016 1557.69 929.945 1561.34 926.973C1565.01 923.979 1554.46 918.074 1551.66 920.133M495.985 922.876C492.289 923.648 488.32 927.556 487.029 931.014C485.861 934.142 487.106 937.846 491.019 937.199C494.752 936.582 499.497 932.476 500.863 929C502.154 925.717 499.576 922.126 495.985 922.876M565 935C564.014 936.479 564 936.203 564 938C565.289 936.557 565.401 936.766 565 935M1582 948C1588.28 949.726 1597.85 947.866 1600 941C1593.25 941.056 1585.33 941.338 1582 948M777 944C775.918 947.815 775.236 952.583 772.49 955.61C769.592 958.802 764.543 959.407 763.318 964.043C761.48 970.999 765.943 976.086 768.468 982C769.984 985.551 769.99 989.212 770 993L774 993C775.331 982.478 774.638 971.333 776.464 961C777.457 955.379 780.818 949.046 777 944M820 957C819.159 954.38 818.375 951.446 816.875 949.109C815.896 947.583 814.651 946.43 812.956 945.742C806.979 943.318 801.271 946.597 801.059 953.001C800.944 956.503 801.863 961.753 806.105 962.356C808.135 962.645 810.187 961.673 812 960.904C814.737 959.742 817.394 958.422 820 957M553 963C551.579 958.168 541.918 950.234 536.662 955.028C532.311 958.996 542.478 962.685 545 962.906C547.644 963.137 550.348 963 553 963M419 964C416.355 959.178 403.962 951.225 398.762 956.742C393.163 962.68 407.906 964.754 411 964.896C413.72 965.02 416.342 964.493 419 964M667 997C672.693 996.1 674.359 991.986 676.397 987C680.134 977.857 685.491 966.913 686 957C680.094 958.753 679.998 963.989 677.676 969C673.328 978.381 667.229 986.253 667 997M1584 971C1588.38 972.247 1591.19 971.84 1592 967C1588.12 967.125 1585.93 967.502 1584 971M333 977L341 978L341 974C337.085 973.317 334.393 972.816 333 977M1762 974C1763.46 975.081 1764.25 975.436 1766 976C1764.69 974.382 1764.12 974.307 1762 974M1950 982C1952.48 989.642 1968.1 989.858 1975 990C1973.07 986.928 1970.34 986.5 1967 985.302C1960.87 983.105 1956.63 980.825 1950 982M798 982.697C789.392 984.861 785.614 996.2 784.659 1004C784.017 1009.25 787.218 1013.94 793.001 1012.67C800.175 1011.08 806.979 999.915 807.659 993C808.2 987.494 804.227 981.131 798 982.697z"/>
<path style="fill:#fefefe; stroke:none;" d="M1209 998C1210.34 997.598 1211.74 997.339 1212.94 996.544C1221.73 990.676 1210.08 983.243 1208.32 993.956C1208.08 995.428 1208.63 996.62 1209 998z"/>
<path style="fill:#030303; stroke:none;" d="M1592 987C1593.16 988.982 1594.05 989.74 1596 991C1594.85 988.751 1594.25 988.154 1592 987M748 1004C752.365 1005.84 756.692 1006.54 760.926 1003.77C762.311 1002.87 764.208 1001.29 763.503 999.394C761.077 992.861 750.093 1001.48 748 1004M976 997C978 999.92 980.573 1000.48 984 1001C981.579 998.821 979.139 997.868 976 997M1132.34 1002.12C1124.33 1006.29 1134.83 1022.49 1141.85 1019.75C1149.99 1016.57 1139.66 998.314 1132.34 1002.12M1738 1034C1741.61 1036.31 1743.63 1039.92 1747.04 1042.41C1749.86 1044.47 1752.83 1044.13 1756 1045.05C1758.67 1045.83 1761.12 1047.63 1764 1047.56C1767.09 1047.48 1769.47 1045.32 1772 1043.83C1774.43 1042.41 1777.52 1041.66 1779.49 1039.57C1781.49 1037.44 1781.58 1034.65 1782.39 1032C1784.17 1026.12 1785.79 1022.23 1783.4 1016C1781.59 1011.27 1776.87 1007.2 1774 1003C1766.99 1004.3 1758.93 1002.4 1752.21 1004.32C1747.78 1005.58 1741.81 1012.8 1740.33 1017C1739.35 1019.8 1740.58 1022.2 1740.61 1025C1740.63 1028.14 1739.11 1031.13 1738 1034M293 1005C294.75 1006.25 295.857 1006.61 298 1007C296.25 1005.75 295.143 1005.39 293 1005M966 1006C966.866 1011.03 969.104 1015.4 971.239 1020C972.201 1022.07 973.521 1024.5 972.184 1026.72C970.1 1030.18 964.478 1030.32 961 1031.12C956.487 1032.17 953.245 1034.56 951.657 1039C951.214 1040.24 951.127 1041.7 951.232 1043C952.064 1053.29 965.493 1053.02 973 1055.69C977.795 1057.4 981.917 1060.05 986 1056C991.883 1060.34 994.424 1058.26 1001 1058.27C1007.93 1058.29 1016.55 1060.4 1023 1056.86C1030.43 1052.77 1033.05 1043.14 1028.12 1036.09C1021.56 1026.72 1005.36 1026.02 995 1026C990.92 1025.99 985.881 1026.76 982.004 1025.26C973.956 1022.14 972.731 1011 966 1006M2012 1029L2013 1030L2012 1029M1588 1054C1588.37 1055.81 1588.61 1057.35 1589.74 1058.89C1594.09 1064.79 1603.52 1061.39 1595.94 1056.42C1595.07 1055.85 1594 1055.46 1593.02 1055.11C1591.36 1054.51 1589.74 1054.26 1588 1054M149 1056C148.014 1057.48 148 1057.2 148 1059C149.766 1058.02 149.955 1057.78 149 1056M561 1061C560.352 1063.71 560.058 1066.22 560 1069C562.02 1066.46 562.67 1064.22 563 1061L561 1061M1623 1061C1626.29 1072.72 1642.66 1076.02 1652 1081.81C1657.02 1084.93 1660.91 1088.59 1667 1089C1666.12 1083.49 1662.04 1082.81 1658 1079.67C1648.56 1072.35 1635.4 1061.64 1623 1061M1945 1066C1946.39 1068.61 1948.15 1070.69 1950 1073C1950.62 1069.23 1948.36 1067.27 1945 1066M1676.67 1068.33C1676.22 1068.78 1677.28 1068.72 1677.33 1068.67C1677.78 1068.22 1676.72 1068.28 1676.67 1068.33M157 1072C158.806 1075.25 160.383 1075.6 164 1075C162.194 1071.73 160.618 1071.19 157 1072M577 1077C579.687 1075.68 580.676 1074.69 582 1072C579.313 1073.32 578.324 1074.31 577 1077M638 1073C635.877 1081.94 629.923 1089.79 629 1099C634.084 1092.28 638.75 1081.34 640 1073L638 1073M230 1122C235.383 1120.21 233.026 1116.39 230.42 1112.83C227.34 1108.62 224.798 1104.09 221.541 1100C219.923 1097.97 217.429 1095.77 217.252 1093C217.034 1089.61 225.059 1080.63 219.667 1078.26C215.88 1076.59 212.208 1082.29 210.92 1085C207.183 1092.85 210.631 1100.93 216.105 1107C220.685 1112.08 226.049 1116.39 230 1122M1050 1078L1050 1080L1057 1079C1054.67 1078.02 1052.54 1078.02 1050 1078M1041 1082C1043.69 1081.73 1045.57 1081.18 1048 1080C1045.05 1078.95 1042.9 1079.5 1041 1082M573 1081C572.11 1082.74 571.547 1084.12 571 1086C573.547 1084.63 574.188 1083.78 575 1081L573 1081M238.667 1082.33C238.222 1082.78 239.278 1082.72 239.333 1082.67C239.778 1082.22 238.722 1082.28 238.667 1082.33M246 1087C247.788 1088.42 248.706 1088.7 251 1089C249.307 1087.94 247.96 1087.48 246 1087M228.753 1091.09C225.401 1093.51 229.985 1100.17 233.36 1097.86C236.505 1095.71 232.083 1088.68 228.753 1091.09M369 1098C361.975 1097.63 358.279 1092.97 352 1090.86C346.839 1089.13 342.395 1094.18 345.608 1098.9C350.376 1105.9 368.628 1109.2 369 1098M2170 1090C2174.5 1099.44 2190.32 1106.21 2200 1109C2198.68 1104.77 2195.45 1103.68 2192 1101.21C2184.52 1095.87 2179.43 1091.27 2170 1090M760 1091L761 1092L760 1091M265 1098L266 1099L265 1098M753 1099C752.014 1100.48 752 1100.2 752 1102C753.289 1100.56 753.401 1100.77 753 1099M1141 1109C1148.15 1108.08 1155.14 1106.19 1162 1104C1156.5 1101.71 1144.44 1103.98 1141 1109M1595 1128C1594.25 1123.37 1591.19 1121.39 1588.21 1117.99C1584.73 1114.01 1582.31 1109.5 1577.96 1106.3C1576.05 1104.9 1571.12 1101.66 1569.09 1104.62C1567.14 1107.46 1571.16 1110.95 1573.02 1112.54C1576.36 1115.4 1580.39 1117.05 1583.83 1119.69C1587.82 1122.75 1589.95 1126.58 1595 1128M314 1105C314.839 1107.63 315.374 1108.16 318 1109C317.161 1106.37 316.626 1105.84 314 1105M1856 1114C1860.65 1121.65 1873.47 1125.63 1882 1126C1877.8 1115.63 1865.87 1114 1856 1114M286 1115C289.561 1118.6 294.039 1120.26 299 1121C296.345 1116.41 290.969 1115.67 286 1115M35 1119L35 1121L37 1121L37 1119L35 1119M320 1122C323.511 1127.72 331.398 1128.24 337 1131.31C349.952 1138.43 360.428 1150.79 375 1155C372.798 1152.48 369.914 1151.55 367.545 1149.3C365.389 1147.26 364.28 1144.48 361.942 1142.53C358.076 1139.3 353.188 1137.75 349 1135.03C339.708 1129.02 331.645 1122.53 320 1122M232 1137C232.085 1146.36 238.3 1153.63 247 1157L248 1156C245.057 1147.91 240.863 1139.31 232 1137M376.667 1156.33C376.222 1156.78 377.278 1156.72 377.333 1156.67C377.778 1156.22 376.722 1156.28 376.667 1156.33M40 1159C42.0993 1166.29 46.1069 1175.12 52 1180C51.926 1171.18 48.0548 1163.3 40 1159M78 1161C78.9357 1162.95 79.3924 1163.55 81 1165C80.2235 1162.87 79.8698 1162.23 78 1161M385 1162C387.087 1164.76 388.666 1166.07 392 1167C389.913 1164.24 388.334 1162.93 385 1162M797 1215C803.745 1215.95 808.568 1208.32 813 1204.02C824.594 1192.76 841.268 1185.99 849 1171C834.478 1175.64 824.351 1188.96 813 1198.2C807.16 1202.95 799.51 1207.64 797 1215M1443 1171C1441.7 1171.03 1440.24 1170.93 1438.96 1171.23C1431.64 1172.94 1434.98 1179.88 1440.68 1174.81C1441.91 1173.72 1442.32 1172.42 1443 1171M1816 1172C1812.92 1172.01 1810.04 1172.3 1807 1172.75C1804.66 1173.09 1802.32 1173.31 1800 1173.81C1797.11 1174.42 1788.06 1178.95 1795.08 1181.5C1800.3 1183.41 1814.52 1177.07 1816 1172M88 1177L89 1178L88 1177M137 1178L136 1179C137.877 1182.41 138.546 1186.78 140.742 1189.89C142.342 1192.16 150.202 1195.57 148.654 1189.94C147.373 1185.28 140.764 1180.65 137 1178M735 1204C743.095 1203.74 754.794 1192.12 748.821 1183.43C742.98 1174.94 735.089 1189.06 734.343 1194C733.844 1197.31 734.74 1200.7 735 1204M881 1183C879.453 1188.28 880.99 1192.07 883 1197C884.948 1192.36 884.108 1186.91 881 1183M159 1184C161.085 1189.38 164.956 1194.16 170 1197C167.807 1192.36 164.685 1188.35 162 1184L159 1184M1331 1186C1329.81 1187.19 1329.47 1187.58 1329 1189C1330.99 1188.15 1331.7 1187.99 1331 1186M122 1187C127.053 1193.61 134.53 1198.8 141 1204C148.001 1209.62 155.233 1216.42 164 1219C161.687 1214.67 157.512 1211.44 154 1208.01C145.108 1199.35 134.347 1189.93 122 1187M95 1189C98.4002 1197.17 102.689 1205.74 110 1211C107.336 1203.68 102.179 1192.53 95 1189M280 1189C278.936 1193.64 280.559 1196.34 285 1198C284.649 1194.56 283.688 1192.01 282 1189L280 1189M56 1191C57.46 1195.96 59.8993 1199.83 64 1203C62.4551 1198.33 59.7448 1194.18 56 1191M358 1192C359.314 1193.62 359.877 1193.69 362 1194C360.457 1192.73 359.952 1192.51 358 1192M1828 1194C1830.8 1199.47 1837.15 1201.96 1843 1203C1839.18 1198.4 1833.7 1195.64 1828 1194M1435 1197C1435.17 1199.4 1435.2 1200.46 1437 1202C1436.61 1199.86 1436.25 1198.75 1435 1197M172.333 1199.67C172.278 1199.72 172.222 1200.78 172.667 1200.33C172.722 1200.28 172.778 1199.22 172.333 1199.67M1328.6 1204.03C1322.04 1209.25 1336.72 1224.72 1342.38 1219.35C1348.06 1213.97 1335.56 1198.5 1328.6 1204.03M64 1204C65.1535 1206.25 65.7511 1206.85 68 1208C66.8465 1205.75 66.2489 1205.15 64 1204M1435 1204L1436 1205L1435 1204M1025 1207C1028.75 1213.97 1037.6 1212.02 1044 1210C1039.34 1204.96 1031.26 1205.15 1025 1207M340.667 1207.33C340.222 1207.78 341.278 1207.72 341.333 1207.67C341.778 1207.22 340.722 1207.28 340.667 1207.33M68 1210C69.0892 1216.11 72.267 1222.94 77 1227C76.6449 1220.15 73.4162 1214.18 68 1210M111 1213C111.674 1215.3 111.965 1215.77 114 1217C113.045 1215.23 112.434 1214.39 111 1213M853 1218C855.918 1216.82 857.358 1215.69 859 1213C855.76 1213.93 854.505 1214.99 853 1218M219 1221C223.042 1220.39 226.674 1219.52 229 1216C224.687 1216.44 221.838 1217.7 219 1221M1154 1223C1160.56 1225.62 1165.74 1222.15 1170 1217C1163.96 1215.27 1155.99 1216.29 1154 1223M1529 1236C1529 1231.78 1530 1226.06 1528.4 1222.09C1524.44 1212.28 1508.73 1215.3 1504.57 1223.02C1502.99 1225.95 1501.66 1232.48 1504.74 1234.97C1506.59 1236.47 1509.8 1236 1512 1236L1529 1236M169 1222C171.463 1229.22 179.499 1235 187 1236C182.681 1230.37 175.543 1224.77 169 1222M151 1223C153.144 1229.58 154.137 1235.74 162 1236C159.359 1231.26 156.385 1224.77 151 1223M190 1231C198.386 1230.98 204.817 1228.19 212 1224C205.668 1221.42 193.7 1225.35 190 1231M401 1224C402.482 1227.1 403.896 1228.52 407 1230C405.41 1227.01 404.043 1225.49 401 1224M78 1230C78.6273 1233.08 79.2813 1234.43 82 1236C81.194 1233.11 80.3233 1231.91 78 1230M121 1231C122.294 1233.75 123.116 1235.03 126 1236C124.52 1233.59 123.476 1232.34 121 1231z"/>
</svg>
