<?xml version="1.0" standalone="yes"?>
<svg xmlns="http://www.w3.org/2000/svg" width="2200" height="1257">
<path style="fill:#fefefe; stroke:none;" d="M0 0L0 1257L20 1257C23.0239 1257 26.86 1257.59 29.7145 1256.4C35.963 1253.79 38.8396 1247.72 46 1246C44.044 1250.2 40.6504 1253.23 38 1257L805 1257C804.166 1249.46 809.698 1248.23 816 1247C815.058 1237.8 809.081 1230.63 809 1221C821.084 1224.86 821.838 1238 826.756 1248C828.008 1250.55 829.217 1254.28 831.637 1255.97C834.85 1258.22 841.273 1257 845 1257L877 1257C875.016 1253.23 872.335 1249.39 872.148 1245C871.986 1241.21 874.05 1237.81 873.167 1234C872.159 1229.65 869.139 1226.03 867.349 1222C865.872 1218.68 865.334 1215.04 862.721 1212.33C858.12 1207.55 849.987 1204.67 844 1202C847.514 1201.77 851.546 1204.14 854.891 1203.21C859.157 1202.02 857.875 1197.08 860.6 1194.65C863.787 1191.81 870.555 1196.06 874 1197C876.116 1189.84 872.873 1179.61 863.209 1183.61C858.482 1185.56 857.846 1189.84 852 1190C852.09 1185.64 854.158 1179.81 850.681 1176.32C846.727 1172.35 835.525 1174.21 830 1173.06C822.961 1171.59 821.791 1165.8 816.895 1161.52C814.144 1159.11 809.674 1157.43 808.133 1153.91C807.09 1151.52 808.291 1149.19 809.225 1147C810.233 1144.63 811.056 1141.53 813.302 1140.01C818.921 1136.23 829.738 1138.78 827.451 1128C826.371 1122.91 822.161 1121.02 819.692 1116.91C818.197 1114.42 819.2 1111.65 818.219 1109.06C816.339 1104.08 810.279 1105 806 1105C808.19 1100.93 816.189 1096.67 812.127 1091.32C809.875 1088.35 806.117 1089.54 803 1089.83C798.28 1090.27 793.119 1090.13 789.185 1087.15C787.249 1085.68 783.889 1082.15 785.252 1079.41C786.845 1076.21 791.836 1079.71 794 1080.22C797.31 1081 800.661 1079.67 804 1079.72C808.008 1079.78 811.195 1081.52 814.996 1082.32C816.843 1082.71 818.826 1082.66 820.258 1081.25C828.036 1073.63 811.738 1069.97 813.142 1063.96C814.784 1056.93 820.222 1056.53 824.787 1052.57C827.823 1049.94 829.579 1045.62 831.127 1042C832.978 1037.68 834.834 1032.66 833.107 1028C831.185 1022.81 826.776 1020.08 828.211 1014C829.162 1009.97 834.212 998.792 839.714 1000.35C842.473 1001.13 844.501 1004.82 846 1007C847.81 1006.42 849.4 1005.89 851.02 1004.85C860.028 999.077 855.292 992.376 851.309 985C849.221 981.134 845.324 973.734 851.33 970.921C853.898 969.719 856.151 972.358 857.714 974.024C861.215 977.753 864.608 983.23 870 984.334C874.567 985.269 879.38 982.326 882.1 978.896C883.447 977.196 884.736 974.008 887.171 973.631C890.43 973.127 892.423 977.71 895.089 978.868C899.284 980.69 908.532 977.178 911.772 974.362C915.29 971.303 914.761 967.202 915.17 963C915.878 955.712 915.336 945.653 920 940C920 945.575 918.503 953.841 921.318 958.867C924.92 965.297 936.316 963.034 939.99 957.786C943.809 952.331 937.926 948.29 939.681 943C944.943 927.146 959.437 941.506 965 949C961.834 949 958.045 948.507 955.055 949.742C950.906 951.456 948.015 958.672 951.603 962.262C954.417 965.076 964.105 966.867 968 966.678C977.849 966.201 979.496 950.735 989 949.693C995.542 948.976 999.669 952.969 1000 959C1007.25 958.763 1007.48 954.846 1010.11 949.005C1010.96 947.104 1012.93 943.32 1015.65 944.346C1018 945.232 1016.82 948.415 1016.19 950.001C1014.49 954.26 1011.85 958.203 1012.15 963C1012.57 969.772 1019.07 974.203 1025 970.513C1027.75 968.802 1030.25 966.715 1033 965C1037.29 972.637 1041.71 968.022 1048 966.093C1050.25 965.4 1052.69 965.845 1055 966C1054.18 960.385 1052.54 957.341 1057 953L1060 961C1066.75 959.743 1073.73 959.167 1079.99 956.085C1085.12 953.557 1087.81 949.119 1094 949.033C1097.51 948.984 1101.91 949.386 1104.79 951.588C1107.81 953.897 1109.13 958.87 1113.87 957.663C1118.31 956.531 1115.57 952.343 1114 950C1119.98 950.672 1123.75 956.048 1128 960C1123.56 960.203 1119.42 961.745 1115 961.96C1106.96 962.351 1099.01 961.727 1091 962.715C1087.39 963.161 1084.07 963.113 1081.04 965.434C1077.56 968.092 1074.5 972.518 1074.29 977C1074.16 979.732 1075.43 982.301 1074.49 985C1072.3 991.247 1065.44 995.095 1064.45 1002C1063.64 1007.56 1068.74 1012.83 1070.21 1018C1071.56 1022.76 1069.82 1027.31 1070.62 1032C1072.49 1042.96 1083.81 1042.01 1092 1045L1092 1047C1085.82 1048.13 1075.2 1043.8 1070.23 1047.6C1067.6 1049.62 1067.09 1052.94 1066.59 1056C1065.47 1062.87 1062.38 1076.28 1071 1079C1075.72 1070.39 1083.15 1074.64 1091 1075.52C1094.7 1075.94 1098.31 1074.74 1102 1075.53C1108.15 1076.85 1113.6 1080.12 1120 1080.67C1126.02 1081.19 1131.86 1080.22 1138 1081C1133.4 1089.77 1123.64 1083.34 1116 1084.11C1110.79 1084.64 1109.78 1090.05 1104.96 1090.85C1097.21 1092.13 1088.72 1090.64 1081 1089.93C1078.05 1089.65 1074.95 1088.8 1072.01 1089.59C1065.91 1091.23 1060.45 1099.88 1063.09 1105.96C1064.4 1108.97 1067.11 1111.36 1069 1114C1064.94 1114.01 1061.69 1114.22 1058 1116C1058.73 1119.76 1059.29 1123.75 1061.65 1126.91C1064.16 1130.25 1068.13 1132.04 1071 1135C1066.81 1133.91 1060.41 1131.04 1056.17 1132.62C1053.43 1133.63 1051.73 1136.32 1048.99 1137.41C1044.25 1139.3 1040.9 1138.92 1038.19 1144.02C1035.55 1148.98 1036.71 1153.76 1035.77 1159C1035.16 1162.38 1031.58 1165.51 1032.25 1169C1033.73 1176.65 1044.76 1184.76 1050 1190C1047.19 1189.37 1043.24 1186.79 1040.38 1187.71C1038.08 1188.45 1036.57 1191.24 1034.9 1192.82C1031.76 1195.77 1027.46 1198.59 1023 1198.71C1013.07 1198.97 1011.72 1186.92 1003.96 1184.71C997.769 1182.95 992.409 1190.52 993.677 1196C994.481 1199.47 996.366 1202.44 997 1206C993.698 1203.85 988.558 1198.77 984.274 1201.07C982.09 1202.25 980.727 1205.25 979 1207C977.908 1200.98 974.694 1197.77 969 1195.62C966.698 1194.75 963.677 1193.64 961.603 1195.62C958.372 1198.7 960.024 1206.79 958 1211L956.111 1204C954.284 1197.65 948.81 1195.32 943.214 1199.7C938.718 1203.22 937.694 1209.37 933 1213C931.37 1206.39 929.426 1196.67 920.039 1197.53C915.649 1197.93 913.932 1201.55 909 1201C908.543 1206.24 907.116 1212.18 904.891 1216.98C904.107 1218.67 900.964 1222.62 899.9 1218.79C897.844 1211.4 906.847 1202.91 903.396 1195.27C901.265 1190.56 886.917 1185.53 883.302 1190.32C879.119 1195.86 886.94 1204.18 888.065 1210C889.415 1216.98 888.731 1223.95 889.039 1231C889.201 1234.7 890.188 1238.28 889.696 1242C889.024 1247.08 887.039 1251.98 886 1257L1693 1257L1884 1257L1921 1257C1926.14 1257 1933.27 1258.24 1937.99 1255.82C1942.63 1253.44 1946.03 1247.58 1948.17 1243C1948.96 1241.33 1949.95 1239.19 1949.29 1237.31C1948.55 1235.22 1945.8 1234.63 1944.17 1233.43C1940.1 1230.46 1935.55 1223.76 1930 1223.71C1927.24 1223.68 1924.88 1225.66 1923.85 1228.1C1922.24 1231.93 1920.37 1237.24 1917.4 1240.3C1911.53 1246.35 1900.81 1247.15 1894 1242.93C1892.03 1241.71 1889.45 1240.21 1888.79 1237.82C1887.12 1231.81 1894.15 1225.29 1893.76 1219.04C1893.59 1216.18 1891.69 1214.15 1890 1212C1894.9 1210.02 1893.29 1204.12 1888.08 1205.8C1884.49 1206.96 1882.23 1211.01 1879 1212.91C1875.86 1214.75 1872.22 1215.61 1869 1217.32C1863.53 1220.23 1858.94 1224.15 1854 1227.8C1851.01 1230 1844.41 1230.84 1844.88 1225.07C1845.33 1219.62 1853.07 1216.94 1856.71 1214.19C1863.13 1209.33 1865.7 1202.02 1868.78 1195C1871.08 1189.75 1873.24 1184.15 1868.44 1179.43C1864.85 1175.9 1860.27 1177.79 1856 1178.54C1849.83 1179.62 1842.23 1179.59 1836 1178.89C1827.59 1177.95 1828.07 1170.22 1822.61 1165.89C1820 1163.82 1816.05 1164.42 1813.91 1161.68C1811.5 1158.6 1813.29 1155.12 1814.58 1152C1817.52 1144.87 1824.32 1132.49 1815.01 1127.46C1813.38 1126.58 1811.78 1126.32 1810 1126C1804.75 1135.97 1799.78 1146.3 1791 1153.68C1786.01 1157.86 1781.11 1162.3 1776 1166.33C1770.12 1170.97 1764.83 1173.99 1764 1182C1756.85 1182 1746.52 1182.44 1743.62 1174C1741.87 1168.9 1746.2 1163.92 1748.8 1160C1755.68 1149.61 1759.2 1136.51 1769 1128.33C1774.75 1123.53 1782.98 1121.81 1786.91 1115C1791.5 1107.04 1789.01 1094.46 1780 1091.13C1773.99 1088.92 1768.08 1090.79 1762 1091.32C1757.4 1091.72 1753.49 1091.12 1749 1092.7C1743.68 1094.57 1738.61 1097.7 1733 1098.67C1729.27 1099.31 1725.71 1098.33 1722 1098.46C1716 1098.67 1709.92 1100.63 1704 1101.56C1700.34 1102.14 1696.54 1101.95 1693.06 1103.4C1687.69 1105.64 1688.95 1112.3 1682.98 1113.86C1671.54 1116.85 1658.57 1113.88 1647 1113.09C1631.07 1112 1613.84 1113.16 1598 1114.3C1592.3 1114.71 1586.58 1117.15 1581 1118.33C1572.97 1120.03 1564.17 1120.65 1556 1121.71C1552.22 1122.2 1543.17 1123.26 1541.26 1118.74C1539.12 1113.68 1548.19 1113.09 1551 1113.01C1564.51 1112.68 1578.6 1112.18 1592 1110.42C1598.65 1109.55 1605.47 1110.1 1612 1108.21C1616.7 1106.85 1620.38 1102.88 1625 1101.76C1628.15 1100.99 1631.74 1102.08 1635 1101.71C1642.71 1100.84 1650.31 1098.94 1658 1098.17C1664.86 1097.49 1670.42 1100.91 1677 1100.91C1681.95 1100.91 1686.32 1098.17 1691 1096.92C1696.24 1095.52 1701.91 1095.65 1707 1093.73C1722.28 1087.97 1730.45 1072.66 1745 1066C1750.35 1079.05 1768.44 1062.18 1777 1059.36C1782.96 1057.39 1789.43 1057.09 1792.86 1050.98C1795.12 1046.95 1794.31 1041.96 1796.89 1038.09C1799.37 1034.39 1803.6 1032.22 1806.54 1028.91C1811 1023.86 1814.38 1017.98 1819.17 1013.17C1822.77 1009.55 1826.38 1003.84 1830.39 1000.94C1833.99 998.332 1839.79 999.249 1842.25 994.811C1844.57 990.619 1838.22 986.44 1835 985.093C1829.11 982.632 1823.09 987.14 1819.04 991.093C1814.5 995.532 1814.58 1001 1811.15 1005.79C1806.94 1011.66 1793.27 1016.58 1787 1013C1799.44 1007.51 1806.01 987.656 1803 975C1811.66 972.419 1812.77 964.975 1817.07 958.005C1819.58 953.943 1824.67 952.639 1826.97 948.776C1828.91 945.523 1827.46 941.496 1827.47 938C1827.48 934.555 1830.59 928.751 1827.26 926.028C1825.57 924.653 1822.98 925.15 1821 924.698C1817.57 923.918 1814.69 920.996 1811 921.608C1806.72 922.317 1798.37 931.511 1795.62 923.938C1792.75 916.015 1805.61 913.574 1809.89 910.072C1817.56 903.8 1814.92 885.225 1806.91 880.009C1800.67 875.949 1791.09 878.554 1784 876.985C1780.9 876.298 1777.16 873.801 1774 874.095C1770.22 874.447 1768.02 878.518 1764 878.381C1756.34 878.12 1752.21 872.05 1744.01 876.05C1740.96 877.543 1738.65 879.86 1737.34 883.015C1736.34 885.451 1736.33 889.666 1733.71 891.079C1730.23 892.957 1729.94 888.004 1730 886C1726.7 884.764 1723.33 884.58 1720 883.581C1714.07 881.803 1708.59 873.103 1716.06 869.333C1719.9 867.392 1724.05 869.595 1728 869.907C1739.41 870.805 1747.97 865.761 1748 854C1754.68 855 1766.72 863.738 1771 856C1768.31 855.582 1767.45 855.283 1766 853L1772 855C1773.55 852.11 1774.7 848.649 1777.22 846.433C1781.04 843.082 1787.4 842.977 1792 841C1791.14 836.348 1790.77 831.737 1791.09 827C1791.26 824.476 1792.2 821.686 1791.64 819.17C1790.9 815.844 1787.57 813.024 1786 810C1791.54 809.954 1803.52 808.712 1803.43 800.985C1803.38 796.109 1798.71 791.666 1796 788C1800.28 789.365 1804.55 794.074 1809 794.152C1813.92 794.238 1817.7 789.143 1822.91 789.614C1826.43 789.932 1829.01 794.068 1832.77 791.953C1836.87 789.649 1836.52 782.026 1837.72 778C1839.08 773.466 1842.65 767.882 1841.64 763.015C1840.86 759.222 1837.16 757.023 1834 755.324C1825.29 750.642 1818.06 751.052 1809 754C1806.47 740.016 1789.38 736.68 1778 732.424C1761.96 726.429 1744.79 718.922 1728 715.515C1722.11 714.319 1716.74 717.707 1711 716.287C1707.01 715.302 1703.71 712.693 1700 711.04C1694.54 708.608 1688.73 706.792 1683 705.141C1674.68 702.744 1666.28 700.57 1658 698.025C1654.4 696.918 1650.11 696.302 1647.3 693.581C1645.17 691.52 1644.6 688.772 1644 686C1654.7 686.03 1663.71 691.148 1674 693.331C1679.32 694.459 1684.7 694.277 1690 695.745C1700.9 698.764 1711.21 703.619 1722 706.974C1729.9 709.433 1738.3 710.615 1746 713.615C1754.69 717 1763.01 721.382 1772 723.96C1776.9 725.363 1782.05 725.399 1787 726.514C1793.3 727.932 1799.27 731.486 1805.96 729.566C1811.23 728.054 1814.08 721.665 1818.43 718.588C1821.19 716.628 1824.88 716.712 1828 715.532C1836.36 712.37 1845.6 708.994 1853 703.906C1857.65 700.704 1862.52 695.091 1860.25 689.004C1858.55 684.441 1853.6 681.525 1850 678.576C1842.33 672.284 1833.76 666.171 1828 658C1835.31 658.02 1843.54 659.583 1850 663.213C1854.2 665.572 1857.7 668.955 1862 671.18C1867.75 674.157 1874.62 677.356 1881 678.621C1883.88 679.192 1886.88 678.534 1889.71 679.16C1895.41 680.416 1899.88 683.687 1906 684C1905.29 680.68 1905.13 678.296 1906 675C1907.08 676.837 1907.89 679.048 1909.12 680.775C1910.84 683.172 1915.01 684.677 1916.11 680.848C1917.05 677.552 1914.98 673.187 1914.24 670C1913.38 666.301 1912.95 662.446 1911.16 659.039C1909.36 655.62 1906.21 653.275 1904.22 649.985C1901.28 645.097 1899.18 635.681 1900.36 630C1900.94 627.164 1903.03 625.013 1905.02 623.04C1907.86 620.214 1911.73 616.533 1916 616.358C1919.31 616.223 1922.37 618.502 1925 620.232C1931.69 624.638 1939.33 629.427 1944 636L1947 636L1949 631C1952.07 636.537 1951.5 641.93 1952.29 648C1953.04 653.783 1955.16 659.257 1956 665L1960 665C1960.01 663.073 1959.81 660.92 1960.32 659.039C1963.6 646.939 1977.99 656.419 1983 660.971C1984.58 662.402 1986.12 663.834 1988 664.86C1991.46 666.745 1996.15 667.716 2000 668.485C2005.47 669.577 2014.96 668.276 2017.97 662.892C2020.04 659.204 2018.92 653.861 2018 650C2027.51 650.026 2034.57 651.367 2043 645.637C2045.68 643.815 2049.76 640.856 2047.34 637.228C2043.07 630.843 2030.76 635.62 2028.4 626.956C2026.85 621.259 2032.97 617.925 2034.42 613C2036.08 607.364 2029.67 596.2 2025.61 592.434C2020.13 587.359 2010.55 591.109 2004 590.981C1999.92 590.901 1996.06 589.809 1996.24 584.985C1996.55 577.064 2003.77 569.268 2009.01 564.005C2010.89 562.124 2013.67 558.596 2016.71 559.306C2019.05 559.851 2021.32 562.614 2023.01 564.171C2028 568.759 2032.64 576.152 2039.01 578.752C2044.25 580.889 2050.36 583.139 2056 583.816C2060.65 584.374 2065.93 583.036 2069.77 586.434C2074.43 590.55 2074.31 598.635 2077 604C2079.85 603.058 2082.63 600.742 2085.58 600.321C2088.9 599.845 2094.35 602.842 2096.4 598.682C2098.69 594.032 2096.65 583.835 2095.44 579C2094.62 575.711 2091.77 571.589 2096.1 569.589C2104.62 565.659 2107.06 571.528 2112.33 576.471C2114.31 578.333 2116.76 579.601 2118.83 581.363C2121.06 583.263 2122.92 585.91 2126.01 586.381C2129.08 586.848 2132.2 585.034 2135 584.079C2139.19 582.652 2143.61 581.825 2148 581.286C2151 580.918 2154.96 581.663 2157.61 579.972C2162.18 577.06 2162.13 571.688 2168 570C2167.19 576.625 2169.33 579.105 2171.87 584.999C2172.73 586.988 2173.16 589.779 2175.3 590.864C2178.77 592.621 2187.96 587.131 2190.27 584.502C2194.1 580.15 2193.66 571.449 2195 566C2197.79 571.683 2192.7 582.577 2200 585L2200 0L1030 0C1032.16 16.0562 1040.38 31.1965 1044 47C1036.48 39.4974 1034.44 25.0332 1032.19 15C1031.3 11.0664 1029.56 2.5459 1025.58 0.603394C1019.8 -2.21631 1008.38 0 1002 0L945 0L742 0L0 0z"/>
<path style="fill:#020202; stroke:none;" d="M1027 0C1029.66 11.219 1033.3 23.0306 1037 34C1038.54 38.563 1039.85 44.2579 1044 47C1041.62 30.8452 1033.3 15.96 1030 0L1027 0M1503 12C1506.82 9.25317 1509.51 5.97876 1512 2C1506.95 3.72168 1504.06 6.74158 1503 12M1557 4C1556.11 5.74475 1555.55 7.125 1555 9C1557.55 7.62756 1558.19 6.78149 1559 4L1557 4M1453 6C1446.38 12.9242 1439.53 20.6212 1433.53 28.0393C1430.23 32.1125 1428.04 36.9565 1424.67 41C1419.01 47.8025 1413.61 55.078 1407.73 61.6752C1403.9 65.9672 1399.45 69.4966 1395.8 74C1388.84 82.613 1382.96 91.9718 1376.58 101C1371.2 108.593 1363.99 114.521 1358.64 122C1354.06 128.4 1350.8 137.383 1349 145C1354.02 143.347 1355.93 138.163 1358.75 134C1364.69 125.215 1370.77 116.49 1377.13 108C1394.44 84.8813 1412.35 62.2638 1430.75 40C1438.64 30.4524 1446.05 17.3323 1456 10C1455.06 8.05176 1454.61 7.44958 1453 6M1185 11C1177.65 22.8109 1171.17 35.0436 1164 47C1158.68 55.864 1152.23 65.3842 1152 76C1163.44 70.1559 1167.42 53.7742 1172.31 43C1175.15 36.7435 1179.34 31.5149 1183.36 26C1186.39 21.8453 1192.59 13.5199 1185 11M1500 13C1496.8 16.0179 1494.4 18.7896 1493 23C1496.9 20.9697 1501.52 17.8671 1500 13M998 28C998.635 33.8424 1001.89 39.0405 1007 42C1005.74 35.9327 1004.58 29.8915 998 28M1116 41C1117.86 43.6436 1119.83 43.8271 1123 44C1120.77 42.0472 1118.93 41.4589 1116 41M877 42L877 44L879 44L879 42L877 42M1318 42C1317.44 43.8004 1317.18 45.1218 1317 47C1318.37 45.3687 1319.14 43.9622 1320 42L1318 42M1133 43L1133 45L1138 45C1136.21 43.5785 1135.29 43.3026 1133 43M1313 53C1314.91 51.3944 1315.84 50.2164 1317 48C1314.45 49.3727 1313.81 50.2181 1313 53M1302.33 73.6666C1302.28 73.722 1302.22 74.7781 1302.67 74.3334C1302.72 74.2776 1302.78 73.2222 1302.33 73.6666M1335 79C1338.11 84.1052 1346.39 85.2445 1352 86C1348.68 80.1542 1341.24 79.1294 1335 79M718 80C721.717 91.2053 735.547 103.341 745 110C744.309 103.792 740.256 100.261 736 96C730.365 90.3579 724.534 84.585 718 80M1354 85C1355.47 87.1222 1356.46 87.4742 1359 88C1357.54 85.8779 1356.54 85.5258 1354 85M1360 87L1362 94C1364.72 92.4269 1365.37 91.0751 1366 88L1360 87M903 88C903.735 92.2351 905.948 92.7755 910 93C908.302 89.7581 906.573 88.7263 903 88M1033 96L1033 102C1035.67 100.269 1035.71 99.0577 1035 96L1033 96M1288 97C1286.31 100.011 1285.35 102.562 1285 106C1288.01 103.41 1289.29 100.904 1290 97L1288 97M1335 102C1332.02 106.192 1329.54 109.798 1329 115C1332.72 111.915 1336.48 107.027 1335 102M1283.33 108.667C1283.28 108.722 1283.22 109.778 1283.67 109.333C1283.72 109.278 1283.78 108.222 1283.33 108.667M2055.33 108.667C2055.28 108.722 2055.22 109.778 2055.67 109.333C2055.72 109.277 2055.78 108.222 2055.33 108.667M1273 126C1278.02 123.07 1280.78 116.266 1283 111C1277.5 113.849 1274.41 120.131 1273 126M1347 117C1349.42 115.618 1350.06 114.637 1351 112C1348.45 113.373 1347.81 114.218 1347 117M1369 146C1378.43 142.008 1386.91 133.278 1395 127.011C1399.23 123.735 1402.89 121.463 1404 116C1398.24 116.888 1395.06 121.092 1391 124.961C1384.1 131.547 1371.36 136.152 1369 146M1325 118C1321.66 124.023 1317.67 129.619 1315 136C1321.35 132.776 1325.77 124.885 1327 118L1325 118M720 121C721.559 123.709 723.412 125.242 726 127C726.986 125.521 727 125.797 727 124C724.672 122.817 722.489 121.777 720 121M1344 121C1342.4 123.4 1341.55 125.176 1341 128C1343.4 125.885 1344.85 124.22 1344 121M1437.15 122.028C1431.65 125.274 1437.59 129.335 1441.85 126.821C1447.31 123.598 1441.29 119.586 1437.15 122.028M1271 127C1268.94 130.54 1267.32 134.123 1266 138C1269.97 135.05 1272.11 131.885 1273 127L1271 127M1157 129L1158 130L1157 129M1038 130C1037.02 133.586 1036.88 136.624 1040 139C1039.97 135.59 1039.95 132.85 1038 130M1156 133C1154.39 137.422 1154 141.318 1154 146C1156.64 142.297 1157.4 137.467 1158 133L1156 133M1392 136C1398.08 143.076 1408.29 143.899 1417 145C1412.72 138.459 1399.44 133.956 1392 136M476 136C469.179 138.833 465.576 154.711 470.742 160.663C475.676 166.349 477.952 156.261 477.996 153C478.028 150.674 478.061 148.317 477.829 146C477.493 142.636 476.643 139.315 476 136M496 170C501.057 171.403 508.152 167.041 513 165.308C526.465 160.495 539.729 154.547 552 147.2C556.847 144.297 563.162 141.667 565 136C539.429 141.919 517.905 156.482 496 170M1629 143C1632.59 141.962 1633.96 140.591 1635 137C1631.96 138.486 1630.59 140.01 1629 143M1313.33 138.667C1313.28 138.722 1313.22 139.778 1313.67 139.333C1313.72 139.278 1313.78 138.222 1313.33 138.667M1265 139C1261.2 145.853 1257.17 152.393 1255 160C1260.85 156.559 1267.8 145.885 1265 139M588 140C589.594 148.242 596.428 156.067 600.997 163C607.983 173.601 614.647 184.422 621.667 195C625.329 200.517 628.872 206.765 634 211C629.708 200.745 622.94 191.392 617.05 182C608.212 167.908 599.303 153.79 590 140L588 140M1425 147C1428.36 150.908 1431.95 151.881 1437 152C1433.47 149.077 1429.55 147.467 1425 147M1885 147L1885 149L1887 149C1886.45 147.365 1886.64 147.545 1885 147M833 148C833.545 149.635 833.365 149.455 835 150L835 148L833 148M1317 185C1329.17 181.67 1338.67 173.397 1348 165.282C1353.72 160.307 1359.62 155.219 1364 149C1351.23 151.47 1338.71 165.151 1329 173.247C1324.74 176.797 1319.78 180.143 1317 185M836 151C839.886 156.516 844.975 161.875 851 165C848.837 158.652 842.473 152.767 836 151M1306 151C1304.95 152.856 1304.49 153.944 1304 156C1305.69 154.218 1306.38 153.419 1306 151M2136 151C2138.09 153.757 2139.67 155.068 2143 156C2141.17 152.862 2139.56 151.732 2136 151M2075 152C2073.33 159.577 2081.9 164.488 2087 168.87C2101.4 181.247 2114.52 195.729 2132 204C2125.9 188.252 2107.22 179.863 2095 169.674C2088.04 163.874 2083.23 156.204 2075 152M1301 158C1295.39 166.213 1289.86 173.718 1286 183C1293.91 179.132 1300.06 166.065 1303 158L1301 158M1254 161C1249.85 166.669 1244.28 172.976 1243 180C1246.83 176.229 1255.12 166.453 1254 161M1560.67 162.333C1560.22 162.777 1561.28 162.722 1561.33 162.667C1561.78 162.222 1560.72 162.278 1560.67 162.333M2005.43 166.133C2002.84 167.56 2003.01 171.49 2003.01 174C2003 180.343 2008.46 196.505 2017.77 190.968C2025.3 186.495 2018.1 173.332 2013.81 169.214C2011.89 167.362 2008.26 164.575 2005.43 166.133M1373 169C1372.01 170.479 1372 170.203 1372 172C1373.29 170.558 1373.4 170.766 1373 169M1369 173C1364.77 178.034 1359.57 182.393 1358 189C1364.01 185.947 1367.79 178.761 1371 173L1369 173M1494 183L1496 183C1497.37 179.634 1498.63 176.637 1499 173C1493.91 174.51 1492.66 178.062 1494 183M2170 174C2167.23 179.29 2165.59 183.019 2167 189L2169 189C2170.54 184.146 2172.05 178.88 2170 174M626 175C634.347 186.751 648.711 195.141 660 203.888C664.563 207.424 668.089 212.088 674 213C672.973 206.65 666.623 204.635 662 200.904C651.647 192.549 640.305 176.039 626 175M1581 180C1583.13 179.224 1583.77 178.87 1585 177C1582.87 177.776 1582.23 178.13 1581 180M1085 190C1091.75 189.467 1093.74 184.066 1092 178C1086.94 180.491 1085.28 184.528 1085 190M1332 195C1338.41 193.048 1345.98 184.621 1347 178C1336.62 178.33 1335.24 186.726 1332 195M800 211C800.124 204.977 805.845 193.265 800.682 188.703C793.95 182.754 782.794 187.749 776.001 190.866C773.014 192.236 768.268 194.68 769.662 198.79C770.627 201.635 774.375 202.862 777 203.471C780.979 204.394 785.047 203.982 789 205.221C793.076 206.498 796.219 209.206 800 211M1237 192C1231.77 199.765 1226.49 207.894 1224 217C1231.89 212.976 1240.84 201.237 1237 192M1032 195L1032 197L1034 197C1033.45 195.365 1033.64 195.545 1032 195M1277 198C1278.46 196.896 1278.9 196.457 1280 195C1277.88 195.899 1277.9 195.876 1277 198M1037 199C1037.68 200.58 1037.8 200.777 1039 202L1039 199L1037 199M929.319 201.956C926.681 202.751 927.28 206.062 927.999 208C929.337 211.603 934.041 217.917 938.682 216.289C941.2 215.405 940.996 212.021 940.253 210C938.955 206.47 933.645 200.652 929.319 201.956M762 206C763.223 207.195 763.42 207.316 765 208C764.02 206.217 764.093 206.406 762 206M1094 208L1094 210L1096 210L1096 208L1094 208M1270 208C1268.22 211.003 1266.68 213.56 1266 217C1268.58 214.427 1270.98 211.735 1270 208M1612 213C1615.11 211.922 1616.48 210.918 1618 208C1615.02 209.099 1613.72 210.333 1612 213M865 217C872.307 218.528 878.451 222.822 886 223C882.321 216.165 873.925 219.034 869 214C866.791 214.684 866.297 215.08 865 217M1223 218C1218.69 224.531 1217.14 231.231 1213.84 238C1211.72 242.345 1207.88 246.38 1204.71 249.999C1201.85 253.271 1198.32 257.298 1194 258.587C1191.33 259.385 1188.69 258.439 1186 258.336C1183.19 258.228 1180.7 258.546 1178 257.502C1173.46 255.748 1170.87 252.378 1169.06 248C1168 245.407 1166.78 240.636 1163.18 240.636C1159.96 240.636 1159.5 245.84 1158.43 247.985C1155.68 253.5 1150.14 260.268 1145.71 264.561C1140.96 269.167 1134.55 273.958 1128 275.471C1124.41 276.3 1120.64 275.906 1117 276.428C1113.06 276.993 1108.96 278.469 1105 278.591C1100.03 278.744 1095.86 271.956 1091.11 274.801C1082.93 279.691 1091.81 289.486 1086.59 294.258C1083.13 297.42 1077.13 295.294 1073 296.893C1068.29 298.719 1066.24 303.48 1062.9 306.911C1059.9 309.986 1055.43 312.314 1053.33 316.171C1050.57 321.259 1055.25 326.699 1053.83 332C1052.49 336.989 1048.47 341.645 1045.81 346C1040.69 354.384 1036.7 366.319 1028.83 372.562C1025.25 375.402 1022.55 373.956 1019.75 371C1018.23 369.406 1016.08 366.5 1013.73 368.662C1010.55 371.586 1011.98 379.058 1010 382.999C1007.35 388.281 1002.25 391.428 998.681 396.004C995.571 399.991 993.852 405.424 989.895 408.681C985.443 412.347 981.51 409.493 978.089 405.981C971.254 398.961 964.536 391.639 958.406 384.018C955.742 380.708 948.922 375.307 944.762 379.743C941.94 382.751 945.502 386.372 948.019 388.005C951.11 390.011 954.831 390.248 958 391.988C963.41 394.958 969.726 401.646 972.768 407C978.396 416.904 966.16 425.631 957 423.468C952.387 422.378 948.548 419.338 944 418C947.182 424.544 955.971 427.428 958.214 434.039C959.536 437.936 956.549 444.092 951.985 443.914C947.291 443.73 945.012 439.278 940 440C941.845 443.038 945.218 444.947 946.806 448.093C948.325 451.101 947.326 454.951 943.891 455.972C940.808 456.889 937.196 455.734 934 456.213C930.502 456.737 927.404 458.599 924 459.486C921.54 460.127 918.349 460.215 916.662 462.43C913.135 467.061 922.169 469.356 923.11 473.105C923.799 475.852 921.642 478.145 919.941 479.996C915.44 484.893 910.706 488.396 904 489C904.844 495.685 905.546 502.745 898.906 506.911C895.914 508.789 892.005 508.831 889.433 511.43C884.804 516.106 886.021 526.209 876.093 522.107C872.188 520.493 870.091 516.115 867.535 513C863.055 507.539 857.772 502.066 852 498C851.382 501.332 850.636 504.669 851.7 508C852.973 511.986 857.411 516.445 854.957 520.852C852.943 524.468 848.441 524.052 845 523.331C837.603 521.78 830.316 520.469 825.638 513.996C821.594 508.4 816.908 497.99 816.789 491C816.72 486.925 818.696 483.078 818.895 479C819.238 471.987 818.629 466.067 820 459C816.576 457.091 813.034 455.044 810.572 451.907C808.863 449.73 808.316 445.868 805.687 444.603C802.691 443.163 798.23 444.102 795 443.961C788.094 443.658 780.149 442.995 774.004 439.583C765.712 434.979 763.481 423.663 754 421C754.458 427.818 763.416 434.455 760.816 440.999C757.777 448.652 749.655 450.88 743 454.131C736.801 457.16 729.386 462.741 724.3 467.39C719.884 471.427 717.333 476.933 711 478.427C697.656 481.576 693.264 466.538 697.916 457.001C700.721 451.25 706.774 449.926 710 445C705.221 445.607 698.692 448.115 694.015 446.393C690.537 445.112 687.128 440.817 688.933 437.043C691.271 432.154 697.514 431.053 700 426C694.742 426.003 677.56 428.922 680.964 418.025C681.515 416.259 683.009 414.53 684 413C680.822 412.311 677.118 413.549 674.109 412.382C664.902 408.81 676.417 393.788 678 388C672.377 390.592 671.48 395.99 666.787 399.242C659.334 404.408 652.945 393.611 651 388C645.996 390.712 631.811 392.429 630.643 383.956C630.034 379.531 633.548 374.509 634 370C630.301 371.074 628.31 373.811 624.961 375.544C621.853 377.152 618.247 376.943 615 378.133C612.207 379.158 609.842 381.213 607 382.067C603.751 383.044 600.215 381.663 597 381.083C585.751 379.054 578.858 375.692 574 365C570.792 373.219 581.971 385.48 574.682 392.566C572.355 394.829 568.848 394.991 566 396.265C562.219 397.958 559.756 399.503 556.043 396.612C550.809 392.536 550.146 383.137 544 381C545.693 390.499 553.687 397.849 549.517 407.999C548.11 411.425 545.274 415.711 540.999 415.069C537.905 414.605 534.932 412.109 532 411C532.64 415.885 529.844 418.47 529.436 423C529.146 426.222 532.214 428.707 531.887 431.772C531.437 435.99 523.859 434.998 521 435C522.335 438.074 524.126 440.753 525 444C520.664 440.302 515.623 437.732 514 432L519 434C512.685 426.63 506.683 417.092 497 414C497.926 418.654 495.41 423.766 496.782 427.96C497.922 431.444 501.567 433.716 504.05 436.184C508.307 440.416 511.829 445.354 515.611 450C518.586 453.655 521.744 458.081 526.011 460.328C532.04 463.502 532.82 457.341 531.134 453.025L529 448C535.602 450.251 542.18 459.203 532.981 463.297C523.801 467.383 510.878 464.752 501 466C504.819 471.017 512.47 468.222 517.951 469.148C522.003 469.832 521.7 472.603 519.058 474.976C518.241 475.71 516.862 476.44 516 477C520.11 480.852 534.338 481.437 528.394 490.671C527.811 491.576 526.818 492.218 525.986 492.861C524.772 493.799 523.368 494.347 522 495C526.33 496.821 534.754 495.587 531.689 502.843C531.26 503.859 530.5 505.064 530 506C536.793 506.08 543.716 511.174 542.911 519C542.624 521.792 538.992 525.753 541.647 528.342C544.398 531.024 548.247 526.859 551 526.324C558.816 524.804 560.98 533.308 561 539C563.28 538.441 565.664 537.104 568.002 536.924C576.133 536.299 577.901 545.004 582.648 549.147C584.397 550.672 586.842 551.001 588.583 552.562C590.275 554.08 591.034 557.513 593.313 558.248C595.508 558.956 596.81 556.416 597.781 554.957C599.739 552.015 601.984 548.932 606.001 549.539C611.903 550.429 615.722 556.355 614.652 562C613.437 568.412 607.061 577.092 602 581C598.763 574.66 593.516 569.647 589.239 564C586.083 559.833 584.278 555.517 579 554C579.818 566.188 593.62 572.533 596.987 584C598.35 588.642 594.003 595.405 589.005 595.852C587.046 596.027 584.776 594.673 583 594C583.046 599.585 584.816 615.096 574 612.402C570.342 611.491 567.457 607.61 564 606C565.526 611.283 571.344 616.586 571.265 622C571.17 628.567 565.352 630.142 561 633.294C558.802 634.886 556.901 637.154 554 637.303C549.638 637.528 544.395 634.494 540 633.755C534.348 632.804 528.245 632.676 523 630.175C513.414 625.605 506.22 617.135 497 611.873C484.675 604.838 471.259 600.929 458 596.305C453.3 594.666 448.36 592.901 444 590.485C438.057 587.193 434.471 582.421 428 587C432.301 592.016 438.428 592.827 444 595.905C452.588 600.649 459.834 606.591 469 610.576C474.425 612.934 481.26 616.401 485 610C492.042 612.402 498.042 616.489 504 620.884C506.66 622.847 510.12 624.88 511.397 628.09C512.88 631.82 512 637.045 512 641C516.611 640.789 521.606 637.563 526 638.092C531.377 638.739 535.964 644.115 541 646.006C544.62 647.366 549.377 646.117 552.121 649.318C560.807 659.448 551.183 678.724 540 682.357C531.188 685.22 524.288 678.877 517 676C520.139 669.633 527.845 669.413 531 663C527.894 663.064 524.969 663.297 522 664.301C511.112 667.984 492.455 682.331 482.653 668.956C481.323 667.141 480.654 665.12 480.001 663C479.245 660.548 477.67 657.61 477.904 655C478.524 648.054 487.177 645.795 491.941 642.532C493.718 641.315 496.521 638.861 494.338 636.629C490.778 632.989 479.855 639.489 476 640.789C470.305 642.708 466.357 639.678 461 638.039C457.043 636.829 452.864 636.28 449.001 634.751C446.319 633.689 443.532 631.924 442.661 628.985C441.594 625.381 444.676 622.166 445.856 619C447.06 615.772 446.991 612.39 447 609C441.64 610.034 437.317 614.9 432 615.368C427.231 615.788 423.853 610.749 419 611.807C411.277 613.492 404.7 621.186 396.004 619.593C385.833 617.73 392.771 600.176 383.035 600.908C378.768 601.229 375.268 606.865 371.999 609.211C366.417 613.218 357.969 616.839 351.004 617.186C346.377 617.417 344.874 613.601 343.189 610.019C342.257 608.038 340.915 604.949 338.158 606.176C334.661 607.732 333.514 613.098 330.787 615.656C326.584 619.598 321.629 617.597 317.133 620.179C313.265 622.401 313.537 627.757 309.775 629.968C305.756 632.332 300.279 628.15 296.728 631.604C291.543 636.647 293.861 646.485 288.721 651.772C285.901 654.672 282.631 655.04 279 653.598C277.042 652.82 272.878 649.974 271.137 652.622C268.877 656.057 275.094 661.497 273.539 666C272.365 669.398 269.74 672.798 265.996 673.258C263.34 673.584 258.973 672.015 257.083 674.742C254.606 678.314 261.102 682.476 261.36 686.015C261.483 687.687 260.864 689.46 260.285 691C256.647 700.672 249.115 697.067 241 697C242.323 704.822 253.178 703.008 254.392 710.055C255.527 716.644 248.343 718.884 246.774 724.17C246.024 726.695 247.33 729.429 247.171 732C246.945 735.64 244.129 738.429 243.877 742C243.628 745.538 246.344 748.502 246.343 752C246.343 755.121 244.073 758.144 243 761L252 762C251.635 764.956 250.461 768.724 252.746 771.185C255.36 774.001 261.286 774.438 261.824 779.043C262.372 783.732 255.907 788.994 255 794C258.734 792.808 262.181 789.332 265.985 788.792C275.674 787.417 267.881 799.141 266 802C269.181 801.462 272.788 799.736 276 800.786C285.026 803.736 291.535 817.859 294.684 826C296.492 830.674 298.773 835.406 300.874 839.941C301.621 841.554 302.835 843.364 304.841 843.364C307.915 843.364 310.686 836.875 313 835C313.506 838.651 311.211 843.413 313.043 846.675C314.864 849.918 320.944 851.69 320.944 855.899C320.944 860.016 308.351 862.671 312.662 867.411C314.536 869.471 317.878 868.793 319.895 867.396C324.16 864.443 325.408 856.826 331.004 855.693C333.772 855.132 336.122 857.418 338 859.097C342.16 862.816 345.9 866.844 351 869.33C354.428 871.001 359.949 871.04 362.353 874.303C364.411 877.097 362.479 880.473 360.467 882.671C356.328 887.192 349.889 888.654 345.044 892.221C342.88 893.814 338.894 897.496 342.362 899.972C347.993 903.992 358.865 896.331 365 896.04C369.421 895.831 373.93 896.187 378 898.046C381.069 899.447 384.26 902.346 387.891 901.627C393.235 900.569 390.974 893.692 393.742 890.434C396.058 887.708 399.814 888.52 402.57 886.683C408.583 882.676 405.761 871.929 403 867C407.317 865.203 414.103 860.07 418.957 861.546C423.208 862.838 425.051 868.764 427.529 872C429.536 874.622 432.362 876.902 433.655 880C435.581 884.614 433.957 888.013 440 889C441.466 883.911 447.08 877.329 444.639 872.001C442.487 867.304 437.479 864.652 434.113 860.961C432.925 859.656 430.751 857.43 431.461 855.427C432.966 851.184 439.181 858.838 440.116 860.003C442.619 863.124 445.937 865.867 448.147 869.17C449.643 871.407 449.877 874.342 451.728 876.351C456.656 881.704 463.641 881.05 464.772 890C464.935 891.289 464.95 892.727 464.652 893.999C462.942 901.292 458.427 900.917 453 897.627C450.845 896.32 447.236 894.087 445.603 897.323C442.697 903.083 447.695 918.662 435.999 917.377C434.949 917.262 433.898 916.632 433.005 916.121C430.918 914.927 429.009 913.322 427 912C426.794 914.627 426.15 917.366 426.425 920C426.713 922.752 428.073 925.188 427.323 928C425.458 934.99 419.655 941.462 419.233 949C419.079 951.748 420.995 953.629 422.017 956C423.282 958.936 423.71 963.865 422.972 967C422.095 970.726 418.608 973.544 417 977C418.332 977.321 419.753 977.536 421.001 978.147C430.462 982.778 421.777 989.652 420 996C421.39 996.413 422.765 996.7 424.029 997.456C432.177 1002.33 427.472 1008.2 425 1015C427.936 1014.85 431.112 1013.5 433.985 1013.69C442.795 1014.28 439.511 1025.74 441.603 1030.9C443.023 1034.39 447.165 1035.61 448.731 1039.04C451.822 1045.82 445.228 1053.11 443 1059C445.054 1058.68 447.778 1057.67 449.817 1058.4C455.694 1060.51 458.891 1070.6 457.033 1076C453.987 1084.86 447.042 1088.49 441.419 1095.17C439.236 1097.77 438.491 1100.74 438 1104C444.567 1103.26 447.101 1098.22 452.001 1094.39C455.47 1091.69 459.573 1090.41 462.471 1086.95C464.691 1084.29 466.576 1078.38 470.184 1077.35C475.125 1075.93 478.482 1084.97 483.004 1086.12C487.16 1087.19 491.36 1082.92 495 1081.48C500.921 1079.13 508.655 1080.28 514 1083.69C517.067 1085.64 523.461 1089.7 522.519 1094C521.916 1096.76 518.777 1098.78 519.175 1101.81C519.705 1105.84 525.981 1106.51 528.277 1109.28C529.972 1111.32 530.439 1114.7 533.129 1115.82C539.325 1118.4 539.929 1106.42 540 1103C548.558 1104.74 548.451 1110.36 545 1117C549.622 1115.64 551.572 1112.47 553 1108C563.115 1113.31 552.924 1121.08 551 1128C556.484 1128.89 561.422 1125.28 563.397 1120C564.498 1117.06 563.778 1113.83 565.742 1111.15C567.779 1108.37 570.808 1108.06 574 1108C583.862 1107.84 594.366 1110.51 604 1112.49C607.881 1113.28 611.605 1113.2 614.956 1115.65C621.788 1120.66 619.828 1139.58 632.941 1136.52C638.647 1135.19 637.215 1126.31 636.714 1122C635.77 1113.88 639.487 1102.08 648.015 1098.74C657.964 1094.84 664.502 1104.69 673 1107C678.713 1101.02 686.508 1111.2 693 1112.61C699.35 1113.99 708.648 1113.79 715 1112.49C719.659 1111.53 724.212 1109.49 729 1109.21C734.999 1108.87 739.258 1113.71 745 1113.79C748.172 1113.83 758.239 1112.62 759.914 1109.7C761.928 1106.19 757.253 1104.16 755.208 1102.37C749.506 1097.35 746.781 1089.38 740.911 1084.23C735.67 1079.63 729.854 1082.48 724 1080.14C707.99 1073.74 707.003 1056.52 710.532 1042C712.061 1035.71 717.775 1031.43 718.786 1025C719.459 1020.72 716.528 1011.82 719.618 1008.6C722.585 1005.52 728.318 1007.73 731.892 1005.26C736.091 1002.35 736.412 996.854 739.419 993.039C743.939 987.307 753.857 984.236 756.214 976.997C757.293 973.681 755.494 970.519 751.956 970.242C746.602 969.822 741.126 975.81 736.279 971.551C733.266 968.904 733.008 964.726 733.008 961C733.007 950.747 740.986 940.412 749.015 934.434C754.4 930.423 759.995 933.237 766 932.892C772.245 932.533 775.996 929.064 782 932.714C785.42 934.794 795.898 945.464 799.957 940.254C803.222 936.063 796.417 927.215 793.535 924.532C789.16 920.46 782.614 920.974 778.319 917.146C773.17 912.558 779.711 899.03 784.108 895.653C790.174 890.993 800.064 893.844 803.991 900.043C807.389 905.409 808.159 914.753 809 921C812.718 917.167 813.714 908.17 820.005 907.531C822.93 907.234 826.23 909.21 829 910L830 906C825.903 904.085 820.35 901.66 817.711 897.815C814.921 893.749 818.552 889.816 823 890.453C827.491 891.096 830.657 895.005 834 897.664C837.078 900.111 840.67 901.653 844 903.705C846.724 905.384 850.377 908.639 853.786 906.917C856.696 905.448 858.376 901.056 856.929 898.105C854.762 893.687 848.465 892.526 845.279 888.895C841.507 884.597 841.783 877.636 848.014 875.693C850.202 875.011 852.792 875.729 855 876C856.02 866.108 863.293 867.399 868.348 860.891C872.999 854.904 872.545 847.542 879.015 842.394C882.648 839.504 894.305 833.681 898.725 836.697C902.098 838.998 902.448 843.783 906.105 846.012C914.849 851.343 925.482 853.314 934 859.428C940.537 864.12 946.42 873.58 954 876.242C959.13 878.044 962.024 873.582 966.039 871.438C970.76 868.918 976.778 868.661 982 868C981.298 858.986 974.056 864.084 968 862.679C964.779 861.932 962.362 858.697 959 858.62C955.127 858.531 951.18 864.133 947.333 861.292C942.322 857.59 950.736 851.159 944.848 847.442C935.298 841.414 922.221 849.015 914.742 837.907C906.798 826.107 922.295 818.774 932 819.043C936.718 819.174 941.752 822.293 946 824.154C953.437 827.41 959.711 832.552 967 836C966.613 831.59 965.438 827.556 962.607 824.039C959.787 820.536 955.057 817.912 954.583 812.999C954.049 807.476 959.479 802.171 961 797C957.738 795.105 954.724 793.664 951 793L952 799C947.111 799.658 939.911 803.269 935.133 801.382C931.753 800.047 929.483 794.393 932.41 791.603C934.161 789.934 936.774 790.072 939 790C937.584 787.601 935.467 784.959 935.8 782.001C936.568 775.172 945.566 773.551 950.911 775.742C956.279 777.944 958.258 784.579 965 783.651C973.51 782.481 972.535 776.595 971.95 770C971.633 766.429 972.184 764.07 969 762L969 767C960.341 766.347 956.189 759.057 956 751L962 753C961.63 741.332 973.466 748.123 977.816 753.004C983.622 759.52 986.537 767.58 990.877 775C993.293 779.132 997.404 781.983 999.683 786.089C1001.15 788.736 1001.3 792.091 1002 795L1008 794C1006.57 788.482 1002.58 783.814 999.576 779C993.993 770.036 988.442 761.051 983 752C980.46 747.776 974.976 742.046 974.647 737C973.973 726.657 989.959 724.613 997 726.237C1007.62 728.687 1013.52 735.449 1022 741.49C1026.44 744.65 1031.62 746.226 1036 749.669C1041.03 753.621 1044.93 758.648 1051 761C1045.59 751.646 1035.75 742.992 1027 736.723C1020.54 732.094 1013.61 730.96 1009.7 723C1006.4 716.289 1015.9 713.095 1014.25 707.43C1013.26 704.031 1004.88 704.792 1006.35 700.133C1008.21 694.225 1017.92 695.812 1021 691C1015.58 690.885 997.532 686.671 1006.24 678.317C1008.61 676.047 1011.97 675.842 1015 675.102C1021.77 673.447 1027.1 672.783 1034 674.468C1040.94 676.164 1039.37 681.098 1043.6 684.914C1046.22 687.284 1050.07 687.312 1052.44 690.225C1054.36 692.587 1054.03 697.234 1056.59 698.918C1059.05 700.539 1063.29 698.187 1066 698.069C1072.08 697.803 1083.56 698.236 1088.99 701.028C1096.91 705.102 1096.94 713.122 1101.02 719.486C1102.76 722.198 1106.66 725.362 1109.42 726.991C1112.79 728.977 1120.16 731.204 1124 731.867C1126.04 732.221 1127.96 731.207 1130 731.459C1132.83 731.809 1135.03 733.829 1138 733.667C1140.49 733.532 1142.58 732.011 1145 731.598C1147.54 731.163 1150.32 732.594 1152.67 731.188C1156.99 728.607 1157.84 722.184 1159.75 718C1161.56 714.029 1164.56 710.405 1165.33 706C1166.02 702.108 1163.1 699.635 1162.61 696C1162.2 692.937 1164 690.077 1163.61 687C1163.07 682.771 1161.05 679.451 1161 675C1153.67 674.913 1152.63 671.043 1146.91 667.707C1144.72 666.43 1142.42 667.505 1140.23 666.602C1134.76 664.338 1140.23 660.127 1143 659C1142.25 655.768 1140.59 652.335 1140.58 649C1140.55 633.625 1156.96 627.168 1168 620.551C1172.29 617.976 1183.13 610.559 1188.47 614.117C1190.12 615.214 1189.89 617.331 1189.53 619.005C1188.66 623.09 1186.29 630.611 1182.61 632.972C1180.5 634.325 1177.56 633.458 1175.6 635.028C1173.11 637.034 1174.35 641.317 1177.15 642.307C1190.94 647.184 1186.46 626.205 1194.11 621.711C1198.41 619.184 1204.57 625.144 1209 626C1208.96 621.438 1207.75 617.443 1207 613C1208.68 613.04 1210.38 612.994 1212.02 613.419C1222.47 616.12 1217.97 627.362 1217 635C1223.31 630.863 1222.62 621.136 1229.1 616.858C1232.04 614.919 1235.63 615.028 1239 615C1237.9 617.254 1232.89 621.223 1233.75 623.772C1234.8 626.879 1241.57 624.943 1244 625.177C1254.6 626.204 1262.32 634.749 1273 635C1273.62 631.675 1273.2 626.263 1275.6 623.699C1281.44 617.455 1291.48 618.631 1299 617.826C1302 617.506 1304.96 616.3 1308 616.502C1311.11 616.71 1313.92 618.348 1317 618.79C1320.15 619.243 1323.65 618.354 1326.71 619.179C1331.83 620.554 1334.41 625.873 1340 627C1345.42 615.39 1339.08 607.572 1334.12 597C1332.16 592.831 1331.36 587.968 1329.07 584C1327.17 580.724 1322.58 577.924 1322.06 574C1321.65 570.899 1324.71 568.146 1327 566.564C1331.01 563.797 1337.23 562.681 1342 563.304C1345.89 563.811 1350.16 565.918 1353.96 563.968C1359.03 561.367 1361.3 552.046 1368 552.662C1374.55 553.264 1376.68 562.189 1383 564L1383 555L1392 557C1390.28 563.624 1388.1 568.198 1397 570C1396.94 567.216 1396.65 564.709 1396 562C1399.04 561.276 1401.88 561.026 1405 561C1406.12 553.96 1410.09 551.321 1417 551C1416.76 549.425 1416.27 547.67 1416.77 546.085C1418.35 541.13 1426.16 542.514 1424.21 547.877C1423.69 549.326 1422.11 550.135 1421 551C1422.11 553.699 1424.7 556.933 1424.45 559.957C1424.06 564.876 1415.39 567.267 1412 570C1416.81 575.62 1422.75 577.785 1426 585C1424.2 585.635 1421.94 586.165 1420.64 587.698C1416.28 592.865 1426.59 595.832 1430 595.739C1434.33 595.622 1440.08 593.173 1435.56 588.418C1433.32 586.056 1430.06 585.461 1427 585L1430 580C1435.21 582.089 1436.52 579.003 1439.8 575.4C1444.59 570.133 1447.08 567.885 1445.85 560C1445.07 554.954 1440.68 552.025 1437 549C1435.2 547.517 1432.09 545.617 1432.05 542.961C1432.01 539.931 1437.73 531.68 1441.1 532.287C1443.89 532.787 1448.42 536.967 1450.93 533.396C1452.98 530.474 1449.18 526.108 1449.09 523C1448.78 512.432 1458.47 505.758 1468 508C1468.57 504.543 1466.2 501.36 1466.97 498.089C1468.35 492.216 1478.47 487.594 1484 488.873C1487.15 489.602 1489.97 491.852 1493 493C1492.76 489.842 1491.69 486.136 1494.33 483.702C1497.16 481.105 1510.07 480.022 1507.74 474.13C1505.63 468.774 1498.76 472.538 1495 472.686C1491.53 472.823 1487.67 470.88 1485.24 468.471C1482.32 465.584 1483.26 461.605 1482.03 458C1479.83 451.523 1476.63 445.953 1479.7 439.018C1483.04 431.467 1501.03 428.622 1508 431C1505.53 442.887 1523.03 433.352 1519.39 424.059C1516.48 416.608 1509.4 424.254 1505 425.255C1499.85 426.427 1489.66 422.862 1486.32 418.891C1479.8 411.158 1494 399.745 1484.94 394.573C1478.6 390.955 1470.04 395.396 1463 392.517C1459.19 390.959 1456.03 388.259 1453.56 384.997C1451.39 382.138 1450.34 378.741 1446.89 377.133C1441.23 374.489 1429.72 374.616 1427.89 366.999C1427.15 363.918 1429.78 361.961 1432.02 360.44C1437.76 356.538 1444.2 353.823 1450 350C1441.58 346.502 1432.86 355.702 1425 358C1425.52 352.882 1427.54 345.351 1430.7 341.209C1433.92 337 1438.76 335.093 1438.84 329.001C1438.95 320.208 1428.03 321.335 1423.94 326.613C1419.14 332.801 1422.36 342.053 1421 349C1418.81 346.37 1416.91 343.047 1413.9 341.279C1409.06 338.442 1403.38 338.5 1401.7 331.999C1400.53 327.506 1403.51 322.677 1405.74 319C1406.72 317.385 1409.06 314.656 1407.83 312.623C1406.29 310.089 1402.57 312.78 1401 313.758C1396.25 316.716 1388.78 318.352 1387 324C1391.75 324.056 1394.75 324.541 1397 329C1393.84 330.06 1390.93 331.405 1388 333C1388.86 336.069 1390.37 339.771 1389.22 342.945C1387.21 348.453 1374.22 351.497 1369 350.606C1365.13 349.946 1359.94 347.888 1357.41 344.786C1354.96 341.783 1356.1 336.112 1350.98 335.731C1348.22 335.526 1345.85 337.398 1343 337.107C1331.02 335.886 1320.25 330.261 1308 332.773C1301.25 334.158 1295.75 345.259 1289.01 343.878C1281.7 342.377 1279.92 329.516 1276.65 324C1274.52 320.412 1271.64 315.742 1268.51 312.965C1265.54 310.342 1261.9 308.818 1259.04 305.957C1252.73 299.642 1247.21 288.981 1247 280C1239.36 280.853 1240.02 275.089 1243.64 270C1248.25 263.518 1253.99 259.188 1262 259C1257.99 247.362 1250.66 258.502 1244 261.471C1239.31 263.559 1234.47 264.359 1230 267.068C1227.44 268.623 1224.25 271.655 1221 271.119C1217.19 270.49 1211.6 264.92 1209.36 261.911C1205.96 257.333 1210.28 252.111 1212.57 248C1215.93 241.984 1217.16 235.204 1220.25 229C1222.01 225.452 1224.36 221.934 1223 218M1601 220C1602.58 219.317 1602.78 219.195 1604 218C1601.91 218.406 1601.98 218.217 1601 220M1440 241C1449.66 238.676 1455.8 228.594 1457 219C1447.97 221.146 1437.92 231.311 1440 241M1538 258C1550.68 257.73 1559.97 250.772 1570 244.105C1575.08 240.726 1581.27 238.665 1585.89 234.61C1588.18 232.606 1589.29 229.717 1591.49 227.698C1594.33 225.105 1597.53 224.127 1600 221C1583.46 225.774 1571.68 240.052 1557 248.096C1550.86 251.458 1541.88 251.67 1538 258M1083.6 223.157C1081.87 224.314 1083.66 227.001 1085.4 225.843C1087.13 224.686 1085.34 221.999 1083.6 223.157M1053 241C1062.08 240.315 1064.65 231.996 1065 224C1057.24 226.638 1053.19 233.011 1053 241M1141 230C1141.51 237.601 1146.02 245.109 1154 246C1152.4 239.199 1147.31 232.947 1141 230M1102 236L1102 238L1104 238L1104 236L1102 236M794 270C796.251 257.687 786.802 252.994 779.286 244.964C777.138 242.671 772.483 236.327 768.607 239.072C765.048 241.593 769.257 247.687 770.928 250C776.703 257.992 783.981 267.815 794 270M1169 241C1169.4 243.301 1169.96 244.905 1171 247C1171.74 244.265 1170.92 243.032 1169 241M599 248C601.656 257.201 608.516 264.716 613.138 273C615.946 278.032 617.593 283.341 623 286C620.443 277.306 614.91 270.474 610.089 263C606.632 257.639 604.148 251.973 599 248M1044 256C1038.23 265.138 1035.75 276.015 1031.8 286C1028.79 293.583 1023.95 299.777 1020.38 307C1018.79 310.205 1018.56 313.822 1017.03 317C1013.58 324.146 1006.23 327.984 1001.7 334.17C999.108 337.718 999.378 341.964 998.212 346C996.91 350.511 994.302 354.48 993 359C1010.01 351.044 1012.19 332.847 1019.9 318.17C1021.8 314.554 1024.85 311.698 1026.73 308C1029.04 303.444 1030.19 298.319 1032.97 294C1035.48 290.096 1039.41 287.232 1041.43 283C1043.47 278.71 1043.1 273.578 1044.12 269C1045.24 264.027 1048.1 261.058 1046 256L1044 256M826 265C828.881 263.15 829.855 261.206 831 258C827.758 259.698 826.726 261.427 826 265M1441 258C1436.49 259.275 1434.26 262.463 1430.91 265.576C1423.22 272.729 1413.04 281.21 1414.2 293C1414.63 297.345 1416.84 302.693 1420.21 305.566C1421.92 307.018 1425.18 308.593 1426.97 306.381C1430.77 301.698 1423.27 295.444 1422.88 291C1422.59 287.798 1425.71 285.234 1427.56 283C1432.66 276.847 1442.7 266.247 1441 258M1219 259L1219 262C1220.2 260.777 1220.32 260.58 1221 259L1219 259M1502 264C1506.58 265.788 1511.05 263.431 1515 261C1510.35 259.106 1506.06 261.64 1502 264M1014 275C1018.45 276.85 1026.98 275.965 1030 272C1024.12 272.004 1019.49 272.885 1014 275M1532 277C1534.63 276.161 1535.16 275.626 1536 273C1533.37 273.839 1532.84 274.373 1532 277M1247 276L1247 279C1247.7 277.446 1247.7 277.554 1247 276M1594 285C1593.28 272.015 1572.24 276.241 1566.75 284.185C1563.07 289.507 1568.24 295.144 1574 293.141C1581.39 290.571 1585.65 285.196 1594 285M998 278C1000.05 278.874 1001.75 278.953 1004 279C1001.95 278.126 1000.25 278.047 998 278M2022 279L2023 283C2023.55 280.992 2023.3 280.668 2022 279M1884 282C1885.16 289.851 1888.96 296.825 1892.14 304C1893.73 307.591 1894.56 310.917 1898 313C1895.73 303.434 1890.18 289.651 1884 282z"/>
<path style="fill:#fefefe; stroke:none;" d="M1098 283C1098.41 285.093 1098.22 285.02 1100 286C1099.32 284.42 1099.2 284.223 1098 283z"/>
<path style="fill:#020202; stroke:none;" d="M1438.96 284.89C1434.24 286.122 1433.08 294.776 1438.81 293.248C1442.64 292.226 1444.34 283.486 1438.96 284.89M1476 284L1476 286C1477.63 285.455 1477.45 285.635 1478 284L1476 284M2026.33 284.667C2026.28 284.723 2026.22 285.777 2026.67 285.333C2026.72 285.278 2026.78 284.222 2026.33 284.667M1062 287C1062.61 294.968 1070.38 294.767 1071 287L1062 287M2032 292L2033 293L2032 292M1455 298L1461 296C1458.12 294.902 1456.65 295.446 1455 298M1820 298C1820.73 301.425 1821.72 302.748 1825 304C1824.07 300.76 1823.01 299.505 1820 298M1445 304C1446.58 303.317 1446.78 303.195 1448 302C1445.91 302.406 1445.98 302.217 1445 304M1827 308C1827.93 311.334 1829.24 312.913 1832 315C1831.07 311.666 1829.76 310.087 1827 308M1363 311C1354.18 309.033 1358.79 319.261 1363 311M875 313C872.709 321.014 870.353 326.499 871 335C877.998 329.504 876.978 321.173 877 313L875 313M1807 316C1807.32 319.9 1807.95 323.639 1810 327C1811.06 322.652 1809.82 319.419 1807 316M1345 329C1345.9 331.124 1345.88 331.101 1348 332C1347.1 329.876 1347.12 329.899 1345 329M902.434 332.043C896.855 335.689 903.989 341.533 907.001 343.655C915.833 349.879 924.191 355.259 935 357.079C938.36 357.646 942.771 358.865 945.681 356.397C950.219 352.548 945.656 347.53 941.995 345.363C933.316 340.226 922.312 337.944 913 334C910.078 332.763 905.563 329.999 902.434 332.043M886 355C887.556 357.85 888.793 358.503 892 359C890.925 355.479 889.661 354.68 886 355M655 378C657.518 375.904 658.815 374.057 660 371C656.313 372.193 655.596 374.29 655 378M891 373C894.905 380.644 907.92 388.442 916 391C910.207 382.844 900.654 375.781 891 373M2064.04 380.746C2058.8 382.806 2058.79 388.349 2059.9 393C2061.78 400.931 2068.28 419.339 2079.98 413.782C2092.03 408.056 2081.25 391.111 2075.7 385.044C2072.74 381.804 2068.6 378.957 2064.04 380.746M1507 389C1509.53 389.537 1511.51 388.78 1514 388C1511.33 387.201 1509.57 387.922 1507 389M2019 390C2020.91 393.727 2032.5 402.468 2035.82 395.722C2036.94 393.459 2034.6 391.568 2032.94 390.483C2028.32 387.473 2023.83 387.964 2019 390M917 391C919.173 396.869 925.248 400.179 931 402C928.24 396.598 922.214 393.776 917 391M1928 398C1928.04 411.165 1935.69 420.386 1940.66 432C1941.5 433.944 1943.6 444.261 1947.43 441.824C1950.64 439.774 1946.33 432.419 1945.43 430C1942.67 422.677 1940.36 415.259 1937.4 408C1935.36 403.014 1933.69 398.9 1928 398M2052 458C2054.25 450.38 2050.98 443.562 2050.17 436C2048.92 424.337 2049.65 413.6 2047 402C2041.45 403.841 2043.42 410.291 2041.52 415C2038.93 421.409 2031.07 430.476 2036.6 437.671C2039.33 441.22 2044.53 441.545 2047.06 445.225C2049.7 449.05 2049.26 454.161 2052 458M836 405C837.38 409.053 839.339 412.897 840.56 417C843.31 426.237 844.515 438.797 854 444C853.782 439.744 851.913 436.147 851.368 432C850.917 428.571 852.099 425.331 850.707 422C849.302 418.638 846.568 416.057 844.663 413C842.089 408.87 841.746 404.163 836 405M941 423C930.942 426.57 919.205 425.149 909 421.695C905.912 420.65 900.456 418.737 898.992 423.143C896.799 429.742 905.62 428.231 909 428.85C917.406 430.388 939.994 436.185 941 423M1562 424L1562 420C1559.94 420.007 1557.24 419.647 1555.34 420.599C1551.56 422.489 1555.73 424.571 1557.97 424.516C1559.27 424.485 1560.72 424.158 1562 424M865 440L867 440C868.183 437.672 869.223 435.489 870 433C866.103 434.157 864.612 435.919 865 440M1650 437C1644.56 432.951 1638.21 434.135 1632 435.655C1629.76 436.203 1626.56 436.792 1625.66 439.274C1622.55 447.861 1637.87 443.984 1641 442.507C1644.19 441.002 1647.09 438.964 1650 437M1779 445C1786.77 448.735 1797.56 445.242 1799 436C1791.04 436.005 1782.02 436.338 1779 445M2081.28 438.042C2078.61 439.638 2078.15 443.185 2078.04 446C2077.74 454.31 2085.09 460.354 2092.89 455.142C2095.73 453.247 2099.62 446.932 2097.84 443.415C2095.89 439.56 2085.07 435.776 2081.28 438.042M713 445C714.809 445.574 715.069 445.465 717 445C715.341 444.594 714.758 444.691 713 445M1726.6 466.043C1720.23 470.828 1733.64 485.12 1739.56 480.353C1746.3 474.93 1732.3 461.769 1726.6 466.043M1812 465C1812.68 466.58 1812.8 466.777 1814 468L1814 465L1812 465M851 492L854 478C858.012 479.545 862.669 481.994 866.848 479.539C872.431 476.261 866.625 469.073 861.999 468.427C857.109 467.744 854.923 473.228 850.576 473.608C844.777 474.115 841.286 466.418 835.043 469.475C827.181 473.325 826.265 485.553 834.185 489.968C837.049 491.565 839.997 490.18 843 490.135C845.747 490.093 848.388 491.277 851 492M1675 496C1677.01 492.223 1678.37 480.73 1673.62 478.176C1668.27 475.292 1671.54 487.464 1672.03 488.998C1672.81 491.471 1673.79 493.713 1675 496M496 482C494.306 490.81 500.429 495.944 505.826 502C509.675 506.318 513.097 511.119 516.19 516C517.767 518.488 522.342 527.084 526.393 524.824C530.374 522.603 525.475 515.049 523.775 513C520.019 508.472 515.438 504.759 511.924 500C507.297 493.731 504.043 484.277 496 482M1997 501C1997.01 509.858 1998.97 513.854 2008 516C2011.16 511.45 2012.4 504.409 2005.95 501.742C2003.23 500.619 1999.87 501.002 1997 501M1630 520L1651 519C1647.23 508.498 1633.64 510.687 1630 520M2005.6 522.072C2001.97 524.695 2006.61 531.663 2010.4 528.928C2014.03 526.305 2009.39 519.337 2005.6 522.072M2089.61 524.032C2087.77 525.481 2088.3 528.181 2089.18 530C2090.98 533.689 2099.9 542.693 2104.39 538.378C2110.68 532.339 2095.9 519.058 2089.61 524.032M1628 536C1631.82 537.353 1635.37 535.398 1639 534C1635.3 532.906 1631.58 534.835 1628 536M1438.33 540.667C1438.28 540.723 1438.22 541.777 1438.67 541.333C1438.72 541.278 1438.78 540.222 1438.33 540.667M2157 548.668C2144.25 552.291 2147.66 568.276 2161 564.427C2171.96 561.266 2168 545.54 2157 548.668z"/>
<path style="fill:#fefefe; stroke:none;" d="M1400 553C1400.81 555.782 1401.45 556.627 1404 558C1403.5 554.934 1402.96 553.968 1400 553z"/>
<path style="fill:#020202; stroke:none;" d="M501 555C502.942 561.552 508.354 569.707 515 572.258C518.783 573.71 522.51 572.799 525.96 575.434C530.269 578.725 532.284 584.005 536.184 587.671C542.052 593.186 551.309 597.784 559 600C558.563 594.197 554.997 591.318 551.465 587C545.394 579.579 540.957 572.26 532 567.84C528.416 566.071 524.435 567.506 521 565.393C514.37 561.316 509.79 552.663 501 555M2018 650C2018.64 653.465 2019.7 657.547 2018.4 660.985C2015.93 667.496 2006.09 669.626 2000 668.247C1996.44 667.44 1992.22 666.617 1989 664.86C1987.12 663.834 1985.58 662.402 1984 660.971C1979.41 656.802 1963.6 646.417 1960.32 658.103C1959.71 660.254 1960 662.79 1960 665L1956 665C1955.5 659.214 1953.34 653.743 1952.44 648C1951.53 642.196 1951.92 636.659 1950 631C1948.34 632.686 1947.75 633.746 1947 636L1944 636C1941.6 630.894 1937.45 628.607 1933 625.407C1923.1 618.279 1915.51 612.028 1905.02 622.093C1902.98 624.045 1900.99 626.183 1900.32 629C1896.52 644.926 1910.85 655.05 1913.8 669C1914.5 672.297 1916.51 676.535 1915.78 679.926C1914.09 687.848 1908.02 677.491 1907 675C1904.25 678.042 1904.72 680.25 1906 684C1900.45 683.447 1896.19 680.795 1891 679.255C1888.09 678.391 1884.98 679.199 1882 678.62C1875.91 677.438 1869.55 674.365 1864 671.677C1859.29 669.395 1855.53 665.759 1851 663.213C1844.16 659.373 1835.71 658.005 1828 658C1832.29 667.209 1843.25 673.927 1851 680.197C1854.48 683.009 1859.63 686.222 1860.46 691C1861.41 696.444 1855.97 701.2 1852 703.906C1844.57 708.974 1835.38 712.363 1827 715.532C1824.26 716.57 1820.97 716.549 1818.43 718.02C1813.33 720.971 1810.83 727.938 1804.99 729.566C1799.03 731.227 1793.62 727.779 1788 726.514C1783.39 725.476 1778.58 725.421 1774 724.241C1765.34 722.011 1757.22 717.846 1749 714.425C1740.99 711.094 1732.29 709.778 1724 707.28C1712.85 703.92 1702.23 698.858 1691 695.745C1685.7 694.277 1680.32 694.459 1675 693.331C1664.3 691.06 1655.15 686.007 1644 686C1644.42 689.017 1644.84 692.187 1647.3 694.297C1650.12 696.712 1654.55 697.265 1658 698.341C1666.6 701.023 1675.37 703.121 1684 705.72C1692.92 708.407 1701.2 714.011 1710 716.291C1715.93 717.828 1721.15 714.401 1727 715.519C1743.74 718.72 1761.04 726.459 1777 732.424C1788.9 736.874 1804.91 740.233 1809 754C1818.48 751.806 1825.04 750.716 1834 755.88C1837.1 757.665 1841 760.12 1841.5 764.004C1842.06 768.451 1838.62 773.784 1837.43 778C1836.28 782.073 1836.67 788.719 1832.77 791.338C1829.24 793.713 1826.42 789.471 1822.91 789.321C1817.81 789.103 1813.79 793.725 1809 793.573C1804.53 793.432 1800.57 788.885 1796 788C1797.98 791.873 1802.23 795.624 1802.92 799.996C1804.15 807.826 1791.4 809.885 1786 810C1787.23 813.599 1790.92 816.429 1791.51 820.089C1792.62 826.949 1790.32 833.945 1792 841C1787.31 842.499 1780.03 842.945 1776.42 846.433C1774.12 848.652 1773.13 852.101 1772 855C1769.96 854.106 1768.17 853.464 1766 853C1766.65 856.054 1768.01 855.936 1771 856C1765.26 862.705 1755.42 854.652 1748 854C1747.9 864.53 1739.46 870.615 1729 869.903C1724.7 869.61 1720.34 867.163 1716.06 868.897C1710.65 871.089 1711.42 878.18 1715.23 881.566C1718.85 884.784 1725.45 884.72 1730 886C1729.63 888.248 1729.65 893.773 1733.71 891.824C1736.35 890.553 1736.38 886.376 1737.34 884.004C1738.8 880.419 1741.52 877.711 1745 876.051C1752.59 872.436 1756.82 878.385 1764 878.678C1768.01 878.842 1770.3 875.33 1774 874.816C1777.64 874.31 1782.33 876.982 1786 877.561C1795.04 878.985 1805.09 875.624 1810.77 885.015C1814.48 891.149 1816.31 903.038 1810.77 908.532C1806.51 912.757 1789.92 916.652 1796.03 925.678C1799.56 930.897 1806.3 923.558 1810 922.336C1813.77 921.094 1816.49 923.904 1820 924.698C1822.13 925.18 1824.68 924.708 1826.56 926.028C1830.4 928.716 1827.21 934.337 1827.26 938C1827.31 941.308 1828.7 944.761 1826.97 947.892C1824.76 951.889 1819.58 953.033 1817.07 957.019C1812.55 964.182 1811.36 971.311 1803 975C1805.52 988.591 1798.79 1005.48 1787 1013C1790.71 1016.55 1794.56 1014.51 1799 1013C1803.01 1011.63 1808.44 1010.1 1811.15 1006.61C1813.06 1004.14 1813.22 1000.75 1814.57 998C1816.25 994.568 1819.09 991.742 1822 989.329C1827.62 984.672 1839.03 982.031 1841.79 992C1842.52 994.635 1840.01 996.569 1837.99 997.697C1835.38 999.158 1832.01 999.077 1829.63 1000.94C1825.87 1003.88 1822.68 1008.85 1819.17 1012.29C1814.02 1017.32 1810.55 1023.66 1805.7 1028.91C1802.77 1032.08 1798.46 1034.25 1796.32 1038.09C1793.35 1043.39 1794.81 1049.19 1789.89 1053.78C1784.69 1058.63 1776.3 1058.78 1770 1061.78C1761.94 1065.63 1751.5 1076.63 1745 1066C1729.65 1070.27 1721.24 1087.98 1706 1093.73C1700.91 1095.65 1695.24 1095.52 1690 1096.92C1686 1097.99 1682.16 1100.38 1678 1100.75C1673.23 1101.17 1668.78 1098.27 1664 1098.04C1656.41 1097.67 1649.45 1100 1642 1100.83C1636.47 1101.45 1630.31 1100.51 1625 1101.4C1620.01 1102.24 1615.97 1106.78 1611 1108.21C1601.7 1110.9 1590.62 1110.78 1581 1111.01C1569.88 1111.29 1558.05 1111.9 1547 1113.17C1543.93 1113.53 1537.64 1116.24 1541.62 1120.14C1545 1123.46 1553.78 1122.22 1558 1121.56C1565.61 1120.38 1573.45 1119.9 1581 1118.54C1586.67 1117.51 1592.25 1115.07 1598 1114.54C1613.4 1113.13 1630.49 1112.03 1646 1113.09C1658.11 1113.92 1671.98 1117.13 1683.94 1113.86C1689.43 1112.36 1688.55 1105.58 1694.02 1103.4C1697.55 1102 1701.31 1102.14 1705 1101.56C1710.62 1100.68 1716.3 1098.94 1722 1098.72C1726.01 1098.57 1729.99 1099.37 1734 1098.67C1739.61 1097.69 1744.66 1094.55 1750 1092.7C1754.13 1091.27 1757.78 1091.96 1762 1091.53C1767.39 1090.99 1772.61 1089.17 1778 1090.8C1787.99 1093.81 1792.13 1106.3 1786.3 1115C1781.84 1121.63 1773.87 1123.37 1768.01 1128.33C1758.18 1136.66 1753.72 1151.34 1746.75 1162C1744.16 1165.96 1741.54 1171.28 1744.03 1175.96C1747.79 1183.04 1757.31 1182 1764 1182C1765.72 1172.49 1774.43 1168.92 1781 1162.91C1793.26 1151.7 1804.12 1142.17 1810 1126C1811.78 1126.53 1813.42 1126.99 1815.01 1128.01C1823.79 1133.66 1817.19 1144.64 1814.15 1152C1812.91 1155.02 1811.27 1158.6 1813.32 1161.68C1815.18 1164.47 1819.23 1164.01 1821.79 1165.89C1827.82 1170.32 1826.94 1178.39 1836 1178.96C1842.41 1179.36 1849.64 1179.6 1856 1178.7C1860.6 1178.05 1864.8 1176.19 1868.44 1180.23C1872.82 1185.09 1870.52 1189.82 1868.33 1195C1865.45 1201.84 1862.6 1208.55 1856.71 1213.5C1852.95 1216.67 1848.15 1217.96 1845.44 1222.43C1843.28 1226 1845.46 1230.76 1850 1230.34C1853.55 1230.01 1856.36 1226.56 1859 1224.51C1862.14 1222.08 1865.54 1219.83 1869 1217.88C1874.49 1214.78 1879.89 1213.49 1884.58 1209.07C1885.86 1207.85 1887.16 1206.33 1889.02 1206.06C1894.1 1205.32 1892.75 1210.25 1890 1212C1891.63 1214.93 1893.93 1217.43 1893.41 1221C1892.36 1228.25 1883.95 1236.59 1892.06 1242.3C1898.76 1247.02 1913.45 1247.71 1918.46 1239.59C1920.96 1235.52 1924.39 1224.08 1930 1224.24C1933.51 1224.34 1937.35 1228.13 1939.83 1230.31C1942.01 1232.22 1947.63 1234.8 1948.76 1237.31C1951.33 1243.04 1940.95 1253.16 1937 1256C1941.47 1257.88 1947.19 1257 1952 1257L1983 1257L2074 1257L2101 1257C2105.02 1257 2110.17 1257.83 2114 1256.4C2119.42 1254.37 2121.08 1248.42 2123.97 1244C2126.14 1240.67 2129.11 1237.98 2131.71 1235C2137.69 1228.17 2144.8 1217.56 2155 1217.29C2158.24 1217.2 2161.14 1218.86 2164 1220.14C2179.16 1226.95 2180 1241.97 2180 1257C2184.28 1257 2196.07 1259.06 2198.97 1255.4C2201.05 1252.78 2200 1247.12 2200 1244L2200 1214C2200 1209.74 2200.42 1205.22 2199.79 1201C2199.27 1197.56 2197.28 1194.52 2197.15 1191C2196.97 1186.18 2199.91 1181.92 2200 1177C2200.43 1151.68 2200 1126.32 2200 1101L2200 585C2192.99 581.137 2197.75 572.383 2196 566C2192.1 571.069 2194.31 578.66 2190.27 583.725C2188.08 586.483 2178.75 592.23 2175.3 590.172C2173.2 588.919 2172.76 586.062 2171.87 584C2169.57 578.622 2167.6 576.032 2168 570C2161.35 571.051 2161.84 576.99 2156.79 579.972C2154 581.618 2150.1 580.905 2147 581.286C2140.67 582.064 2133.12 586.33 2127 586.038C2123.81 585.885 2121.93 583.295 2119.71 581.363C2117.37 579.316 2114.54 577.879 2112.33 575.671C2110.32 573.663 2109.09 570.533 2106.62 569.032C2103.91 567.381 2096.89 568.144 2094.36 570.024C2091.28 572.318 2094.3 576.326 2095.15 579C2096.61 583.596 2098.39 593.294 2096.4 597.852C2094.2 602.885 2088.86 599.466 2085 600.102C2082.18 600.567 2079.53 602.749 2077 604C2075.02 598.699 2074.49 589.287 2069.77 585.742C2066.2 583.057 2061.13 584.312 2057 583.816C2051.01 583.097 2042.07 580.718 2037.09 577.272C2031.47 573.388 2027.26 566.945 2022.04 562.444C2020.38 561.01 2018.23 558.6 2015.83 558.632C2012.73 558.673 2010.01 561.983 2008.04 564.005C2002.62 569.576 1995.76 577.634 1996.1 585.956C1996.29 590.687 2000.08 590.96 2004 590.995C2010.49 591.055 2019.28 587.711 2024.79 592.434C2028.56 595.669 2035.48 606.9 2034.33 612C2032.93 618.224 2025.04 621.513 2028.7 628.775C2031.96 635.224 2046.24 631.199 2047.37 639.029C2047.8 642.038 2044.09 644.234 2042 645.637C2033.97 651.041 2027.12 650.006 2018 650M559 561C559.328 566.996 561.818 571.043 568 572C567.676 565.764 565.533 561.734 559 561M1511 561C1511.58 563.697 1512.26 563.789 1515 564C1513.77 561.965 1513.3 561.674 1511 561M1803 567L1803 569L1812 570C1809.24 567.41 1806.73 567.089 1803 567M1518 598C1530.84 597.44 1546.49 587.195 1554 577C1549.87 576.398 1546.78 577.949 1543 579.579C1534.41 583.28 1522.24 589.305 1518 598M572.333 578.667C572.278 578.722 572.222 579.778 572.667 579.333C572.722 579.278 572.778 578.222 572.333 578.667M573 581C573.545 582.635 573.365 582.455 575 583L575 581L573 581z"/>
<path style="fill:#fefefe; stroke:none;" d="M1322 584L1321 585C1322.37 587.547 1323.22 588.188 1326 589C1325.49 585.987 1324.84 585.127 1322 584M1301 609C1293.53 605.031 1289.93 603.75 1282 607.644C1279.94 608.657 1275.66 610.691 1277.18 613.718C1278.58 616.511 1282.61 615.404 1285 615.165C1290.59 614.605 1298.97 615.261 1301 609z"/>
<path style="fill:#020202; stroke:none;" d="M1490 616C1496.96 614.758 1502.9 610.703 1507 605C1500.48 606.548 1493.15 609.829 1490 616M1447.33 611.667C1447.28 611.723 1447.22 612.777 1447.67 612.333C1447.72 612.278 1447.78 611.222 1447.33 611.667M1517 624C1516.41 628.052 1517.95 629.593 1522 629C1520.68 626.313 1519.69 625.324 1517 624M1505 640L1506 644L1508 644L1509 643L1509 641L1505 640z"/>
<path style="fill:#fefefe; stroke:none;" d="M1944 640C1944 645.786 1943.19 651.069 1949 654C1948.99 648.811 1948.43 644.641 1946 640L1944 640z"/>
<path style="fill:#020202; stroke:none;" d="M1148.33 641.667C1148.28 641.723 1148.22 642.777 1148.67 642.333C1148.72 642.278 1148.78 641.222 1148.33 641.667z"/>
<path style="fill:#fefefe; stroke:none;" d="M1103 662C1102.83 665.566 1102.24 672.214 1096.99 670.958C1089.38 669.141 1092.25 660.034 1086.77 657.071C1082.98 655.024 1078.62 658.747 1076 661.105C1068.88 667.521 1063.43 674.339 1062 684L1074 687L1068 690C1074.86 696.164 1086.27 696 1095 696C1095.44 687.925 1101.61 677.853 1107.18 672.104C1110.09 669.104 1115.41 667.247 1116.55 662.907C1118.94 653.863 1104.58 648.965 1098.51 653.938C1093.48 658.062 1098.81 661.68 1103 662M1125.32 655.042C1120.17 658.305 1125.43 667.024 1130.89 663.377C1137.38 659.039 1131 651.44 1125.32 655.042M1922 679C1924.74 677.859 1927.43 676.629 1930 675.123C1931.68 674.134 1933.39 673.072 1934.77 671.671C1944.66 661.635 1923.11 653.561 1919.72 664.109C1919.02 666.302 1919 668.739 1919.3 671C1919.7 673.901 1920.7 676.415 1922 679z"/>
<path style="fill:#020202; stroke:none;" d="M1792 664C1793.76 671.42 1800.59 677.128 1807 680.867C1809.69 682.438 1814.71 684.29 1816.76 680.697C1818.55 677.565 1814.99 674.807 1812.98 672.929C1807.55 667.845 1799.69 662.525 1792 664M1928 664L1929 665L1928 664M1352 673C1357.26 672.997 1361.93 672.426 1367 671C1362.3 668.184 1355.42 668.353 1352 673M1297 675C1304.42 679.442 1316.04 678.422 1324 676.14C1327.66 675.09 1330.86 674.246 1333 671C1320.81 671 1308.46 670.07 1297 675M1340 672C1342.05 672.751 1342.6 672.656 1344 671L1340 672M1635 674C1636.19 678.077 1640.25 678.326 1644 679.412C1651.79 681.666 1658.96 683.18 1667 684.259C1685.38 686.727 1702.84 693.549 1721 697.528C1728.44 699.159 1736.59 698.383 1743.94 700.218C1747.18 701.027 1748.26 704.412 1751.06 705.935C1755.53 708.358 1762.29 706.888 1767 706C1764.89 699.997 1758.86 703.095 1754 701.973C1751.26 701.341 1749.34 699.236 1747 697.838C1743.93 696.003 1740.31 695.098 1737 693.797C1731.1 691.482 1725.2 689.054 1719 687.665C1714.03 686.552 1708.82 686.321 1704 684.613C1699.05 682.86 1694.29 677.987 1689 677.606C1682.46 677.135 1677.17 682.673 1670 681.816C1658.18 680.401 1647.13 674.258 1635 674M1734 674L1735 675L1734 674M1736 675C1737.61 676.914 1738.78 677.837 1741 679C1739.62 676.58 1738.64 675.939 1736 675M1899 677L1900 678L1899 677M1033 679L1033 682C1034.8 682 1034.52 681.986 1036 681C1034.78 679.805 1034.58 679.683 1033 679z"/>
<path style="fill:#fefefe; stroke:none;" d="M504.394 685.028C499.124 688.449 502.719 694.301 501.948 699C501.209 703.514 496.219 706.853 497.361 711.852C497.991 714.607 500.599 714.9 503.005 714.977C508.077 715.139 514.669 714.084 518.852 711.005C524.394 706.926 519.236 702.816 518.353 698C517.697 694.419 520.511 690.655 519.303 687.228C517.774 682.89 507.625 682.93 504.394 685.028z"/>
<path style="fill:#020202; stroke:none;" d="M1379 688C1381.37 688.508 1382.73 687.94 1385 687C1382.63 686.492 1381.27 687.06 1379 688M1194 703C1196.12 702.101 1196.1 702.124 1197 700C1194.64 700.482 1194.48 700.636 1194 703M1453.02 710.671C1447.28 712.321 1447.4 718.441 1449.57 723C1452.78 729.713 1463.73 740.628 1471.98 738.181C1478.53 736.236 1476.01 731.138 1473.14 727C1469.04 721.095 1461.95 708.104 1453.02 710.671M1679 715C1685.78 718.464 1693.18 719.697 1700 722.912C1714.02 729.527 1725.83 736.955 1742 737C1739.83 730.835 1735.3 731.549 1730 729.204C1725.34 727.139 1720.98 724.759 1716 723.478C1707.99 721.419 1701.51 721.204 1694 717.22C1689.79 714.984 1681.39 707.867 1679 715M1252 715C1253.15 717.249 1253.75 717.846 1256 719C1254.85 716.751 1254.25 716.154 1252 715M1194 728C1196.76 725.954 1198.41 724.052 1200 721C1196.23 722.178 1195.11 724.301 1194 728M1222 751C1240.41 750.998 1253.94 739.279 1271 734.641C1279.21 732.409 1286.19 736.848 1291 727C1275.44 727.67 1259.86 734.928 1245 739.14C1236.1 741.664 1227.75 743.03 1222 751M1306 735L1307 736L1306 735M1287.67 738.333C1287.22 738.777 1288.28 738.723 1288.33 738.667C1288.78 738.222 1287.72 738.278 1287.67 738.333M1395 738C1395.95 744.457 1398.11 754.844 1405 757C1403.39 750.221 1400.16 742.771 1395 738M1688 741C1694.5 741.822 1699.6 741.099 1706 740.661C1711.49 740.285 1716.52 741.306 1722 740C1715.97 735.879 1703.23 737.955 1696 738.001C1692.45 738.023 1689.99 737.929 1688 741M1471 760C1470.59 755.282 1469.37 749.931 1466.2 746.228C1464.73 744.514 1461.88 742.472 1459.6 744.072C1457.46 745.581 1458.22 749.057 1459.18 750.999C1461.51 755.695 1466.17 758.564 1471 760z"/>
<path style="fill:#fefefe; stroke:none;" d="M943.619 758.072C939.178 761.31 948.374 771.605 952.381 768.263C956.807 764.573 947.962 754.904 943.619 758.072z"/>
<path style="fill:#020202; stroke:none;" d="M1408 764C1409.92 762.703 1410.32 762.209 1411 760C1408.35 760.866 1407.92 761.23 1408 764M1052 762C1052.94 763.949 1053.39 764.55 1055 766C1054.33 763.703 1054.03 763.226 1052 762M1498 764L1498 766L1500 766L1500 764L1498 764M1816 772C1812.64 771.856 1809.35 771.143 1806 771.043C1804.36 770.994 1802.61 770.98 1801.02 771.434C1796.08 772.843 1795.14 778.235 1799.23 781.397C1803.42 784.64 1810.12 782.909 1813.03 778.893C1814.54 776.806 1815.3 774.433 1816 772M1016 794C1023.02 792.696 1029.95 793.513 1037 792.83C1056.7 790.924 1077.52 787.118 1096 780C1092.87 770.557 1080.56 781.347 1075 782.567C1071.36 783.365 1067.68 781.88 1064 782.315C1053.71 783.529 1043.29 785.175 1033 786.576C1026.63 787.444 1019.66 788.017 1016 794M1551 782L1551 784C1562.88 787.512 1575.89 783.202 1588 784.09C1596.75 784.732 1604.37 789.889 1613 790.826C1626.33 792.274 1640.76 789.319 1654 788.174C1658.37 787.797 1665.06 792.442 1668.68 790.759C1673.63 788.462 1669.32 780.229 1668 777C1660.47 780.448 1655.68 785.579 1647 786.711C1640.82 787.515 1633.12 787.743 1627 786.522C1622.92 785.707 1619.21 783.853 1615 783.519C1609.67 783.095 1604.34 784.762 1599 783.61C1595.53 782.861 1592.56 780.683 1589 780.228C1582.81 779.436 1576.22 781.862 1570 781.985C1563.51 782.112 1557.36 780.119 1551 782M1476 785C1476.49 789.257 1477.75 791.093 1482 792C1481.37 787.939 1479.97 786.15 1476 785M1731 796L1732 797L1731 796M1764 796C1767.33 800.627 1771.33 803.903 1777 805C1774.45 799.808 1769.39 797.554 1764 796M1541 855C1543.71 854.016 1546.24 852.476 1549 851.647C1561.41 847.92 1587.39 845.918 1581 827C1580.34 825.055 1579.72 822.954 1578.58 821.225C1576.77 818.473 1573.65 817.595 1571.01 815.868C1567.52 813.581 1564.92 809.867 1560.99 808.268C1556.75 806.55 1553.18 809.24 1549 809.58C1545.49 809.866 1542.24 808.079 1539 807L1541 801C1537.26 801.282 1532.75 802.515 1532.27 807.005C1532 809.506 1533.42 811.49 1532.12 813.957C1530.86 816.377 1528.31 817.613 1526.56 819.594C1522.25 824.469 1517.34 835.331 1521.22 841.686C1522.84 844.34 1526.36 843.768 1528.91 844.722C1533.87 846.577 1538.76 850.256 1541 855M256 810C259.555 808.78 261.338 807.376 263 804C259.445 805.22 257.662 806.624 256 810M1059 811L1059 813C1061.47 815.276 1063.21 818.188 1066 820C1065.57 815.085 1064.63 810.784 1059 811M1457 810C1459.06 811.582 1460.39 811.826 1463 812C1461.03 810.937 1459.2 810.468 1457 810M1467 810L1465 811C1466.48 811.791 1467.8 811.87 1467 810M1483 812C1484.77 812.779 1486.04 812.912 1488 813C1486.23 812.221 1484.96 812.088 1483 812M1492 812C1494.41 815.371 1498.2 814.384 1502 815C1499.09 812.781 1495.58 812.667 1492 812M1504 814C1507.89 816.944 1513.28 816 1518 816C1513.94 813.227 1508.76 814 1504 814M1070 822C1072.61 825.109 1078.29 825.945 1082 827.755C1093.87 833.545 1107.24 833.833 1120 836.274C1123.47 836.938 1126.56 838.904 1130 839.76C1135.34 841.087 1146.48 845.406 1150 840C1123.18 834.799 1097.16 825.508 1070 822M1034 829C1035.44 833.684 1039.56 834.475 1042.26 838.21C1044.57 841.419 1043.69 845.331 1044.11 848.995C1044.33 850.905 1044.88 853.735 1047.22 854.079C1051.96 854.773 1058.69 843.218 1056.26 839.379C1052.39 833.251 1040.59 830.364 1034 829M1773.32 832.032C1768.63 835.101 1774.2 842.485 1778.68 839.917C1783.91 836.925 1778.51 828.639 1773.32 832.032z"/>
<path style="fill:#fefefe; stroke:none;" d="M1803 842C1805.71 839.741 1806.52 838.501 1806 835C1802.75 836.806 1802.4 838.383 1803 842z"/>
<path style="fill:#020202; stroke:none;" d="M1222 842C1222.15 845.297 1222.72 847.958 1224 851C1226.36 847.837 1225.64 845.437 1224 842L1222 842M1126 847C1131.85 852.219 1146.44 856.171 1154 854C1147.08 847.749 1135.01 844.338 1126 847M1510 859C1517.96 858.934 1525.03 857.694 1530 851C1522.03 851.005 1515.31 852.598 1510 859M1159 855C1161.14 856.955 1164.42 858.937 1164.98 862.012C1165.53 865.066 1162.89 867.399 1160.91 869.271C1155.81 874.063 1150.29 878.434 1145 883C1128.87 896.916 1114.11 912.26 1098 926.13C1093.44 930.053 1088.93 934.1 1084 937.56C1080.63 939.93 1077.07 941.357 1075 945C1081.21 944.949 1088.85 944.417 1094 940.57C1100.48 935.724 1103.41 927.785 1109.09 922.17C1114.1 917.212 1119.75 913.415 1125 908.815C1135.95 899.231 1146.21 888.712 1157 878.925C1161.65 874.712 1166.24 870.381 1171 866.3C1175.46 862.477 1179.31 860.175 1180 854C1172.8 854.314 1166.27 855.15 1159 855M1242 854C1242.85 855.991 1243.27 856.778 1245 858C1244.33 855.703 1244.03 855.226 1242 854M1693.6 855.086C1690.46 857.26 1694.13 863.177 1697.4 860.914C1700.54 858.74 1696.87 852.823 1693.6 855.086M1312 860C1315.01 859.492 1315.87 858.84 1317 856C1314.36 856.939 1313.38 857.58 1312 860M1571 870C1573.69 869.787 1576.35 869.422 1579 868.904C1581.46 868.424 1594.64 863.313 1589.34 859.067C1587.62 857.689 1584.74 858.808 1583 859.53C1578.08 861.574 1572.6 864.755 1571 870z"/>
<path style="fill:#fefefe; stroke:none;" d="M1802 867C1797.83 865.672 1794.28 862.26 1790 861.463C1783.52 860.255 1778.83 866.346 1778 872C1787.5 873.397 1810.37 882.562 1810.94 866.005C1811.02 863.833 1810.61 862.052 1810 860C1806.15 861.494 1803.82 863.276 1802 867M833 878C831.517 886.822 841.614 881.172 833 878z"/>
<path style="fill:#020202; stroke:none;" d="M859.333 881.667C859.278 881.722 859.222 882.778 859.667 882.333C859.722 882.278 859.778 881.222 859.333 881.667M1158 893C1158.08 902.671 1163.52 909.923 1166 919C1168.15 918.93 1170.62 919.089 1172.26 917.397C1174.47 915.116 1174.07 910.912 1174.67 908C1176.02 901.429 1182.32 885.914 1171.96 883.157C1165.97 881.564 1163.34 891.42 1158 893M1189 890L1189 892C1194.57 893.63 1199.77 892.249 1205 890C1200.09 886.136 1194.24 887.369 1189 890M1586 890L1593 889C1590.09 886.913 1588.45 887.523 1586 890M1058 897C1066.22 896.931 1073.95 893.945 1082 892.529C1085.39 891.933 1088.64 892.728 1092 892L1091 888C1081 889.885 1065.02 888.841 1058 897M898 904C900.207 910.65 908.599 906.946 913.996 908.318C918.703 909.515 920.544 913.835 922 918L924 918C926.392 910.976 929.455 906.259 936 902.464C938.798 900.843 947.05 899.57 947.534 895.831C948.228 890.466 938.003 892 935 892C929.797 892 924.053 891.337 919 892.789C911.552 894.93 904.826 900.405 898 904M1627 896.522C1621.36 897.029 1609.23 899.316 1606.04 904.529C1600.69 913.289 1618 912.288 1622 911.895C1626.13 911.49 1630.67 909.565 1632.91 905.895C1635.86 901.047 1632.58 896.021 1627 896.522M278.323 901.032C273.592 904.144 279.588 909.658 283.677 906.968C288.408 903.856 282.412 898.342 278.323 901.032M868 901C868.5 907.119 870.124 916.105 874.419 920.772C880.01 926.847 885.787 922.675 887 916C877.745 913.328 875.276 905.666 868 901M1640 906C1645.72 908.393 1650.54 905.65 1654 901C1648.7 901.275 1644.53 903.357 1640 906M1671 920C1678.78 915.665 1685.97 910.662 1689 902C1679.48 902.23 1671.64 910.5 1671 920M281 914C284.3 917.293 287.5 918.224 292 917C288.717 914.145 285.238 914.036 281 914M1767 918C1761.3 912.184 1751.79 915.572 1745 917.561C1728.73 922.324 1711.93 925.75 1696 931.808C1691.01 933.706 1685.88 935.393 1681.02 937.619C1679.21 938.447 1676.64 939.584 1676.64 941.956C1676.64 944.991 1680.19 944.289 1682 943.629C1687.77 941.53 1693 938.934 1699 937.371C1709.18 934.72 1718.06 929.13 1728 926.301C1731.94 925.18 1736.1 925.475 1740 924.363C1743.81 923.277 1747.03 920.819 1751 920.213C1756.55 919.366 1761.52 919.736 1767 918M1704.67 917.333C1704.22 917.778 1705.28 917.722 1705.33 917.667C1705.78 917.223 1704.72 917.278 1704.67 917.333M1709 918C1710.22 919.195 1710.42 919.316 1712 920C1710.78 918.805 1710.58 918.683 1709 918M114 926C116.371 932.94 125.054 932.416 131 931L131 929C124.962 925.206 120.813 925.708 114 926M809 925C807.53 929.974 807.279 935.868 812 939C811.735 934.03 810.006 930.015 811 925L809 925M1754.21 928.028C1747.99 931.639 1743.48 940.044 1743.09 947C1742.95 949.692 1742.95 953.262 1745.43 954.972C1750.68 958.579 1761.31 952.741 1765.81 949.864C1771.34 946.336 1775.15 933.743 1769.49 928.742C1767.03 926.575 1763.04 926.953 1760 927.005C1758.04 927.038 1755.96 927.01 1754.21 928.028M920 940C915.877 943.446 916.887 946.08 916.625 951C916.141 960.094 916.474 972.474 906.999 976.633C903.896 977.996 898.3 979.861 895.089 978.188C892.481 976.829 890.549 972.453 887.171 972.921C884.711 973.263 883.428 976.227 882.1 977.961C879.427 981.451 874.741 985.14 870 983.921C864.711 982.562 861.284 976.733 857.714 973.059C855.839 971.129 853.25 968.703 850.533 970.662C840.947 977.573 856.546 989.399 856.292 996.999C856.124 1002.01 849.899 1005.14 846 1007C840.581 995.211 832.385 1001.3 828.811 1011C825.562 1019.82 831.557 1022.25 833.387 1030C834.332 1034 832.299 1038.43 830.688 1042C828.999 1045.75 827.146 1049.91 823.896 1052.57C819.233 1056.38 814.272 1057.03 812.708 1063.96C811.229 1070.5 826.865 1072.93 820.254 1080.55C818.851 1082.17 816.976 1082.35 814.996 1081.94C811.247 1081.16 807.934 1079.55 804 1079.46C800.987 1079.39 798.005 1080.55 795 1080.02C792.457 1079.57 787.261 1075.75 785.072 1078.64C783.043 1081.33 786.327 1085.53 788.329 1087.15C792.374 1090.41 798.09 1090.21 803 1089.91C805.91 1089.73 809.225 1088.82 811.442 1091.33C815.789 1096.27 807.401 1100.68 806 1105C810.592 1105 816.416 1104.57 818.089 1110.02C818.917 1112.72 817.935 1115.31 819.617 1117.83C822.052 1121.48 826.002 1123.43 827.152 1128C829.81 1138.57 817.548 1136.21 812.56 1140.01C810.411 1141.65 809.284 1145.56 808.349 1148C807.628 1149.88 806.969 1151.91 807.647 1153.91C808.869 1157.52 813.233 1159.24 815.957 1161.52C822.304 1166.83 823.066 1172.07 832 1173.59C837.412 1174.51 846.903 1172.79 850.667 1177.15C853.623 1180.57 852.034 1185.86 852 1190C858.71 1190.74 858.739 1185.55 864.104 1183.64C873.294 1180.38 875.517 1190.61 874 1197C870.653 1195.7 863.093 1191.03 860.012 1194.61C857.823 1197.15 858.677 1201.23 854.891 1202.65C851.762 1203.82 847.197 1201.47 844 1201C849.312 1207.06 858.457 1207.54 863.487 1214.09C865.499 1216.71 866.032 1220.04 867.349 1223C869.103 1226.95 872.354 1230.64 873.002 1235C873.831 1240.59 870.874 1245.33 873.367 1251C875.173 1255.1 881.778 1260.1 885.861 1255.4C887.977 1252.96 888.68 1248.07 889.331 1245C890.424 1239.84 889.265 1235.15 889.039 1230C888.716 1222.61 889.488 1215.29 887.877 1208C886.709 1202.72 879.766 1195.45 883.964 1190.32C887.565 1185.92 900.49 1191.19 902.968 1195.27C907.45 1202.67 896.759 1212.31 899.69 1219.66C901.049 1223.07 904.035 1219.72 904.891 1217.94C907.303 1212.91 908.747 1206.53 909 1201C914.261 1202.09 915.41 1198.6 920.039 1197.99C929 1196.82 931.105 1207.01 933 1213C934.756 1212.1 935.938 1211.47 937.174 1209.85C939.228 1207.16 940.047 1203.73 942.394 1201.22C946.791 1196.53 953.144 1196.64 955.518 1203.02C956.491 1205.63 957.012 1208.38 958 1211C960.954 1206.68 958.164 1200.14 961.603 1196.36C967.534 1189.85 977.512 1202 979 1207C981.263 1205.48 982.565 1202.22 985.133 1201.24C988.989 1199.76 993.675 1204.53 997 1206C996.623 1202.32 994.954 1199.51 994.059 1196C992.787 1191.01 998.243 1183.17 1003.96 1185.24C1006.92 1186.31 1008.47 1189.72 1010.38 1191.98C1013.59 1195.81 1017.78 1198.99 1023 1198.86C1027.4 1198.76 1031.67 1196.57 1034.9 1193.67C1036.67 1192.08 1038.12 1189.18 1040.38 1188.25C1043.01 1187.17 1047.23 1189.64 1050 1190C1045.52 1183.63 1034.56 1176.93 1033.02 1169C1032.42 1165.9 1035.24 1163 1035.77 1160C1036.71 1154.74 1035.59 1149.99 1038.19 1145C1041.16 1139.29 1044.69 1139.55 1049.96 1137.41C1052.65 1136.32 1054.31 1133.54 1057.09 1132.7C1061.03 1131.51 1067.03 1134.23 1071 1135C1068.81 1131.59 1065 1130.02 1062.39 1126.91C1059.74 1123.75 1059.01 1119.87 1058 1116C1061.74 1114.64 1065.02 1114.04 1069 1114C1067.33 1110.54 1063.72 1107.8 1062.81 1104C1061.55 1098.79 1067.31 1091.57 1072.01 1089.93C1076.08 1088.52 1081.83 1090.03 1086 1090.58C1092.04 1091.37 1098.88 1091.5 1104.96 1090.94C1110.21 1090.45 1111.41 1084.53 1117 1084.15C1123.71 1083.69 1135.11 1090.16 1138 1081C1131.83 1079.85 1126.1 1081.01 1120 1080.47C1113.97 1079.94 1108.8 1076.83 1103 1075.53C1098.37 1074.49 1093.68 1075.78 1089 1074.98C1082.08 1073.8 1074.05 1070.53 1071 1079C1063.24 1074.93 1065.4 1064.32 1066.59 1057C1067.22 1053.15 1068.18 1048.95 1072.04 1047.07C1077.45 1044.44 1085.82 1048.47 1092 1047L1092 1045C1084.36 1041.32 1074.26 1043.11 1071.22 1033C1069.68 1027.86 1071.71 1022.27 1070.21 1017C1068.86 1012.26 1063.94 1007.07 1064.77 1002C1065.88 995.214 1073.13 991.359 1075.04 985C1075.87 982.249 1074.39 979.746 1074.55 977C1074.8 972.482 1078.55 968.022 1082.01 965.434C1090.37 959.196 1106.18 962.437 1116 961.96C1120.08 961.761 1123.93 960.355 1128 960C1124.63 955.308 1119.95 950.329 1114 950C1115.15 952.463 1117.64 957.014 1112.98 957.534C1109.2 957.956 1107.99 953.549 1105.61 951.588C1102.58 949.094 1097.74 948.989 1094 949.008C1087.25 949.044 1084.63 953.346 1079 956.085C1072.97 959.013 1066.39 959.46 1060 961C1059.31 958.099 1058.39 955.638 1057 953C1051.79 956.565 1053.77 960.619 1055 966C1052.73 965.721 1050.27 965.096 1048 965.65C1041.09 967.334 1038.68 971.874 1033 965C1029.35 966.541 1026.57 969.436 1023 971.012C1017.64 973.379 1012.23 967.114 1012.29 962C1012.36 957.236 1015.66 953.38 1017.01 949.005C1017.55 947.262 1018.01 944.451 1015.69 943.752C1012.52 942.792 1010.63 946.721 1009.71 949.005C1007.48 954.523 1006.61 958.497 1000 959C999.843 952.518 995.979 948.869 989 949.357C979.233 950.041 977.536 965.353 968 966.382C964.163 966.796 955.281 964.768 952.319 962.262C947.862 958.49 951.515 951.532 956.018 949.742C958.776 948.646 962.094 949.002 965 949C963.136 945.208 960.154 943.587 957.089 940.795C955.078 938.961 953.409 936.422 950.911 935.198C946.152 932.867 941.282 937.953 939.501 942C936.993 947.698 943.805 952.197 939.343 957.786C935.09 963.115 924.916 964.783 921.318 957.945C918.7 952.971 920 945.451 920 940M848 945C852.691 945 856.71 945.064 861 943C856.916 941.286 850.836 941.275 848 945M866 942L867 943L866 942M1002 945L1001 949C1002.3 947.332 1002.55 947.008 1002 945M1801 945L1801 947L1808 947C1805.69 945.409 1803.81 945.142 1801 945M1208 950C1212.37 950.811 1216.56 951 1221 951C1217.44 947.557 1211.35 945.264 1208 950M1032 948L1032 951L1034 951L1034 948L1032 948M744 959C749.956 962.742 755.132 963 762 963C758.799 956.512 749.911 954.962 744 959M813 958C812.376 961.794 812.524 964.434 814 968C817.048 964.706 816.653 962.002 815 958L813 958z"/>
<path style="fill:#fefefe; stroke:none;" d="M1850 960C1848.34 960.499 1846.67 960.862 1845.29 962.01C1839.87 966.541 1847.9 974.384 1850.56 966.942C1850.89 966.035 1850.85 964.988 1850.86 964.044C1850.89 962.564 1850.41 961.395 1850 960z"/>
<path style="fill:#020202; stroke:none;" d="M861 964C863.613 965.098 866.165 964.993 869 965C866.252 962.925 864.272 963.065 861 964M881 963C881.98 964.783 881.907 964.594 884 965C882.861 963.985 882.388 963.691 881 963M1156 965C1158.46 965.697 1159.67 965.11 1162 964C1159.54 963.303 1158.33 963.89 1156 965M1787 970C1792.52 969.518 1797.4 968.2 1800 963C1794.74 963.459 1788.74 964.472 1787 970M1681.67 965.333C1681.22 965.778 1682.28 965.722 1682.33 965.667C1682.78 965.223 1681.72 965.278 1681.67 965.333M1147 971C1149.53 971.71 1150.52 971.131 1152 969C1150.12 969.547 1148.74 970.11 1147 971M1637 1021C1644.91 1019.19 1652.31 1013.12 1659 1008.67C1670.53 1001 1682.17 993.391 1694 986.203C1700.79 982.082 1710.26 978.983 1713 971C1705.61 969.22 1699.65 976.31 1694 980.279C1680.3 989.899 1666.14 998.992 1652 1007.95C1646.39 1011.5 1638.14 1013.78 1637 1021M1109 997C1113.44 996.327 1116.35 993.848 1120 991.347C1125.93 987.281 1132.58 983.767 1137 978C1127.73 980.67 1111.8 987.016 1109 997M1312 999C1318.2 998.872 1325.97 998.847 1328 992C1319.36 991.928 1316.42 990.636 1312 999M1601 1012C1612.43 1010.55 1623.1 1006.55 1634 1003L1634 1001C1625.9 999.093 1617.69 1002.46 1610 1005C1605.66 1006.44 1601.85 1007.09 1601 1012M794 1006C791.671 1003.82 785.833 1000.86 782.623 1003.11C778.122 1006.27 785.924 1007.69 787.996 1007.25C790.022 1006.82 791.946 1006.3 794 1006M1760 1007L1760 1009C1764.28 1008.66 1770.18 1008.49 1773 1005C1768.59 1005.65 1764.5 1006.9 1760 1007M1739 1010C1742.6 1011.5 1746.22 1010.48 1750 1010L1750 1008C1746.17 1008.17 1742.68 1008.97 1739 1010M1369 1015C1369.04 1019.56 1370.25 1023.56 1371 1028C1375.53 1024.55 1373.37 1019.23 1371 1015L1369 1015M1649 1048C1653.93 1047.79 1658.2 1045.91 1663 1045.21C1671.16 1044.02 1679.53 1044.92 1687 1041L1687 1039C1677.84 1036.82 1670.8 1040.75 1662 1042.55C1657.2 1043.53 1651.9 1043.62 1649 1048M1204 1047C1203.1 1050.04 1203.01 1052.83 1203 1056L1205 1056C1205 1052.87 1205.21 1049.89 1204 1047M1090 1058C1097.15 1060.13 1114.67 1063.7 1118 1055C1114.99 1052.78 1111.76 1049.58 1108 1048.76C1100.88 1047.2 1093.67 1052.58 1090 1058M1150.67 1051.33C1150.22 1051.78 1151.28 1051.72 1151.33 1051.67C1151.78 1051.22 1150.72 1051.28 1150.67 1051.33M1572 1052.52C1558.83 1053.73 1547.29 1062.16 1535 1066.11C1530.82 1067.45 1527.11 1064.7 1523 1066.58C1519.45 1068.2 1513.95 1071.13 1511.62 1074.32C1509.68 1076.99 1511.05 1079.48 1514.06 1080.23C1520.4 1081.81 1528.33 1076.11 1534 1073.99C1537.84 1072.56 1542.04 1073.23 1546 1072.32C1554.29 1070.42 1564.93 1065.63 1572 1060.89C1575.74 1058.37 1579.66 1051.82 1572 1052.52M1203 1058L1203 1061L1205 1061L1205 1058L1203 1058M752 1062C754.57 1065.75 758.71 1065.91 763 1066C760.545 1061.55 756.661 1062 752 1062M1640 1078C1646.57 1075.51 1654.42 1071.62 1655 1064C1647.57 1064.83 1642.3 1071.17 1640 1078M307 1071C308.809 1071.57 309.069 1071.47 311 1071C309.341 1070.59 308.758 1070.69 307 1071M769 1071C769.033 1074.73 769.372 1077.62 771 1081C774.077 1077.08 774.214 1072.6 769 1071M332 1108C344.894 1103.12 357.164 1093.5 369 1086.4C374.589 1083.05 381.048 1080.05 384 1074C370.155 1076.68 358.389 1089.94 346 1096.24C340.208 1099.19 333.443 1101.01 332 1108M1524 1087C1529.25 1091.57 1540.22 1090.65 1547 1090.96C1563.38 1091.7 1579.77 1093.93 1596 1096.27C1603.23 1097.31 1612.33 1099.99 1619 1096C1612.05 1091.61 1601.41 1086.25 1593 1086.18C1588.86 1086.15 1585.03 1088.02 1581 1088.68C1576.25 1089.45 1570.78 1089.29 1566 1088.83C1552.82 1087.57 1537 1083.16 1524 1087M756 1089C757.728 1094.87 763.2 1097.4 769 1098C766.439 1092.64 761.743 1090.02 756 1089M1170 1095L1169 1105C1173.39 1102.3 1173.05 1098.84 1170 1095M1401 1100C1403.94 1100.3 1406.3 1101.03 1409 1102.26C1410.36 1102.88 1417.85 1106.5 1417.08 1102.06C1415.91 1095.34 1404.07 1095.37 1401 1100M770 1098C771.553 1100.96 772.656 1101.86 776 1102C774.104 1099.82 772.741 1098.93 770 1098M1398.33 1098.67C1398.28 1098.72 1398.22 1099.78 1398.67 1099.33C1398.72 1099.28 1398.78 1098.22 1398.33 1098.67M790.059 1100.76C780.714 1104.24 790.22 1118.94 797.891 1116.09C806.349 1112.94 797.385 1098.04 790.059 1100.76M1438 1102C1441.03 1104.07 1443.52 1104 1447 1103C1444 1100.98 1441.48 1101.38 1438 1102M1307 1102C1307 1113.43 1310.92 1118.97 1319 1127C1321.47 1129.46 1324.32 1133.06 1328 1133.57C1332.37 1134.18 1335.61 1129.99 1339 1128C1342.85 1125.75 1347.6 1125.12 1352 1125.01C1369.32 1124.59 1386.7 1123.21 1404 1123C1425.38 1122.75 1446.7 1124 1468 1124C1481.44 1124 1501.35 1129.29 1511 1117C1496.95 1112.85 1481.24 1117.99 1467 1117.99C1459.96 1117.99 1453.1 1116.6 1446 1117.09C1437.31 1117.68 1428.73 1119.77 1420 1119.99C1407.65 1120.29 1395.41 1118.5 1383 1119.04C1365.55 1119.8 1347.52 1122.51 1330.02 1120.94C1324.39 1120.44 1323.02 1115.17 1320.3 1111C1316.92 1105.8 1313.26 1102.65 1307 1102M1448 1103C1450.85 1105.12 1453.07 1104.99 1456 1103C1452.97 1102.12 1451.03 1102.12 1448 1103M1729 1104C1730.07 1105.67 1732.06 1107.87 1731.96 1110C1731.71 1115.7 1721.51 1118.86 1719 1124C1725.55 1125.21 1727.24 1118.87 1733 1117.99C1736.97 1117.39 1741.77 1120.78 1746 1121C1745.58 1118.09 1743.23 1114.93 1743.33 1112.11C1743.41 1109.63 1745.91 1108.6 1748.01 1108.23C1753.35 1107.3 1757.99 1110 1763 1107C1757.34 1104.61 1751.96 1105.41 1746 1104.83C1740.16 1104.26 1734.79 1102.3 1729 1104M1486 1106C1487.45 1107.84 1488.74 1108.26 1491 1109C1489.54 1106.88 1488.54 1106.53 1486 1106M1499 1108C1500.51 1108.68 1501.31 1108.83 1503 1109C1501.49 1108.32 1500.69 1108.17 1499 1108M1183 1116C1183.37 1119.65 1184.46 1122.68 1186 1126C1187.09 1122.3 1185.34 1118.9 1183 1116M594 1117C594.674 1119.3 594.965 1119.77 597 1121L597 1117L594 1117M543 1118C540.784 1119.97 539.81 1121.16 539 1124C541.714 1122.48 543.679 1121.25 543 1118M402 1162C412.461 1159.51 418.502 1146.36 423.997 1138C426.12 1134.77 430.708 1129.12 426.667 1125.6C422.334 1121.83 414.609 1126 411.34 1129.33C407.389 1133.35 407.033 1138.85 405.572 1144C403.738 1150.46 400.388 1155.13 402 1162M537 1125C531.252 1129.38 524.488 1134.62 523 1142C528.532 1139.47 538.843 1132.02 537 1125M316.015 1128.07C307.321 1132.1 309.867 1143.98 319.96 1138.95C322.216 1137.82 325.017 1135.76 325.168 1132.98C325.406 1128.6 319.409 1126.49 316.015 1128.07M1736 1130C1736.68 1131.43 1737.1 1132.71 1738.32 1133.82C1739.11 1134.53 1739.97 1135.41 1741.02 1135.76C1749.61 1138.64 1749.79 1124.58 1740.19 1127.69C1738.69 1128.18 1737.33 1129.18 1736 1130M1635 1129C1637.68 1130.59 1638.8 1130.12 1641 1128L1635 1129M1525 1148C1534.07 1144.2 1544.37 1137.93 1549 1129C1540.45 1130.7 1528.66 1140.17 1525 1148M566 1132C562.48 1136.3 561.102 1139.46 562 1145C568.396 1143.16 570.698 1137.02 566 1132M1073 1135C1076.22 1137.9 1079.71 1138.78 1084 1139C1080.76 1135.77 1077.49 1135.11 1073 1135M1266.11 1137.05C1257.7 1141.38 1264.92 1155.07 1267.42 1161C1268.31 1163.1 1270.29 1169.64 1273.72 1167.82C1276.62 1166.29 1275.07 1161.55 1275.21 1159C1275.52 1153.18 1277.42 1146.52 1274.54 1141.02C1272.94 1137.95 1269.66 1135.22 1266.11 1137.05M1644 1147C1648.6 1149.43 1653.06 1147.76 1658 1148.17C1673.27 1149.45 1686.06 1150.78 1701 1146C1699.43 1140.97 1694.6 1139.58 1690 1137.73C1674.3 1131.43 1657.48 1139.13 1644 1147M756 1140C760.309 1148.82 775.712 1153.57 785 1154C780.439 1144.72 765.939 1138.24 756 1140M672.319 1143.18C665.969 1146.13 675.928 1162.28 681.644 1158.91C687.544 1155.43 678.146 1140.46 672.319 1143.18M1583 1153L1583 1155C1594.7 1157.69 1605.02 1152.38 1616 1150.03C1622.11 1148.72 1628.71 1150.17 1635 1149C1630.77 1146.47 1625.8 1146.98 1621 1147C1609.31 1147.06 1593.62 1147.88 1583 1153M1513 1159C1516.75 1157.17 1518.8 1154.51 1521 1151C1517.12 1152.81 1514.81 1155.12 1513 1159M520 1162L520 1164L522 1164L522 1162L520 1162M1506 1163L1506 1165C1507.64 1164.45 1507.45 1164.64 1508 1163L1506 1163M667 1165C667.207 1166.32 667.182 1167.75 668.028 1168.9C673.247 1175.97 681.964 1166.64 672.02 1165.19C670.367 1164.95 668.664 1165.01 667 1165M542 1217C548.746 1216.84 561.28 1211.55 561.263 1203.15C561.256 1199.69 553.291 1201.26 550.995 1197.94C548.534 1194.38 548.624 1189.88 546.57 1186.21C545.071 1183.54 541.48 1182.64 540.353 1179.79C538.896 1176.11 542.59 1171.78 539.397 1168.38C536.392 1165.17 532.965 1169.39 531.573 1172C527.874 1178.96 533.831 1181.34 536.297 1187.01C537.926 1190.76 537.745 1195.05 538.463 1199C539.573 1205.11 541.866 1210.73 542 1217M1503 1166C1501.65 1167.77 1500.88 1168.98 1500 1171C1502.02 1169.36 1503.1 1168.59 1503 1166M444 1170C442.37 1170.09 440.646 1170.03 439.123 1170.74C432.721 1173.75 440.225 1182.57 443.427 1174C443.899 1172.74 443.88 1171.31 444 1170M507 1197C516.187 1193.96 512.53 1179.08 509 1173C499.689 1177.87 504.514 1189.22 507 1197M1496 1174C1490.73 1177.6 1486.78 1181.17 1484 1187C1489.02 1185.06 1496.3 1179.95 1496 1174M782 1183C784.77 1192.78 797.698 1193.44 806 1196.34C810.179 1197.81 813.546 1199.86 818 1199L818 1197C805.63 1191.14 796.256 1183.61 782 1183z"/>
<path style="fill:#fefefe; stroke:none;" d="M2199 1183C2196.33 1188.54 2196.94 1193.35 2199 1199C2200.81 1194.68 2200.81 1187.32 2199 1183z"/>
<path style="fill:#020202; stroke:none;" d="M660 1190L661 1191L660 1190M1051 1190C1052.68 1193.35 1054.3 1194.43 1058 1195C1056.28 1192.02 1054.22 1191.14 1051 1190M703.667 1192.33C703.222 1192.78 704.278 1192.72 704.333 1192.67C704.778 1192.22 703.722 1192.28 703.667 1192.33M731 1192L731 1194L733 1194L733 1192L731 1192M350 1218C358.689 1215.93 369.802 1203.33 368 1194C358.491 1197.73 348.911 1207.42 350 1218M1792 1220L1793 1221C1802.58 1217.94 1815.07 1204.96 1817 1195C1810.28 1195.75 1807.26 1200.32 1802.91 1205C1798.53 1209.71 1794 1213.73 1792 1220M743 1202C743.01 1217.11 746.343 1232.68 751 1247L753 1247C754.066 1242.1 752.832 1237.87 752.131 1233C750.729 1223.25 753.45 1207.15 743 1202M88 1238C92.7465 1241.04 96.7573 1236.7 101 1234.41C109.914 1229.6 124.375 1227.03 127 1216C115.334 1216.03 108.693 1223.84 100 1230.61C96.3129 1233.48 91.9052 1235.42 88 1238z"/>
<path style="fill:#fefefe; stroke:none;" d="M2115 1257L2180 1257C2180 1247.98 2180.2 1236.1 2175.58 1228.04C2170.56 1219.26 2155.85 1214.71 2147 1219.41C2132.82 1226.96 2123.69 1244.23 2115 1257z"/>
<path style="fill:#020202; stroke:none;" d="M584 1219C582.27 1226.57 579.339 1234.23 579 1242C584.54 1238.51 586.154 1225.28 587 1219L584 1219M1866 1233C1871.77 1231.43 1883.17 1224.86 1885 1219C1875.41 1219.01 1869.01 1223.57 1866 1233M475 1253C480.346 1251.47 482.694 1246.99 486.289 1243.04C492.68 1236.01 498.252 1230.84 500 1221C488.692 1222.23 485.98 1231.92 480.353 1240C477.089 1244.68 473.755 1246.95 475 1253M809 1221C809.027 1230.82 814.351 1237.75 816 1247C812.9 1247.4 808.809 1247.61 806.322 1249.74C804.272 1251.49 803.682 1254.99 806.434 1256.4C808.558 1257.48 811.7 1257 814 1257L831 1257C829.475 1251.71 826.513 1247.09 824.453 1242C820.912 1233.26 819.797 1223.09 809 1221M1023 1226C1025.43 1225.35 1026.28 1224.84 1028 1223C1025.31 1223.42 1024.45 1223.72 1023 1226M340 1231C344.091 1231.36 345.363 1229.99 346 1226C342.418 1226.57 341.057 1227.51 340 1231M1013 1226C1015 1229.85 1017.47 1232.49 1021 1235C1019.51 1230.62 1017.19 1227.97 1013 1226M1699 1251C1707.99 1246.88 1715.65 1238.94 1717 1229C1707.98 1230.21 1699.48 1242.23 1699 1251M1114 1231C1115.9 1233.18 1117.26 1234.07 1120 1235C1118.91 1231.56 1117.58 1230.65 1114 1231M1784 1237C1786.59 1235.24 1788.44 1233.71 1790 1231C1786.05 1231.62 1784.19 1232.91 1784 1237M1928 1232C1929.23 1233.87 1929.87 1234.22 1932 1235C1931.42 1232.3 1930.74 1232.21 1928 1232M1209 1250C1211.67 1255.3 1214.85 1254 1220 1254.55C1227.32 1255.34 1234.71 1255 1242 1253.25C1244.97 1252.54 1249.14 1251.76 1251.25 1249.35C1253.26 1247.06 1252.6 1244.28 1249.85 1243.15C1245.82 1241.49 1240.26 1241.72 1236 1242.17C1232.32 1242.57 1228.59 1243.58 1225 1244.48C1219.51 1245.85 1214.01 1247.36 1209 1250M31 1257C38.2658 1256.91 43.9664 1253.25 46 1246C39.1736 1247.03 33.9447 1250.69 31 1257M1031 1248C1031.82 1250.71 1032.57 1251.54 1035 1253C1033.84 1250.78 1032.91 1249.61 1031 1248M701 1254C701.98 1255.78 701.908 1255.59 704 1256C702.777 1254.8 702.58 1254.68 701 1254z"/>
<path style="fill:#fefefe; stroke:none;" d="M2199 1256L2200 1257L2199 1256z"/>
</svg>
