<svg width="90" height="90" viewBox="0 0 90 90" fill="none" xmlns="http://www.w3.org/2000/svg">
<g id="ArrowCircleLeft">
<path id="Vector" d="M45 8.4375C37.7686 8.4375 30.6997 10.5819 24.687 14.5994C18.6743 18.6169 13.988 24.3272 11.2207 31.0081C8.45334 37.6891 7.72928 45.0406 9.14005 52.133C10.5508 59.2254 14.0331 65.7402 19.1464 70.8536C24.2598 75.9669 30.7746 79.4492 37.867 80.86C44.9595 82.2707 52.311 81.5467 58.9919 78.7793C65.6728 76.012 71.3831 71.3257 75.4006 65.313C79.4182 59.3004 81.5625 52.2314 81.5625 45C81.5523 35.3062 77.6969 26.0123 70.8423 19.1577C63.9877 12.3031 54.6939 8.44774 45 8.4375ZM45 75.9375C38.8812 75.9375 32.8997 74.123 27.8121 70.7236C22.7244 67.3241 18.7591 62.4924 16.4175 56.8393C14.0759 51.1862 13.4632 44.9657 14.657 38.9644C15.8507 32.9631 18.7972 27.4506 23.1239 23.1239C27.4506 18.7972 32.9631 15.8507 38.9644 14.657C44.9657 13.4632 51.1862 14.0759 56.8393 16.4175C62.4924 18.7591 67.3242 22.7244 70.7236 27.812C74.1231 32.8997 75.9375 38.8811 75.9375 45C75.9282 53.2023 72.6657 61.0659 66.8659 66.8658C61.066 72.6657 53.2023 75.9282 45 75.9375ZM61.875 45C61.875 45.7459 61.5787 46.4613 61.0513 46.9887C60.5238 47.5162 59.8084 47.8125 59.0625 47.8125H37.7262L44.1774 54.2602C44.4387 54.5215 44.646 54.8317 44.7874 55.1731C44.9288 55.5145 45.0016 55.8805 45.0016 56.25C45.0016 56.6195 44.9288 56.9855 44.7874 57.3269C44.646 57.6683 44.4387 57.9785 44.1774 58.2398C43.916 58.5012 43.6058 58.7084 43.2644 58.8499C42.923 58.9913 42.5571 59.0641 42.1875 59.0641C41.818 59.0641 41.452 58.9913 41.1106 58.8499C40.7692 58.7084 40.459 58.5012 40.1977 58.2398L28.9477 46.9898C28.6862 46.7286 28.4787 46.4185 28.3372 46.077C28.1957 45.7356 28.1228 45.3696 28.1228 45C28.1228 44.6304 28.1957 44.2644 28.3372 43.923C28.4787 43.5815 28.6862 43.2714 28.9477 43.0102L40.1977 31.7602C40.7254 31.2324 41.4412 30.9359 42.1875 30.9359C42.9339 30.9359 43.6496 31.2324 44.1774 31.7602C44.7051 32.2879 45.0016 33.0037 45.0016 33.75C45.0016 34.4963 44.7051 35.2121 44.1774 35.7398L37.7262 42.1875H59.0625C59.8084 42.1875 60.5238 42.4838 61.0513 43.0113C61.5787 43.5387 61.875 44.2541 61.875 45Z" fill="#781717"/>
</g>
</svg>
