<svg width="90" height="90" viewBox="0 0 90 90" fill="none" xmlns="http://www.w3.org/2000/svg">
<g id="ArrowCircleRight">
<path id="Vector" d="M45 8.4375C37.7686 8.4375 30.6996 10.5819 24.6869 14.5994C18.6743 18.6169 13.988 24.3272 11.2206 31.0081C8.45331 37.6891 7.72925 45.0406 9.14002 52.133C10.5508 59.2254 14.033 65.7402 19.1464 70.8536C24.2598 75.9669 30.7746 79.4492 37.867 80.86C44.9594 82.2707 52.3109 81.5467 58.9918 78.7793C65.6728 76.012 71.3831 71.3257 75.4006 65.313C79.4181 59.3004 81.5625 52.2314 81.5625 45C81.5522 35.3062 77.6969 26.0123 70.8423 19.1577C63.9877 12.3031 54.6938 8.44774 45 8.4375ZM45 75.9375C38.8811 75.9375 32.8997 74.123 27.812 70.7236C22.7244 67.3241 18.759 62.4924 16.4175 56.8393C14.0759 51.1862 13.4632 44.9657 14.6569 38.9644C15.8507 32.9631 18.7972 27.4506 23.1239 23.1239C27.4506 18.7972 32.9631 15.8507 38.9644 14.657C44.9657 13.4632 51.1862 14.0759 56.8393 16.4175C62.4923 18.7591 67.3241 22.7244 70.7236 27.812C74.123 32.8997 75.9375 38.8811 75.9375 45C75.9282 53.2023 72.6657 61.0659 66.8658 66.8658C61.0659 72.6657 53.2023 75.9282 45 75.9375ZM61.0523 43.0102C61.3138 43.2714 61.5213 43.5815 61.6628 43.923C61.8043 44.2644 61.8772 44.6304 61.8772 45C61.8772 45.3696 61.8043 45.7356 61.6628 46.077C61.5213 46.4185 61.3138 46.7286 61.0523 46.9898L49.8023 58.2398C49.2746 58.7676 48.5588 59.0641 47.8125 59.0641C47.0662 59.0641 46.3504 58.7676 45.8226 58.2398C45.2949 57.7121 44.9984 56.9963 44.9984 56.25C44.9984 55.5037 45.2949 54.7879 45.8226 54.2602L52.2738 47.8125H30.9375C30.1916 47.8125 29.4762 47.5162 28.9487 46.9887C28.4213 46.4613 28.125 45.7459 28.125 45C28.125 44.2541 28.4213 43.5387 28.9487 43.0113C29.4762 42.4838 30.1916 42.1875 30.9375 42.1875H52.2738L45.8226 35.7398C45.2949 35.2121 44.9984 34.4963 44.9984 33.75C44.9984 33.0037 45.2949 32.2879 45.8226 31.7602C46.3504 31.2324 47.0662 30.9359 47.8125 30.9359C48.5588 30.9359 49.2746 31.2324 49.8023 31.7602L61.0523 43.0102Z" fill="#781717"/>
</g>
</svg>
